<svg id="visual" viewBox="0 0 900 600" width="900" height="600" xmlns="http://www.w3.org/2000/svg" xmlns:xlink="http://www.w3.org/1999/xlink" version="1.1"><rect x="0" y="0" width="900" height="600" fill="#ffffff"></rect><defs><linearGradient id="grad1_0" x1="33.3%" y1="0%" x2="100%" y2="100%"><stop offset="20%" stop-color="#800000" stop-opacity="1"></stop><stop offset="80%" stop-color="#800000" stop-opacity="1"></stop></linearGradient></defs><defs><linearGradient id="grad1_1" x1="33.3%" y1="0%" x2="100%" y2="100%"><stop offset="20%" stop-color="#800000" stop-opacity="1"></stop><stop offset="80%" stop-color="#973323" stop-opacity="1"></stop></linearGradient></defs><defs><linearGradient id="grad1_2" x1="33.3%" y1="0%" x2="100%" y2="100%"><stop offset="20%" stop-color="#ad5543" stop-opacity="1"></stop><stop offset="80%" stop-color="#973323" stop-opacity="1"></stop></linearGradient></defs><defs><linearGradient id="grad1_3" x1="33.3%" y1="0%" x2="100%" y2="100%"><stop offset="20%" stop-color="#ad5543" stop-opacity="1"></stop><stop offset="80%" stop-color="#c17665" stop-opacity="1"></stop></linearGradient></defs><defs><linearGradient id="grad1_4" x1="33.3%" y1="0%" x2="100%" y2="100%"><stop offset="20%" stop-color="#d3988a" stop-opacity="1"></stop><stop offset="80%" stop-color="#c17665" stop-opacity="1"></stop></linearGradient></defs><defs><linearGradient id="grad1_5" x1="33.3%" y1="0%" x2="100%" y2="100%"><stop offset="20%" stop-color="#d3988a" stop-opacity="1"></stop><stop offset="80%" stop-color="#e4b9af" stop-opacity="1"></stop></linearGradient></defs><defs><linearGradient id="grad1_6" x1="33.3%" y1="0%" x2="100%" y2="100%"><stop offset="20%" stop-color="#f2dcd7" stop-opacity="1"></stop><stop offset="80%" stop-color="#e4b9af" stop-opacity="1"></stop></linearGradient></defs><defs><linearGradient id="grad1_7" x1="33.3%" y1="0%" x2="100%" y2="100%"><stop offset="20%" stop-color="#f2dcd7" stop-opacity="1"></stop><stop offset="80%" stop-color="#ffffff" stop-opacity="1"></stop></linearGradient></defs><defs><linearGradient id="grad2_0" x1="0%" y1="0%" x2="66.7%" y2="100%"><stop offset="20%" stop-color="#800000" stop-opacity="1"></stop><stop offset="80%" stop-color="#800000" stop-opacity="1"></stop></linearGradient></defs><defs><linearGradient id="grad2_1" x1="0%" y1="0%" x2="66.7%" y2="100%"><stop offset="20%" stop-color="#973323" stop-opacity="1"></stop><stop offset="80%" stop-color="#800000" stop-opacity="1"></stop></linearGradient></defs><defs><linearGradient id="grad2_2" x1="0%" y1="0%" x2="66.7%" y2="100%"><stop offset="20%" stop-color="#973323" stop-opacity="1"></stop><stop offset="80%" stop-color="#ad5543" stop-opacity="1"></stop></linearGradient></defs><defs><linearGradient id="grad2_3" x1="0%" y1="0%" x2="66.7%" y2="100%"><stop offset="20%" stop-color="#c17665" stop-opacity="1"></stop><stop offset="80%" stop-color="#ad5543" stop-opacity="1"></stop></linearGradient></defs><defs><linearGradient id="grad2_4" x1="0%" y1="0%" x2="66.7%" y2="100%"><stop offset="20%" stop-color="#c17665" stop-opacity="1"></stop><stop offset="80%" stop-color="#d3988a" stop-opacity="1"></stop></linearGradient></defs><defs><linearGradient id="grad2_5" x1="0%" y1="0%" x2="66.7%" y2="100%"><stop offset="20%" stop-color="#e4b9af" stop-opacity="1"></stop><stop offset="80%" stop-color="#d3988a" stop-opacity="1"></stop></linearGradient></defs><defs><linearGradient id="grad2_6" x1="0%" y1="0%" x2="66.7%" y2="100%"><stop offset="20%" stop-color="#e4b9af" stop-opacity="1"></stop><stop offset="80%" stop-color="#f2dcd7" stop-opacity="1"></stop></linearGradient></defs><defs><linearGradient id="grad2_7" x1="0%" y1="0%" x2="66.7%" y2="100%"><stop offset="20%" stop-color="#ffffff" stop-opacity="1"></stop><stop offset="80%" stop-color="#f2dcd7" stop-opacity="1"></stop></linearGradient></defs><g transform="translate(900, 0)"><path d="M0 270.4C-15.9 251.9 -31.9 233.4 -53.2 233C-74.5 232.6 -101.2 250.2 -117.3 243.6C-133.4 237.1 -138.9 206.4 -149.6 187.6C-160.4 168.9 -176.4 162.1 -188.4 150.3C-200.5 138.4 -208.7 121.4 -218.9 105.4C-229.2 89.5 -241.6 74.6 -250.6 57.2C-259.5 39.8 -265 19.9 -270.4 0L0 0Z" fill="#f9edeb"></path><path d="M0 236.6C-13.9 220.4 -27.9 204.3 -46.5 203.9C-65.2 203.5 -88.6 218.9 -102.7 213.2C-116.8 207.5 -121.5 180.6 -130.9 164.2C-140.3 147.8 -154.3 141.9 -164.9 131.5C-175.4 121.1 -182.6 106.2 -191.6 92.3C-200.6 78.3 -211.4 65.3 -219.2 50C-227.1 34.8 -231.8 17.4 -236.6 0L0 0Z" fill="#ebcbc3"></path><path d="M0 202.8C-11.9 188.9 -23.9 175.1 -39.9 174.8C-55.9 174.4 -75.9 187.6 -88 182.7C-100.1 177.8 -104.2 154.8 -112.2 140.7C-120.3 126.7 -132.3 121.6 -141.3 112.7C-150.4 103.8 -156.5 91 -164.2 79.1C-171.9 67.1 -181.2 55.9 -187.9 42.9C-194.6 29.8 -198.7 14.9 -202.8 0L0 0Z" fill="#dca89c"></path><path d="M0 169C-10 157.5 -19.9 145.9 -33.2 145.6C-46.6 145.4 -63.3 156.4 -73.3 152.3C-83.4 148.2 -86.8 129 -93.5 117.3C-100.2 105.6 -110.2 101.3 -117.8 93.9C-125.3 86.5 -130.4 75.9 -136.8 65.9C-143.3 55.9 -151 46.6 -156.6 35.7C-162.2 24.9 -165.6 12.4 -169 0L0 0Z" fill="#cb8777"></path><path d="M0 135.2C-8 126 -15.9 116.7 -26.6 116.5C-37.3 116.3 -50.6 125.1 -58.7 121.8C-66.7 118.5 -69.5 103.2 -74.8 93.8C-80.2 84.5 -88.2 81.1 -94.2 75.1C-100.2 69.2 -104.3 60.7 -109.5 52.7C-114.6 44.7 -120.8 37.3 -125.3 28.6C-129.7 19.9 -132.5 9.9 -135.2 0L0 0Z" fill="#b76654"></path><path d="M0 101.4C-6 94.5 -11.9 87.5 -19.9 87.4C-27.9 87.2 -38 93.8 -44 91.4C-50 88.9 -52.1 77.4 -56.1 70.4C-60.1 63.3 -66.1 60.8 -70.7 56.3C-75.2 51.9 -78.2 45.5 -82.1 39.5C-86 33.6 -90.6 28 -94 21.4C-97.3 14.9 -99.4 7.5 -101.4 0L0 0Z" fill="#a34433"></path><path d="M0 67.6C-4 63 -8 58.4 -13.3 58.3C-18.6 58.1 -25.3 62.5 -29.3 60.9C-33.4 59.3 -34.7 51.6 -37.4 46.9C-40.1 42.2 -44.1 40.5 -47.1 37.6C-50.1 34.6 -52.2 30.3 -54.7 26.4C-57.3 22.4 -60.4 18.6 -62.6 14.3C-64.9 9.9 -66.2 5 -67.6 0L0 0Z" fill="#8c1f13"></path><path d="M0 33.8C-2 31.5 -4 29.2 -6.6 29.1C-9.3 29.1 -12.7 31.3 -14.7 30.5C-16.7 29.6 -17.4 25.8 -18.7 23.5C-20 21.1 -22 20.3 -23.6 18.8C-25.1 17.3 -26.1 15.2 -27.4 13.2C-28.7 11.2 -30.2 9.3 -31.3 7.1C-32.4 5 -33.1 2.5 -33.8 0L0 0Z" fill="#800000"></path></g><g transform="translate(0, 600)"><path d="M0 -270.4C18.3 -248.8 36.6 -227.1 47.2 -206.7C57.7 -186.2 60.6 -166.9 82.9 -172.1C105.2 -177.2 146.9 -206.8 159 -199.4C171.1 -191.9 153.5 -147.5 160.3 -127.8C167.1 -108.2 198.3 -113.4 220.7 -106.3C243.2 -99.2 256.8 -79.9 263.6 -60.2C270.5 -40.4 270.4 -20.2 270.4 0L0 0Z" fill="#f9edeb"></path><path d="M0 -236.6C16 -217.7 32 -198.8 41.3 -180.8C50.5 -162.9 53 -146.1 72.5 -150.6C92 -155.1 128.6 -181 139.1 -174.4C149.7 -167.9 134.3 -129 140.2 -111.8C146.2 -94.7 173.5 -99.2 193.1 -93C212.8 -86.8 224.7 -69.9 230.7 -52.7C236.6 -35.4 236.6 -17.7 236.6 0L0 0Z" fill="#ebcbc3"></path><path d="M0 -202.8C13.7 -186.6 27.5 -170.4 35.4 -155C43.3 -139.7 45.4 -125.2 62.2 -129.1C78.9 -132.9 110.2 -155.1 119.2 -149.5C128.3 -143.9 115.1 -110.6 120.2 -95.9C125.3 -81.1 148.7 -85 165.6 -79.7C182.4 -74.4 192.6 -59.9 197.7 -45.1C202.8 -30.3 202.8 -15.2 202.8 0L0 0Z" fill="#dca89c"></path><path d="M0 -169C11.4 -155.5 22.9 -142 29.5 -129.2C36.1 -116.4 37.9 -104.3 51.8 -107.6C65.7 -110.8 91.8 -129.3 99.4 -124.6C106.9 -120 95.9 -92.2 100.2 -79.9C104.4 -67.6 123.9 -70.9 138 -66.4C152 -62 160.5 -50 164.8 -37.6C169 -25.3 169 -12.6 169 0L0 0Z" fill="#cb8777"></path><path d="M0 -135.2C9.2 -124.4 18.3 -113.6 23.6 -103.3C28.9 -93.1 30.3 -83.5 41.4 -86C52.6 -88.6 73.5 -103.4 79.5 -99.7C85.5 -96 76.7 -73.7 80.1 -63.9C83.5 -54.1 99.2 -56.7 110.4 -53.2C121.6 -49.6 128.4 -40 131.8 -30.1C135.2 -20.2 135.2 -10.1 135.2 0L0 0Z" fill="#b76654"></path><path d="M0 -101.4C6.9 -93.3 13.7 -85.2 17.7 -77.5C21.7 -69.8 22.7 -62.6 31.1 -64.5C39.4 -66.5 55.1 -77.6 59.6 -74.8C64.1 -72 57.5 -55.3 60.1 -47.9C62.7 -40.6 74.4 -42.5 82.8 -39.9C91.2 -37.2 96.3 -30 98.9 -22.6C101.4 -15.2 101.4 -7.6 101.4 0L0 0Z" fill="#a34433"></path><path d="M0 -67.6C4.6 -62.2 9.2 -56.8 11.8 -51.7C14.4 -46.6 15.1 -41.7 20.7 -43C26.3 -44.3 36.7 -51.7 39.7 -49.8C42.8 -48 38.4 -36.9 40.1 -32C41.8 -27 49.6 -28.3 55.2 -26.6C60.8 -24.8 64.2 -20 65.9 -15C67.6 -10.1 67.6 -5.1 67.6 0L0 0Z" fill="#8c1f13"></path><path d="M0 -33.8C2.3 -31.1 4.6 -28.4 5.9 -25.8C7.2 -23.3 7.6 -20.9 10.4 -21.5C13.1 -22.2 18.4 -25.9 19.9 -24.9C21.4 -24 19.2 -18.4 20 -16C20.9 -13.5 24.8 -14.2 27.6 -13.3C30.4 -12.4 32.1 -10 33 -7.5C33.8 -5.1 33.8 -2.5 33.8 0L0 0Z" fill="#800000"></path></g></svg>