<svg xmlns="http://www.w3.org/2000/svg" width="257.155" height="73.189" viewBox="0 0 257.155 73.189">
    <defs>
        <clipPath id="9v3a46ekva">
            <path data-name="Path 19601" d="M0 0h257.155v73.189H0z" style="fill:none"/>
        </clipPath>
    </defs>
    <g data-name="Group 17545">
        <g data-name="Group 17543">
            <g data-name="Group 17540">
                <g data-name="Mask Group 17531" style="clip-path:url(#9v3a46ekva)" transform="translate(0 -.001)">
                    <path data-name="Path 19602" d="M3.958 0 .994-8.021l-.9-.1v-1.343h4.248v1.339l-.845.13 1.7 5.317.091.37h.039l.084-.351 1.641-5.336-1.014-.13v-1.339H10v1.339l-.923.1L6.428 0zm15.6 0v-1.332l.981-.208v-6.377l-.981-.208v-1.339H23.8v1.339l-.981.208v6.377l.981.208V0zm13.957 0v-1.332l.994-.24v-6.3l-.994-.247v-1.345h4.433a4.312 4.312 0 0 1 2.268.595 4.161 4.161 0 0 1 1.547 1.644 5.074 5.074 0 0 1 .559 2.425v.149a5.074 5.074 0 0 1-.559 2.421 4.138 4.138 0 0 1-1.547 1.639A4.33 4.33 0 0 1 37.948 0zm3.276-1.729h1.04a1.964 1.964 0 0 0 1.209-.364 2.221 2.221 0 0 0 .738-1.024 4.323 4.323 0 0 0 .25-1.537v-.156a4.3 4.3 0 0 0-.25-1.534 2.222 2.222 0 0 0-.738-1.02 1.964 1.964 0 0 0-1.209-.364h-1.04zM54.545 0v-1.332l.981-.208v-1.58l-2.742-4.868-.984-.137v-1.339h4.09v1.339l-.585.1 1.3 2.593.149.331h.058l.156-.312 1.522-2.608-.988-.1v-1.343h4.017v1.339l-1 .136L57.8-3.3v1.76l.988.208V0zM67.7 0v-1.332l.663-.1 2.821-8.034h2.47l2.829 8.036.663.1V0H73.61v-1.332l.617-.117-.286-1.027H70.9l-.273 1.027.617.117V0zm3.679-4.075h2.073l-.923-2.866-.1-.331h-.039l-.11.364zM88.452 0l-2.964-8.021-.9-.1v-1.343h4.244v1.339l-.845.13 1.7 5.317.091.37h.039l.084-.351 1.644-5.336-1.014-.13v-1.339H94.5v1.339l-.923.1L90.922 0zm15.6 0v-1.332l.981-.208v-6.377l-.981-.208v-1.339h4.238v1.339l-.981.208v6.377l.981.208V0zm13.956 0v-1.332l.981-.208v-6.377l-.981-.208v-1.339h4.244v1.339l-.981.208v2.392h3.445v-2.392l-.981-.208v-1.339h4.238v1.339l-.981.208v6.377l.981.208V0h-4.238v-1.332l.981-.208v-2.236h-3.445v2.236l.981.208V0zm17.566 0v-1.332l.663-.1 2.821-8.034h2.47l2.827 8.034.663.1V0h-3.536v-1.332l.617-.117-.286-1.027h-3.042l-.271 1.027.617.117V0zm3.679-4.075h2.073l-.926-2.867-.1-.331h-.039l-.11.364zM154.639 0v-1.332l.981-.208v-6.377l-.981-.208V-9.47h4.654a4.88 4.88 0 0 1 1.95.357 2.875 2.875 0 0 1 1.274 1.013 2.713 2.713 0 0 1 .448 1.563 2.842 2.842 0 0 1-.452 1.547 3.329 3.329 0 0 1-1.238 1.147 3.613 3.613 0 0 1-1.794.426l-1.581-.015v1.892l.981.208V0zm5.993 0-1.274-3.692 1.982-.676 1.15 2.814.9.227V0zM157.9-5.18h1.417a1.516 1.516 0 0 0 1.02-.309 1.116 1.116 0 0 0 .357-.894 1.32 1.32 0 0 0-.364-.972 1.4 1.4 0 0 0-1.04-.367h-1.39z" transform="translate(80.435 44.732)" style="fill:#a50c22"/>
                </g>
            </g>
            <path data-name="Line 1454" transform="translate(80.531 53.992)" style="stroke:#464749;stroke-miterlimit:10;stroke-width:.754px;fill:none" d="M0 0h167.174"/>
            <g data-name="Group 17542">
                <g data-name="Mask Group 17530" style="clip-path:url(#9v3a46ekva)" transform="translate(0 -.001)">
                    <path data-name="Path 19532" d="M89.868 29.287a17.634 17.634 0 0 1-4.917-.656 14.638 14.638 0 0 1-4.42-2.185V20.5h3.462l.567 3.851a7.694 7.694 0 0 0 2.317 1.082 10.443 10.443 0 0 0 2.991.41 6.857 6.857 0 0 0 2.653-.453 3.67 3.67 0 0 0 1.642-1.271 3.3 3.3 0 0 0 .569-1.933 3.4 3.4 0 0 0-.5-1.828 4.317 4.317 0 0 0-1.651-1.43 14.715 14.715 0 0 0-3.125-1.162 22.149 22.149 0 0 1-4.836-1.846 8.041 8.041 0 0 1-2.929-2.557 6.231 6.231 0 0 1-.986-3.514 6.214 6.214 0 0 1 1.128-3.675 7.641 7.641 0 0 1 3.133-2.52 11.162 11.162 0 0 1 4.634-.94 14.716 14.716 0 0 1 5.086.746 12.179 12.179 0 0 1 3.738 2.04v5.557h-3.391l-.638-3.622a6.833 6.833 0 0 0-1.895-.878 9.238 9.238 0 0 0-2.742-.363 5.981 5.981 0 0 0-2.379.443 3.8 3.8 0 0 0-1.615 1.252 3.18 3.18 0 0 0-.587 1.925 2.867 2.867 0 0 0 .516 1.7 4.484 4.484 0 0 0 1.721 1.323 20.886 20.886 0 0 0 3.266 1.2 15.171 15.171 0 0 1 6.373 3.089 6.489 6.489 0 0 1 2.166 5.023 6.245 6.245 0 0 1-1.162 3.755 7.527 7.527 0 0 1-3.263 2.496 12.6 12.6 0 0 1-4.926.889" style="fill:#a50c22"/>
                    <path data-name="Path 19533" d="M112.979 29.288a10.87 10.87 0 0 1-4.649-.968 10.278 10.278 0 0 1-3.56-2.724 12.513 12.513 0 0 1-2.281-4.154 16.547 16.547 0 0 1-.8-5.254V15.8a16.48 16.48 0 0 1 .8-5.235A12.6 12.6 0 0 1 104.77 6.4a10.21 10.21 0 0 1 3.56-2.734 10.826 10.826 0 0 1 4.631-.968 11.178 11.178 0 0 1 4.74.968A10.107 10.107 0 0 1 121.27 6.4a12.458 12.458 0 0 1 2.253 4.162 16.8 16.8 0 0 1 .777 5.238v.392a16.868 16.868 0 0 1-.781 5.254 12.371 12.371 0 0 1-2.249 4.154 10.174 10.174 0 0 1-3.57 2.72 11.134 11.134 0 0 1-4.722.968m0-3.551a6.04 6.04 0 0 0 3.861-1.2 7.038 7.038 0 0 0 2.255-3.346 15.46 15.46 0 0 0 .736-5.005v-.427a14.945 14.945 0 0 0-.746-4.951 7.155 7.155 0 0 0-2.262-3.338 6.013 6.013 0 0 0-3.862-1.208 5.8 5.8 0 0 0-3.745 1.208 7.312 7.312 0 0 0-2.272 3.338 14.673 14.673 0 0 0-.763 4.951v.427a14.99 14.99 0 0 0 .763 5 7.205 7.205 0 0 0 2.281 3.354 5.869 5.869 0 0 0 3.754 1.2" style="fill:#a50c22"/>
                    <path data-name="Path 19534" d="M126.736 28.914V26.18l2.8-.533V6.353l-2.8-.532V3.069h9.213l7.579 18.691h.107l7.349-18.691h9.316v2.752l-2.822.532v19.294l2.822.533v2.734h-10.1V26.18l2.964-.533v-6.016l.036-11.308-.088-.017-8.006 20.022h-3.249l-8.235-19.917-.087.019.231 10.9v6.319l3.069.533v2.734z" style="fill:#a50c22"/>
                    <path data-name="Path 19535" d="M161.474 28.915V26.18l1.882-.265L171.91 3.07h4.35l8.449 22.845 1.881.265v2.735h-8.218V26.18l1.846-.336-1.367-4.065h-9.621l-1.4 4.065 1.863.336v2.735zm8.926-10.562h7.3l-3.354-9.567-.231-.692h-.107l-.249.727z" style="fill:#a50c22"/>
                    <path data-name="Path 19536" d="M188.7 28.914V26.18l2.822-.533V6.353l-2.822-.532V3.069h10.1v2.752l-2.8.532v19.294l2.8.533v2.734z" style="fill:#a50c22"/>
                    <path data-name="Path 19537" d="M207.944 28.914V26.18l2.8-.533v-5.821l-7.77-13.652-2.344-.353V3.069h9.727v2.752l-2.467.318 4.794 9.054.39.781.07-.035.373-.729 5.183-9.071-2.93-.318V3.069h9.53v2.752l-2.432.353-7.667 13.3v6.176l2.822.533v2.734z" style="fill:#a50c22"/>
                    <path data-name="Path 19538" d="M222.589 28.915V26.18l1.882-.265 8.554-22.845h4.35l8.449 22.845 1.881.265v2.735h-8.218V26.18l1.846-.336-1.367-4.065h-9.621l-1.4 4.065 1.863.336v2.735zm8.928-10.562h7.295l-3.354-9.567-.231-.692h-.107l-.249.727z" style="fill:#a50c22"/>
                    <path data-name="Path 19600" d="m2.139-1.884-.648-.746L4.945-6.3l.015-.02-.633-.064v-.76h2.664v.76l-.672.132zM.324 0v-.755L1.1-.9v-5.335l-.78-.147v-.76H3.1v.76l-.755.147V-.9l.755.145V0zm4.16 0v-.755l.633-.064-1.884-2.6.775-.868L6.564-.878l.682.123V0zm8.095.1a2.837 2.837 0 0 1-1.209-.245 1.923 1.923 0 0 1-.84-.745 2.553 2.553 0 0 1-.341-1.263l.01-.029h1.172a1.536 1.536 0 0 0 .319 1.013 1.056 1.056 0 0 0 .8.3 1.088 1.088 0 0 0 .579-.147.949.949 0 0 0 .368-.422 1.551 1.551 0 0 0 .128-.657v-4.14l-.957-.142v-.765h2.973v.76l-.785.147v4.141a2.508 2.508 0 0 1-.255 1.163 1.788 1.788 0 0 1-.748.765A2.5 2.5 0 0 1 12.578.1zm8.791 0a4.876 4.876 0 0 1-1.359-.182 4.048 4.048 0 0 1-1.222-.6v-1.643h.957l.154 1.064a2.132 2.132 0 0 0 .64.3 2.9 2.9 0 0 0 .827.113 1.892 1.892 0 0 0 .733-.126 1.015 1.015 0 0 0 .454-.351.913.913 0 0 0 .157-.535.937.937 0 0 0-.137-.505 1.192 1.192 0 0 0-.456-.395 4.045 4.045 0 0 0-.863-.321 6.119 6.119 0 0 1-1.337-.51 2.221 2.221 0 0 1-.809-.706 1.721 1.721 0 0 1-.272-.971 1.717 1.717 0 0 1 .312-1.016 2.111 2.111 0 0 1 .866-.7 3.084 3.084 0 0 1 1.28-.26 4.057 4.057 0 0 1 1.406.206 3.368 3.368 0 0 1 1.033.564v1.536H22.8l-.177-1a1.875 1.875 0 0 0-.522-.243 2.548 2.548 0 0 0-.758-.1 1.648 1.648 0 0 0-.657.123 1.05 1.05 0 0 0-.446.346.882.882 0 0 0-.162.532.8.8 0 0 0 .142.471 1.24 1.24 0 0 0 .476.365 5.8 5.8 0 0 0 .9.331 4.2 4.2 0 0 1 1.761.854 1.794 1.794 0 0 1 .6 1.388 1.723 1.723 0 0 1-.321 1.038 2.08 2.08 0 0 1-.9.689A3.483 3.483 0 0 1 21.37.1zm5.745 0A2.431 2.431 0 0 1 25.8-.24a2.249 2.249 0 0 1-.844-.954 3.2 3.2 0 0 1-.294-1.406v-.1a3.172 3.172 0 0 1 .294-1.4 2.285 2.285 0 0 1 .844-.957 2.386 2.386 0 0 1 1.3-.348 2.417 2.417 0 0 1 1.315.346 2.268 2.268 0 0 1 .844.954 3.184 3.184 0 0 1 .294 1.4v.1a3.2 3.2 0 0 1-.294 1.406 2.254 2.254 0 0 1-.841.954A2.409 2.409 0 0 1 27.114.1zm0-.952a1.024 1.024 0 0 0 .679-.223 1.335 1.335 0 0 0 .4-.618 2.86 2.86 0 0 0 .132-.91v-.1a2.82 2.82 0 0 0-.132-.9 1.343 1.343 0 0 0-.4-.618 1.034 1.034 0 0 0-.694-.229 1.019 1.019 0 0 0-.677.226 1.326 1.326 0 0 0-.4.618 2.869 2.869 0 0 0-.13.9v.1a2.91 2.91 0 0 0 .13.91 1.3 1.3 0 0 0 .4.618 1.044 1.044 0 0 0 .691.229zM30.21 0v-.755l.741-.145v-3.5l-.78-.147v-.76h1.913l.059.7a1.827 1.827 0 0 1 .65-.586 1.891 1.891 0 0 1 .905-.208 1.638 1.638 0 0 1 .89.233 1.44 1.44 0 0 1 .562.7 1.877 1.877 0 0 1 .645-.687 1.734 1.734 0 0 1 .939-.25 1.558 1.558 0 0 1 1.258.545 2.513 2.513 0 0 1 .459 1.648V-.9l.741.147V0h-2.673v-.755l.7-.147v-2.316a1.494 1.494 0 0 0-.226-.942.814.814 0 0 0-.662-.27.912.912 0 0 0-.67.26 1.241 1.241 0 0 0-.341.662V-.9l.672.147V0h-2.579v-.755l.673-.145v-2.318a1.476 1.476 0 0 0-.231-.93.812.812 0 0 0-.667-.282 1.177 1.177 0 0 0-.611.147 1.067 1.067 0 0 0-.395.417V-.9l.692.147V0zm11.313.1a1.788 1.788 0 0 1-1.261-.417 1.486 1.486 0 0 1-.451-1.148 1.453 1.453 0 0 1 .275-.878 1.788 1.788 0 0 1 .8-.591 3.443 3.443 0 0 1 1.285-.213h.809v-.446a.9.9 0 0 0-.253-.672A1 1 0 0 0 42-4.513a1.623 1.623 0 0 0-.486.066 1.279 1.279 0 0 0-.378.189l-.113.716h-.908l-.01-1.31a3.5 3.5 0 0 1 .873-.4 3.589 3.589 0 0 1 1.069-.15 2.45 2.45 0 0 1 1.592.473 1.649 1.649 0 0 1 .581 1.356V-1.022q0 .103.012.2l.54.069V0h-1.611q-.049-.172-.091-.334a2.506 2.506 0 0 1-.061-.324 2.194 2.194 0 0 1-.64.547 1.681 1.681 0 0 1-.846.211zm.28-.957a1.448 1.448 0 0 0 .7-.174 1.238 1.238 0 0 0 .486-.439v-.888h-.824a1.2 1.2 0 0 0-.836.258.791.791 0 0 0-.282.6.59.59 0 0 0 .2.476.848.848 0 0 0 .553.17zM45.344 0v-.755L46.08-.9v-3.5l-.78-.147v-.76h2.016V-.9l.731.147V0zm.687-6.51v-1.143h1.285v1.143zm3.91 8.654a2.427 2.427 0 0 1-.351-.029 2.481 2.481 0 0 1-.346-.074l.137-.927q.088.015.213.025t.2.01a.74.74 0 0 0 .52-.194 1.4 1.4 0 0 0 .343-.537l.162-.427L49-4.459l-.618-.088v-.76h2.571v.76l-.652.1.922 2.473.162.461h.029l1.089-2.939-.652-.093v-.76h2.438v.76l-.574.083L51.663.8a3.177 3.177 0 0 1-.365.679 1.6 1.6 0 0 1-.549.486 1.677 1.677 0 0 1-.808.179zM56.4.1a1.788 1.788 0 0 1-1.261-.417 1.486 1.486 0 0 1-.451-1.148 1.453 1.453 0 0 1 .275-.878 1.788 1.788 0 0 1 .8-.591 3.443 3.443 0 0 1 1.285-.213h.809v-.446a.9.9 0 0 0-.253-.672 1 1 0 0 0-.733-.25 1.623 1.623 0 0 0-.486.066 1.279 1.279 0 0 0-.378.189l-.113.716h-.908l-.01-1.31a3.5 3.5 0 0 1 .873-.4 3.589 3.589 0 0 1 1.069-.15 2.45 2.45 0 0 1 1.592.473 1.649 1.649 0 0 1 .59 1.355V-1.025q0 .103.012.2l.54.069V0h-1.616q-.049-.172-.091-.334a2.506 2.506 0 0 1-.061-.324 2.194 2.194 0 0 1-.64.547A1.681 1.681 0 0 1 56.4.1zm.28-.957a1.448 1.448 0 0 0 .7-.174 1.238 1.238 0 0 0 .486-.439v-.888h-.824a1.2 1.2 0 0 0-.842.258.791.791 0 0 0-.282.6.59.59 0 0 0 .2.476.848.848 0 0 0 .559.17zM62.726 0v-.755l.78-.147v-5.333l-.78-.147v-.76h2.791v.76l-.775.147V-.9l.775.147V0zm3.419 0v-.755l.736-.145v-3.5l-.775-.147v-.76h1.913l.064.77a1.926 1.926 0 0 1 .66-.64 1.757 1.757 0 0 1 .9-.228 1.635 1.635 0 0 1 1.276.5 2.289 2.289 0 0 1 .456 1.572V-.9l.736.147V0h-2.669v-.755l.691-.145v-2.421a1.226 1.226 0 0 0-.24-.856.944.944 0 0 0-.716-.253 1.2 1.2 0 0 0-.625.159 1.229 1.229 0 0 0-.434.444V-.9l.672.147V0zm8.742.1a4.856 4.856 0 0 1-1.062-.11 5.462 5.462 0 0 1-.989-.326l-.015-1.4h.888l.186.765a2.416 2.416 0 0 0 .434.145 2.219 2.219 0 0 0 .5.052 1.162 1.162 0 0 0 .748-.186.583.583 0 0 0 .218-.461.571.571 0 0 0-.228-.454A2.17 2.17 0 0 0 74.7-2.2a3.121 3.121 0 0 1-1.4-.6 1.3 1.3 0 0 1-.449-1.028 1.4 1.4 0 0 1 .233-.79 1.624 1.624 0 0 1 .687-.567 2.613 2.613 0 0 1 1.111-.215 4.167 4.167 0 0 1 1.072.125 2.909 2.909 0 0 1 .8.331l.027 1.344H75.9l-.152-.7a1.175 1.175 0 0 0-.353-.167 1.644 1.644 0 0 0-.461-.059 1.038 1.038 0 0 0-.643.179.543.543 0 0 0-.235.449.545.545 0 0 0 .076.285.67.67 0 0 0 .294.233 3.226 3.226 0 0 0 .64.2 3.512 3.512 0 0 1 1.482.628A1.291 1.291 0 0 1 77-1.521a1.483 1.483 0 0 1-.52 1.168A2.359 2.359 0 0 1 74.887.1zM79.71.093a1.42 1.42 0 0 1-1.055-.38 1.669 1.669 0 0 1-.378-1.213v-2.925H77.5v-.883h.775V-6.6h1.231v1.29h1.05v.883h-1.05V-1.5a.722.722 0 0 0 .14.493.487.487 0 0 0 .38.155 2.156 2.156 0 0 0 .307-.025q.169-.025.272-.049l.128.868a3.938 3.938 0 0 1-.493.108 3.385 3.385 0 0 1-.53.043zM81.338 0v-.755l.736-.145v-3.5l-.78-.147v-.76h2.016V-.9l.731.147V0zm.687-6.51v-1.143h1.285v1.143zM86.6.093a1.42 1.42 0 0 1-1.055-.38 1.669 1.669 0 0 1-.38-1.213v-2.925h-.775v-.883h.775V-6.6H86.4v1.29h1.05v.883H86.4V-1.5a.722.722 0 0 0 .14.493.487.487 0 0 0 .38.155 2.156 2.156 0 0 0 .307-.025q.169-.025.272-.049l.128.868a3.938 3.938 0 0 1-.493.108 3.385 3.385 0 0 1-.534.043zM90.483.1a1.683 1.683 0 0 1-1.332-.542 2.5 2.5 0 0 1-.478-1.685V-4.4l-.6-.147v-.76h1.835v3.194a1.6 1.6 0 0 0 .218.964.806.806 0 0 0 .675.277 1.371 1.371 0 0 0 .684-.159 1.174 1.174 0 0 0 .449-.454V-4.4l-.667-.147v-.76h1.9V-.9l.628.147V0h-1.718l-.083-.721a1.745 1.745 0 0 1-.635.611 1.776 1.776 0 0 1-.876.21zm5.9-.01a1.42 1.42 0 0 1-1.055-.38 1.669 1.669 0 0 1-.376-1.21v-2.925h-.775v-.883h.775V-6.6h1.231v1.29h1.05v.883h-1.05V-1.5a.722.722 0 0 0 .14.493.487.487 0 0 0 .38.155 2.156 2.156 0 0 0 .307-.025q.169-.025.272-.049l.128.868a3.938 3.938 0 0 1-.493.108 3.385 3.385 0 0 1-.533.043zm3.974.01a2.481 2.481 0 0 1-1.307-.336 2.289 2.289 0 0 1-.863-.93 2.919 2.919 0 0 1-.307-1.359v-.206a3.057 3.057 0 0 1 .3-1.381 2.371 2.371 0 0 1 .832-.952 2.159 2.159 0 0 1 1.207-.346 2.335 2.335 0 0 1 1.209.289 1.841 1.841 0 0 1 .738.822 2.984 2.984 0 0 1 .25 1.278v.706h-3.255l-.01.025a1.913 1.913 0 0 0 .174.741 1.221 1.221 0 0 0 .442.51 1.256 1.256 0 0 0 .7.186 2.472 2.472 0 0 0 .785-.118 2.413 2.413 0 0 0 .648-.329l.388.775a2.689 2.689 0 0 1-.8.446 3.231 3.231 0 0 1-1.13.179zm-1.176-3.279h2.056v-.128a1.63 1.63 0 0 0-.105-.611.861.861 0 0 0-.329-.41 1.01 1.01 0 0 0-.567-.147.859.859 0 0 0-.525.167 1.169 1.169 0 0 0-.361.454 2.219 2.219 0 0 0-.184.65zM108.07.1a2.431 2.431 0 0 1-1.315-.343 2.249 2.249 0 0 1-.844-.954 3.2 3.2 0 0 1-.294-1.406v-.1a3.172 3.172 0 0 1 .294-1.4 2.285 2.285 0 0 1 .844-.957 2.386 2.386 0 0 1 1.3-.348 2.417 2.417 0 0 1 1.315.346 2.268 2.268 0 0 1 .844.954 3.184 3.184 0 0 1 .294 1.4v.1a3.2 3.2 0 0 1-.294 1.406 2.254 2.254 0 0 1-.841.954A2.409 2.409 0 0 1 108.07.1zm0-.952a1.024 1.024 0 0 0 .679-.223 1.335 1.335 0 0 0 .4-.618 2.86 2.86 0 0 0 .132-.91v-.1a2.82 2.82 0 0 0-.132-.9 1.343 1.343 0 0 0-.4-.618 1.034 1.034 0 0 0-.687-.226 1.019 1.019 0 0 0-.677.226 1.326 1.326 0 0 0-.4.618 2.869 2.869 0 0 0-.13.9v.1a2.91 2.91 0 0 0 .13.91 1.3 1.3 0 0 0 .4.618 1.044 1.044 0 0 0 .685.226zm3.164.852v-.755l.741-.147v-3.523h-.809v-.883h.809v-.623a1.808 1.808 0 0 1 .483-1.349 1.844 1.844 0 0 1 1.352-.476 3.161 3.161 0 0 1 .432.032 3.8 3.8 0 0 1 .422.081l-.123.927a2.185 2.185 0 0 0-.255-.042 2.666 2.666 0 0 0-.3-.017.748.748 0 0 0-.586.216.911.911 0 0 0-.194.628v.623h1.187v.883h-1.187V-.9l.927.147V0zm7.9 0v-.755l.78-.147V-6.2h-1.437l-.108.912h-.927v-1.855h6.186v1.859h-.932l-.108-.912h-1.437V-.9l.78.147V0zm7.2.1a2.481 2.481 0 0 1-1.307-.336 2.289 2.289 0 0 1-.863-.93 2.919 2.919 0 0 1-.307-1.359v-.206a3.057 3.057 0 0 1 .3-1.381 2.371 2.371 0 0 1 .832-.952 2.159 2.159 0 0 1 1.207-.346 2.335 2.335 0 0 1 1.209.289 1.841 1.841 0 0 1 .738.822 2.984 2.984 0 0 1 .25 1.278v.706h-3.257l-.01.025a1.913 1.913 0 0 0 .174.741 1.221 1.221 0 0 0 .442.51 1.256 1.256 0 0 0 .7.186 2.472 2.472 0 0 0 .785-.118 2.413 2.413 0 0 0 .652-.334l.388.775a2.69 2.69 0 0 1-.8.446A3.231 3.231 0 0 1 126.33.1zm-1.177-3.282h2.056v-.128a1.63 1.63 0 0 0-.105-.611.861.861 0 0 0-.329-.41 1.01 1.01 0 0 0-.567-.147.859.859 0 0 0-.525.167 1.169 1.169 0 0 0-.361.454 2.219 2.219 0 0 0-.184.65zM131.628.1a2.394 2.394 0 0 1-1.293-.341 2.267 2.267 0 0 1-.844-.942 3.091 3.091 0 0 1-.3-1.386v-.172a3.094 3.094 0 0 1 .294-1.374 2.28 2.28 0 0 1 .841-.949 2.368 2.368 0 0 1 1.293-.346 2.976 2.976 0 0 1 1.187.218 2.633 2.633 0 0 1 .829.542v1.418h-.935l-.182-.937a1 1 0 0 0-.348-.228 1.212 1.212 0 0 0-.461-.086 1.1 1.1 0 0 0-.694.221 1.365 1.365 0 0 0-.437.611 2.534 2.534 0 0 0-.15.91v.172a2.56 2.56 0 0 0 .152.942 1.266 1.266 0 0 0 .424.579 1.042 1.042 0 0 0 .626.2 1.025 1.025 0 0 0 .694-.231 1.1 1.1 0 0 0 .351-.638h1.069l.015.029a2.227 2.227 0 0 1-.307.925 1.715 1.715 0 0 1-.7.635 2.463 2.463 0 0 1-1.124.228zm2.728-.1v-.755l.736-.147v-5.843l-.78-.147v-.76h2.011v3.032a1.841 1.841 0 0 1 .643-.579 1.792 1.792 0 0 1 .863-.206 1.642 1.642 0 0 1 1.288.522 2.359 2.359 0 0 1 .469 1.612V-.9l.736.147V0h-2.664v-.755l.7-.147v-2.38a1.287 1.287 0 0 0-.245-.878.925.925 0 0 0-.721-.27 1.247 1.247 0 0 0-.611.15 1.293 1.293 0 0 0-.454.419V-.9l.7.147V0zm6.481 0v-.755l.736-.147V-4.4l-.775-.147v-.76h1.913l.064.77a1.926 1.926 0 0 1 .66-.64 1.757 1.757 0 0 1 .9-.228 1.635 1.635 0 0 1 1.276.5 2.289 2.289 0 0 1 .456 1.572V-.9l.736.147V0h-2.664v-.755l.692-.147v-2.419a1.226 1.226 0 0 0-.24-.856.944.944 0 0 0-.716-.253 1.2 1.2 0 0 0-.625.159 1.229 1.229 0 0 0-.434.444V-.9l.672.147V0zm8.933.1a2.431 2.431 0 0 1-1.315-.343 2.249 2.249 0 0 1-.844-.954 3.2 3.2 0 0 1-.294-1.406v-.1a3.172 3.172 0 0 1 .294-1.4 2.284 2.284 0 0 1 .844-.957 2.386 2.386 0 0 1 1.3-.348 2.417 2.417 0 0 1 1.315.346 2.268 2.268 0 0 1 .844.954 3.184 3.184 0 0 1 .294 1.4v.1a3.2 3.2 0 0 1-.294 1.406 2.254 2.254 0 0 1-.841.954 2.409 2.409 0 0 1-1.304.348zm0-.952a1.024 1.024 0 0 0 .679-.223 1.335 1.335 0 0 0 .4-.618 2.86 2.86 0 0 0 .132-.91v-.1a2.82 2.82 0 0 0-.132-.9 1.343 1.343 0 0 0-.4-.618 1.034 1.034 0 0 0-.687-.226 1.019 1.019 0 0 0-.677.226 1.326 1.326 0 0 0-.4.618 2.869 2.869 0 0 0-.13.9v.1a2.91 2.91 0 0 0 .13.91 1.3 1.3 0 0 0 .4.618 1.044 1.044 0 0 0 .684.226zm2.963.852v-.755l.741-.147v-5.843l-.785-.147v-.76h2.011V-.9l.741.147V0zm5.647.1a2.431 2.431 0 0 1-1.315-.343 2.249 2.249 0 0 1-.844-.954 3.2 3.2 0 0 1-.294-1.406v-.1a3.172 3.172 0 0 1 .294-1.4 2.284 2.284 0 0 1 .844-.957 2.386 2.386 0 0 1 1.3-.348 2.417 2.417 0 0 1 1.315.346 2.268 2.268 0 0 1 .844.954 3.184 3.184 0 0 1 .294 1.4v.1a3.2 3.2 0 0 1-.294 1.406 2.254 2.254 0 0 1-.841.954 2.409 2.409 0 0 1-1.304.348zm0-.952a1.024 1.024 0 0 0 .679-.223 1.335 1.335 0 0 0 .4-.618 2.86 2.86 0 0 0 .132-.91v-.1a2.82 2.82 0 0 0-.132-.9 1.343 1.343 0 0 0-.4-.618 1.034 1.034 0 0 0-.687-.226 1.019 1.019 0 0 0-.677.226 1.326 1.326 0 0 0-.4.618 2.869 2.869 0 0 0-.13.9v.1a2.91 2.91 0 0 0 .13.91 1.3 1.3 0 0 0 .4.618 1.044 1.044 0 0 0 .684.226zm5.568 2.993a4.075 4.075 0 0 1-.871-.105 3.477 3.477 0 0 1-.841-.292l.255-.9a3.731 3.731 0 0 0 .692.231 3.15 3.15 0 0 0 .716.088 1.1 1.1 0 0 0 .89-.336 1.436 1.436 0 0 0 .282-.949V-.54a1.651 1.651 0 0 1-.584.478 1.753 1.753 0 0 1-.775.164 1.914 1.914 0 0 1-1.112-.323 2.039 2.039 0 0 1-.716-.908 3.443 3.443 0 0 1-.248-1.354v-.1a4.052 4.052 0 0 1 .248-1.482 2.221 2.221 0 0 1 .711-.986 1.772 1.772 0 0 1 1.106-.353 1.712 1.712 0 0 1 .844.2 1.774 1.774 0 0 1 .608.567l.093-.667h1.065v5.19a2.449 2.449 0 0 1-.28 1.2 1.914 1.914 0 0 1-.809.785 2.709 2.709 0 0 1-1.275.273zm.1-3.017a1.163 1.163 0 0 0 .611-.152 1.164 1.164 0 0 0 .415-.442v-2.361a1.238 1.238 0 0 0-.417-.439 1.115 1.115 0 0 0-.6-.159.971.971 0 0 0-.67.233 1.371 1.371 0 0 0-.388.648 3.346 3.346 0 0 0-.125.964v.1a2.138 2.138 0 0 0 .282 1.172.988.988 0 0 0 .889.439zm2.095-3.5-.52-.932h1.325v.76zm2.6 6.52a2.427 2.427 0 0 1-.351-.029 2.482 2.482 0 0 1-.346-.074l.137-.927q.088.015.213.025t.2.01a.74.74 0 0 0 .52-.194 1.4 1.4 0 0 0 .343-.537l.162-.427-1.821-4.45-.618-.088v-.76h2.571v.76l-.652.1.922 2.473.162.461h.029l1.089-2.939-.652-.093v-.76h2.438v.76l-.574.083L170.462.8a3.176 3.176 0 0 1-.365.679 1.6 1.6 0 0 1-.549.486 1.677 1.677 0 0 1-.808.179z" transform="translate(80.207 70.467)" style="fill:#464749"/>
                    <path data-name="Path 19539" d="M34.856 4.271a1.2 1.2 0 0 1-.157.053c-.708.085-.708.085-1.008-.558-.175-.372-.175-.371-.6-.337-.346.028-.691.058-1.036.071a.377.377 0 0 0-.419.34 6.844 6.844 0 0 1-.2.7l-.858.065c.042-.159.068-.271.1-.382q.58-1.882 1.166-3.763c.094-.31.1-.318.416-.327.7-.02.522-.154.845.5.522 1.06 1.03 2.129 1.543 3.193.066.139.13.279.206.444M32.5 1.2l-.094.009-.461 1.607 1.255-.088c-.247-.554-.457-1.05-.7-1.531" style="fill:#a50c22"/>
                    <path data-name="Path 19540" d="M36.986 2.922a1.614 1.614 0 1 1 3.225-.112 1.574 1.574 0 0 1-1.586 1.7 1.518 1.518 0 0 1-1.639-1.588m2.43-.091-.034-.006a1.7 1.7 0 0 0 0-.214.772.772 0 0 0-1.515-.158 1.382 1.382 0 0 0-.025.844.761.761 0 0 0 .695.573.74.74 0 0 0 .753-.487 3.885 3.885 0 0 0 .128-.552" style="fill:#a50c22"/>
                    <path data-name="Path 19541" d="m41.56 4.886-.753-.169c.236-1.023.466-2.013.7-3.038.25.05.455.092.681.139l-.026.415c.123-.058.22-.109.322-.15a1.254 1.254 0 0 1 1.257.125.746.746 0 0 1 .349.667 2.85 2.85 0 0 1-.053.5c-.126.583-.263 1.162-.4 1.743a2.336 2.336 0 0 1-.083.237l-.742-.173c.11-.485.216-.936.315-1.387a5.767 5.767 0 0 0 .121-.632c.036-.353-.072-.533-.343-.624a.641.641 0 0 0-.755.249 1.335 1.335 0 0 0-.163.394c-.124.485-.236.973-.354 1.46-.016.067-.042.134-.078.248" style="fill:#a50c22"/>
                    <path data-name="Path 19542" d="M35.432 0h.758c.054.716 0 1.427 0 2.135s-.021 1.428-.032 2.167h-.788c-.016-1.431.071-2.842.062-4.3" style="fill:#a50c22"/>
                    <path data-name="Path 19543" d="M61.194 37.521a25.938 25.938 0 0 1-51.7.128 13.046 13.046 0 0 0 12.915 10.805 12.915 12.915 0 0 0 12.168-8.64c-.16-.1-.327-.207-.5-.311a9.271 9.271 0 0 1-3.4-3.518 6.608 6.608 0 0 1-.827-2.978 6.007 6.007 0 0 1 .881-3.351 12.356 12.356 0 0 1 1.151-1.556 15.753 15.753 0 0 0 2.183-3.1 7.5 7.5 0 0 0 .835-3.053 9.536 9.536 0 0 0-.227-2.24c-.1-.505-.177-1.012-.26-1.519a2.315 2.315 0 0 1 0-.317 2.261 2.261 0 0 1 .284.146 16.77 16.77 0 0 1 5.6 6.365 11.823 11.823 0 0 1-.469 11.2 10.853 10.853 0 0 1-2.439 2.655c-.316.256-.628.515-.94.776-.1.084-.186.185-.282.274a.427.427 0 0 0-.1.517 13.106 13.106 0 0 0 1.088 2.3 12.758 12.758 0 0 0 8.889 6.146 12.968 12.968 0 0 0 14.2-7.556 14.46 14.46 0 0 0 .956-3.169" style="fill:#a50c22"/>
                    <path data-name="Path 19544" d="m6.432 45.088-.247-.853a1.012 1.012 0 0 1 .142-.1 1.546 1.546 0 0 0 .993-1.756 3.449 3.449 0 0 0-.35-1.271 1.328 1.328 0 0 0-.711-.674.949.949 0 0 0-1.315.666 9.123 9.123 0 0 0-.144 1.313c-.036.524-.04 1.05-.079 1.574a3.356 3.356 0 0 1-.134.664 2.061 2.061 0 0 1-3.15 1.132A2.669 2.669 0 0 1 .391 44.5a4.483 4.483 0 0 1-.3-2.664A2.488 2.488 0 0 1 1.866 39.9a1.035 1.035 0 0 1 .171-.021l.265.852a1.811 1.811 0 0 1-.176.1 1.784 1.784 0 0 0-1.169 1.588 3.052 3.052 0 0 0 .618 2.288 1.168 1.168 0 0 0 1.034.47.988.988 0 0 0 .921-.633 3.2 3.2 0 0 0 .2-.865c.049-.523.042-1.051.083-1.575a7.2 7.2 0 0 1 .163-1.238 1.79 1.79 0 0 1 1.7-1.449 1.985 1.985 0 0 1 1.863.929 3.892 3.892 0 0 1 .615 1.59 3.82 3.82 0 0 1 0 1.39 2.18 2.18 0 0 1-1.722 1.762" style="fill:#a50c22"/>
                    <path data-name="Path 19545" d="m9.175 51.295-.533.447c0 .025.008.049.013.074a2.1 2.1 0 0 1 1.72.8 1.634 1.634 0 0 1 .235 1.885c.154.019.276.038.4.046a2.011 2.011 0 0 1 1.66 1.037 1.5 1.5 0 0 1-.182 1.912 3.109 3.109 0 0 1-.364.344l-2.993 2.341c-.047.036-.1.065-.188.126l-.558-.7c.111-.092.2-.173.291-.244.808-.634 1.619-1.264 2.426-1.9a5.874 5.874 0 0 0 .593-.519.869.869 0 0 0 .157-1.086 1.34 1.34 0 0 0-1.756-.658 3.258 3.258 0 0 0-.611.367c-.778.6-1.547 1.2-2.319 1.8-.1.08-.206.153-.331.247L6.28 56.9c.112-.1.2-.176.29-.247.837-.657 1.678-1.306 2.51-1.968a3.66 3.66 0 0 0 .588-.572.848.848 0 0 0 .023-1.064 1.335 1.335 0 0 0-1.72-.527 4.782 4.782 0 0 0-.878.546c-.687.518-1.359 1.055-2.037 1.585-.1.079-.207.154-.334.247l-.573-.72 4.514-3.53.513.636" style="fill:#a50c22"/>
                    <path data-name="Path 19546" d="m20.773 14.153.536.69-.6.518 2.969 3.81a1.749 1.749 0 0 1-.26.072c-.142.015-.288 0-.429.027a.7.7 0 0 1-.749-.338c-.666-.89-1.359-1.758-2.045-2.634-.079-.1-.163-.2-.263-.323a4.388 4.388 0 0 0-1.126.95c1.112 1.152 2.218 2.3 3.384 3.511-.4.068-.737.138-1.073.173-.082.009-.19-.082-.261-.154-.387-.389-.766-.788-1.148-1.182-.082-.083-.169-.162-.29-.276l-1.008 1.112.8.745a.39.39 0 0 1-.389.193c-.43-.005-.86-.01-1.29-.018a.462.462 0 0 1-.49-.286.53.53 0 0 1 .128-.591c.461-.5.912-1.011 1.366-1.518.08-.088.154-.18.26-.3l-.711-.735c-.855.735-1.5 1.614-2.291 2.409l-.663-.586 1.726-1.919.266.185.022-.028c-.051-.074-.1-.149-.159-.233a25.315 25.315 0 0 1 3.79-3.271" style="fill:#a50c22"/>
                    <path data-name="Path 19547" d="m42.937 11.948.079.761c-.283.028-.53.05-.775.08a1.5 1.5 0 0 0-.313.073.373.373 0 0 0-.3.43.39.39 0 0 0 .348.4 3.619 3.619 0 0 0 .742-.025 2.491 2.491 0 0 0 .413-.117l-.034.4a9.918 9.918 0 0 0 .8-2.173l-2.689-.752.234-.837c.107.016.187.019.262.039q.846.24 1.688.483l1.385.393a4.482 4.482 0 0 0-.321-.41 5.512 5.512 0 0 0-1.825-1.3.448.448 0 0 1-.33-.478c0-.236-.035-.472-.06-.785a7.861 7.861 0 0 1 1.045.495 7.9 7.9 0 0 1 .856.775 1.341 1.341 0 0 0-.024-.223c-.1-.305-.209-.61-.321-.912a.727.727 0 0 0-.416-.508.267.267 0 0 1-.132-.188c-.038-.306-.056-.615-.087-.994a8.064 8.064 0 0 1 1 .475.974.974 0 0 1 .32.5c.174.534.333 1.072.459 1.618.139.592.251 1.191.341 1.794.042.282.126.476.428.523a1.037 1.037 0 0 1 .2.095c-.093.267-.186.53-.285.817l-.752-.239c-.316.748-.56 1.518-.843 2.273s-.547 1.5-.847 2.317c-.236-.327-.439-.587-.615-.868a.43.43 0 0 1 .009-.3c.1-.305.2-.605.328-.958h-.448a1.411 1.411 0 0 1-1.465-1.363 1.041 1.041 0 0 1 .474-.982 2.169 2.169 0 0 1 1.458-.32" style="fill:#a50c22"/>
                    <path data-name="Path 19548" d="M32.933 10.435a2.937 2.937 0 0 1-.061-.3c-.015-.177-.018-.355-.028-.563.39-.034.756-.066 1.122-.1.3-.023.6-.047.894-.064a.669.669 0 0 1 .541.1c.057.05.184.025.278.025h2.053a1.934 1.934 0 0 1 .03.883l-.749.035c-.009.144-.023.27-.023.4 0 1.338 0 2.677-.006 4.016a.536.536 0 0 0 .248.5 1.267 1.267 0 0 1 .4 1.453 1.138 1.138 0 0 1-1.138.814 1.824 1.824 0 0 1-1.237-.394 4.017 4.017 0 0 1-.521-.489 11.764 11.764 0 0 1-1.081-1.535.516.516 0 0 1 .661.246A4.3 4.3 0 0 0 35.3 16.6a1.377 1.377 0 0 0 1.331.324.6.6 0 0 0 .471-.563.464.464 0 0 0-.657-.494 1.8 1.8 0 0 0-.413.276 2.164 2.164 0 0 0-.238.258l-.46-.667a1.157 1.157 0 0 1 1.17-.61c-.029-.178-.164-.225-.265-.283a.443.443 0 0 1-.228-.447c.012-.572.005-1.146 0-1.72 0-.127-.01-.256-.019-.431-.561.047-1.1.075-1.622.14a.463.463 0 0 0-.377.564 1.875 1.875 0 0 0 .167.507 4.156 4.156 0 0 0 .869 1.176c.076.074.163.138.28.238l-.349.26a1.367 1.367 0 0 1-.2-.157c-.341-.4-.7-.788-1.009-1.209a2.355 2.355 0 0 1-.477-1.474.921.921 0 0 1 .26-.686.717.717 0 0 1 .362-.2c.64-.068 1.283-.109 1.962-.163l.081.579a3.566 3.566 0 0 0 .015-1.358l-.34-.02c-.071-.005-.164.016-.21-.021-.214-.174-.452-.1-.686-.087-.5.033-1 .073-1.5.107-.092.007-.184 0-.287 0" style="fill:#a50c22"/>
                    <path data-name="Path 19549" d="m46.342 64.715-.91-2.676c.3-.1.568-.195.868-.3l2.584 7.5-.792.274c-.088-.209-.159-.381-.253-.6-.06.1-.1.169-.133.236a2.057 2.057 0 0 1-2.041 1.162 2.538 2.538 0 0 1-1.939-1.2 4.141 4.141 0 0 1-.7-2.616 2.187 2.187 0 0 1 3.065-1.871 2.62 2.62 0 0 0 .249.094m-2.407 2.1a3.949 3.949 0 0 0 .724 2 1.6 1.6 0 0 0 1.167.69 1.452 1.452 0 0 0 1.56-1.568 3.727 3.727 0 0 0-.824-2.212 1.49 1.49 0 0 0-1.671-.5 1.534 1.534 0 0 0-.956 1.592" style="fill:#a50c22"/>
                    <path data-name="Path 19550" d="M41.17 63.218c.07.375.133.7.2 1.046l-.854.175c-.045-.065-.09-.127-.163-.229a.985.985 0 0 0-.059.111l-1.146 3.242-1.356 3.853c-.117.333-.119.333-.48.344-.18.006-.358.01-.538.013-.035 0-.07-.008-.154-.017-1.1-2.566-2.206-5.153-3.339-7.8l1.088-.051 2.746 6.926a1.723 1.723 0 0 0 .11-.208q1.082-3.3 2.163-6.605c.092-.285.1-.289.4-.306.151-.009.305-.013.468-.021l.064-.316.85-.157" style="fill:#a50c22"/>
                    <path data-name="Path 19551" d="M59.593 62.62c-.114.1-.191.172-.271.239-.147.122-.295.238-.457.37l-.561-.364c-.146.1-.124.277-.164.414a2.992 2.992 0 0 1-1.489 1.845 1.648 1.648 0 0 1-1 .227 1.606 1.606 0 0 1-1.332-2.139 2.732 2.732 0 0 1 .589-.933q.6-.663 1.195-1.333a4.552 4.552 0 0 0 .273-.384c-.159-.171-.3-.342-.464-.493a.779.779 0 0 0-.77-.173 2.31 2.31 0 0 0-1.371 1.082.987.987 0 0 0-.066.734c.027.126.074.25.128.427-.241.144-.488.295-.756.456a1.731 1.731 0 0 1-.179-1.574 3.647 3.647 0 0 1 2.3-2.055 1.256 1.256 0 0 1 1.316.35 7.128 7.128 0 0 1 .571.642c.32.387.623.787.949 1.168a5.168 5.168 0 0 0 1.553 1.494m-2.747-1.457c-.243.316-.447.6-.666.86s-.472.539-.705.808a1.645 1.645 0 0 0-.166.233.862.862 0 0 0 .028 1.035.9.9 0 0 0 1.03.289 2 2 0 0 0 1.24-1.7 2.315 2.315 0 0 0-.761-1.529" style="fill:#a50c22"/>
                    <path data-name="Path 19552" d="m24.866 65.986-.8-.358a1.8 1.8 0 0 1 1.65-1.128 3.974 3.974 0 0 1 2.319.613 1.361 1.361 0 0 1 .658 1.632c-.2.786-.435 1.564-.645 2.348-.1.379-.2.762-.262 1.15a4.773 4.773 0 0 0-.007.742c-.208-.056-.378-.1-.547-.148-.4-.113-.409-.134-.385-.547 0-.069.011-.139.018-.223-.166-.064-.29.041-.413.085a2.971 2.971 0 0 1-2.493-.195 1.544 1.544 0 0 1-.713-2.078 1.561 1.561 0 0 1 1.447-.946 8.809 8.809 0 0 1 1.21.09c.463.044.924.1 1.388.144.306.026.331 0 .416-.311a.978.978 0 0 0-.57-1.3 4.121 4.121 0 0 0-.988-.294 1.04 1.04 0 0 0-1.018.4c-.084.1-.164.2-.265.324m2.523 1.94a1.224 1.224 0 0 0-.166-.04c-.534-.043-1.069-.089-1.6-.126a5.177 5.177 0 0 0-.715-.022.821.821 0 0 0-.777.631.832.832 0 0 0 .331.948 2.036 2.036 0 0 0 .717.3 1.657 1.657 0 0 0 1.773-.565 2.989 2.989 0 0 0 .442-1.13" style="fill:#a50c22"/>
                    <path data-name="Path 19553" d="m13.991 64.786-.713-.625.271-.665-.444-.044a2.9 2.9 0 0 1-2.217-1.345 1.568 1.568 0 0 1 .933-2.394 1.748 1.748 0 0 1 1.253.15c.287.144.556.323.831.49.419.252.831.517 1.257.757.278.156.309.137.508-.1a.987.987 0 0 0 .016-1.449 4.007 4.007 0 0 0-.691-.615 1.09 1.09 0 0 0-1.247-.068c-.082.044-.166.087-.275.143-.191-.221-.377-.432-.581-.666a1.755 1.755 0 0 1 1.615-.43 3.725 3.725 0 0 1 2.26 1.754 1.33 1.33 0 0 1-.144 1.633c-.473.584-.973 1.148-1.461 1.72-.038.045-.08.088-.118.134a4.785 4.785 0 0 0-1.053 1.624m.968-2.957c-.089-.06-.125-.087-.164-.108-.477-.269-.953-.538-1.432-.8a4.515 4.515 0 0 0-.568-.3.866.866 0 0 0-1.156.477.929.929 0 0 0 .158.943 2.027 2.027 0 0 0 .967.7 1.517 1.517 0 0 0 1.653-.34c.178-.174.341-.362.542-.577" style="fill:#a50c22"/>
                    <path data-name="Path 19554" d="m65.735 47.029-.382.786a1.819 1.819 0 0 1-1.071-1.755 4.088 4.088 0 0 1 .614-2.107 1.419 1.419 0 0 1 1.8-.7c.687.2 1.364.434 2.049.643a5.355 5.355 0 0 0 2.089.408c-.087.272-.162.508-.236.746a.219.219 0 0 1-.246.162c-.153-.006-.306-.015-.511-.026.044.166.077.309.121.45a2.948 2.948 0 0 1-.24 2.355 1.557 1.557 0 0 1-1.753.872 1.578 1.578 0 0 1-1.281-1.563 8 8 0 0 1 .107-1.173c.062-.5.147-.992.206-1.489.036-.3.008-.323-.266-.413a1 1 0 0 0-1.367.558 4.344 4.344 0 0 0-.317 1.055.949.949 0 0 0 .328.87l.356.318m2-2.419c-.047.46-.089.9-.139 1.335-.037.319-.1.636-.125.956a.882.882 0 0 0 .671.969.9.9 0 0 0 1.024-.47 2.044 2.044 0 0 0 .219-1.553 1.771 1.771 0 0 0-1.65-1.237" style="fill:#a50c22"/>
                    <path data-name="Path 19555" d="M66.734 54.024c-.149.272-.281.511-.438.8-2.327-1.278-4.623-2.56-6.946-3.847l.456-.811 2.472 1.365c-.027-.182-.038-.286-.058-.389a2.365 2.365 0 0 1 1.009-2.365 1.439 1.439 0 0 1 1.234-.179 4.031 4.031 0 0 1 .793.325c1.039.564 2.071 1.142 3.1 1.715.051.029.1.065.179.119l-.432.789c-.133-.066-.239-.115-.341-.171-.93-.514-1.857-1.033-2.79-1.543a2.951 2.951 0 0 0-.589-.256 1.034 1.034 0 0 0-1.154.364 1.469 1.469 0 0 0 .225 2.183c.545.381 1.144.688 1.724 1.021.444.255.9.5 1.346.747.06.034.117.078.206.138" style="fill:#a50c22"/>
                    <path data-name="Path 19556" d="M55.848 25.541c-.158.077-.272.14-.392.191-.26.114-.448-.005-.458-.291a.63.63 0 0 1 .019-.213c.111-.366.222-.732.349-1.092a.661.661 0 0 1 .183-.257c.25-.227.41-.2.59.086.037.058.083.112.148.2L57.5 23.5a9.256 9.256 0 0 0-.746-1.267l-4.129 2.577a1.789 1.789 0 0 1-.033-.272c.006-.19.04-.381.031-.57a.484.484 0 0 1 .275-.489c.989-.6 1.966-1.221 2.948-1.836.109-.069.218-.142.36-.236l-.325-.6.745-.468a45 45 0 0 1 2.58 4.361l-.757.421-.465-.784-1.245.69.645 1.191-.869.491c-.226-.394-.436-.764-.667-1.169" style="fill:#a50c22"/>
                    <path data-name="Path 19557" d="m21.145 13.78 1.333-.742c.437-.243.873-.488 1.336-.745a1.067 1.067 0 0 0-.181-.155c-.372-.161-.74-.334-1.122-.469a1.288 1.288 0 0 0-1.139.1.466.466 0 0 1-.641-.068 7.168 7.168 0 0 0-.58-.444 2.231 2.231 0 0 1 1.807-.414 9.824 9.824 0 0 1 2.149.968.415.415 0 0 0 .584-.011l.444.782-.794.472.837 1.536a61.88 61.88 0 0 0-.7.391c-.155.087-.314.17-.467.263a.666.666 0 0 0-.246.977.927.927 0 0 0 1.382.169 1 1 0 0 0-.072-.107.56.56 0 0 1-.108-.715.7.7 0 0 1 .712-.378.456.456 0 0 1 .253.115c.269.309.536.626.385 1.087a.533.533 0 0 0 0 .129 2.141 2.141 0 0 1 .87.576c-.194.11-.374.213-.532.306-.241-.14-.454-.265-.669-.386a.328.328 0 0 0-.338 0 1.944 1.944 0 0 1-2.571-.748 2.241 2.241 0 0 1-.272-.731.775.775 0 0 1 .469-.91c.208-.118.415-.235.622-.355.02-.011.033-.034.084-.092l-.391-.721-2 1.1c-.149-.265-.284-.51-.436-.782" style="fill:#a50c22"/>
                    <path data-name="Path 19558" d="M4.551 51.924a2.2 2.2 0 0 1-1.434-.549 2.874 2.874 0 0 1-1.04-1.941 2.347 2.347 0 0 1 .9-2.186 4.291 4.291 0 0 1 2.279-.962 2.286 2.286 0 0 1 1.505.355 2.886 2.886 0 0 1 1.261 2.816 2.43 2.43 0 0 1-.627 1.265 4.376 4.376 0 0 1-2.843 1.2m.934-4.707a3.394 3.394 0 0 0-2.153 1A1.529 1.529 0 0 0 3.009 50a1.52 1.52 0 0 0 1.533.974 3.176 3.176 0 0 0 2.238-.987A1.535 1.535 0 0 0 7.1 48.2a1.616 1.616 0 0 0-1.617-.984" style="fill:#a50c22"/>
                    <path data-name="Path 19559" d="m13.492 23.646-.385.565c-.247-.152-.477-.293-.735-.449a26.951 26.951 0 0 1 2.7-4.09l.7.5-.446.664 3.933 2.869a4.646 4.646 0 0 1-1.011.361c-.1.022-.243-.072-.342-.146-.932-.668-1.857-1.343-2.784-2.016-.115-.083-.233-.163-.372-.259a6.124 6.124 0 0 0-.754 1.144l4.159 2.5a4.013 4.013 0 0 1-.975.474c-.081.031-.222-.056-.319-.116-.974-.579-1.945-1.166-2.917-1.749-.141-.085-.285-.164-.448-.257" style="fill:#a50c22"/>
                    <path data-name="Path 19560" d="m47.5 63.7.874-.468 3.586 3.276a.6.6 0 0 0 .02-.143q-.273-1.788-.548-3.574c-.045-.3-.074-.593-.125-.886a.258.258 0 0 1 .155-.319c.2-.1.4-.2.634-.323.079.575.154 1.105.224 1.634.21 1.586.425 3.171.623 4.76a9.816 9.816 0 0 1 .089 1.391 1.412 1.412 0 0 1-1.077 1.4c-.261.072-.288.065-.446-.157-.1-.146-.2-.294-.316-.468.138-.06.254-.107.369-.157a.964.964 0 0 0 .658-1.066v-.036a1.484 1.484 0 0 0-.581-1.227c-1.317-1.1-2.6-2.258-3.887-3.394-.078-.068-.152-.142-.254-.241" style="fill:#a50c22"/>
                    <path data-name="Path 19561" d="M19.9 61.8c.326.173.6.315.882.468l-.71 4.812 3.611-3.269c.268.142.508.269.778.41a1.331 1.331 0 0 1-.157.207q-2.55 2.254-5.107 4.5a3.887 3.887 0 0 1-.9.583 1.367 1.367 0 0 1-1.53-.266.291.291 0 0 1-.106-.375c.077-.184.151-.37.237-.586.142.1.255.177.375.249a.973.973 0 0 0 1.252-.091 1.582 1.582 0 0 0 .682-1.178c.161-1.6.391-3.2.594-4.8.026-.2.057-.4.1-.667" style="fill:#a50c22"/>
                    <path data-name="Path 19562" d="m49.753 14.509.542-.463c.066.051.19.142.311.236.461.361.919.722 1.382 1.081.11.085.212.165.117.33.058-.034.117-.069.21-.12.713.665 1.436 1.337 2.192 2.043l-.591.654a29.291 29.291 0 0 0-2.945-2.526C49.984 17 49 18.267 47.966 19.587c-.126-.384-.242-.695-.323-1.012a.414.414 0 0 1 .1-.283c.176-.249.369-.49.583-.768l-.249-.059a1.441 1.441 0 0 1-.8-2.206 1.108 1.108 0 0 1 1.231-.442c.642.15.711.246.661.892-.006.068-.023.134-.041.23a2.739 2.739 0 0 0-.381-.143 4.6 4.6 0 0 0-.769-.127.668.668 0 0 0-.387.148.3.3 0 0 0 0 .512 1.15 1.15 0 0 0 .731.247h.754l1.131-1.452c-.145-.12-.264-.215-.382-.312-.1-.079-.186-.16-.078-.3z" style="fill:#a50c22"/>
                    <path data-name="Path 19563" d="M27.089 10.92c.1.193.168.327.235.459l.045-.016-.106-.5a12.131 12.131 0 0 1 2.365-.666l.218.788-.751.252 1.326 4.651a4.233 4.233 0 0 1-1.031-.3c-.065-.023-.106-.149-.135-.235-.085-.258-.159-.521-.247-.818-.121.089-.21.161-.3.226a1.444 1.444 0 0 1-2.168-.852 1.324 1.324 0 0 1 .956-1.484.275.275 0 0 1 .195.044c.178.137.345.286.533.444-.2.131-.369.235-.526.357a1.2 1.2 0 0 0-.477.61.421.421 0 0 0 .094.463c.136.124.289.075.436.009a1.546 1.546 0 0 0 .668-.628c.074-.117.153-.231.257-.391l-.533-1.848c-.909.326-1.748.718-2.662 1.057l-.341-.826 1.953-.789" style="fill:#a50c22"/>
                    <path data-name="Path 19564" d="M50.241 21.251c-.245-.029-.377-.128-.388-.364a7 7 0 0 1 .127-2.031 1.687 1.687 0 0 1 .791-1.063.939.939 0 0 1 1.513.778l.017.244c.774-.026.972.169.918.926.112-.04.216-.076.338-.121.1.112.2.213.282.326.25.334.867.134 1.007-.232a.385.385 0 0 0-.093-.4c-.174-.211-.342-.427-.533-.666l.675-.56c.55.612 1.028 1.259 1.577 1.916l-.683.561-.441-.486c-.068.083-.129.149-.183.22a1.714 1.714 0 0 1-1.006.639 1.225 1.225 0 0 1-.816-.146.423.423 0 0 0 .013.589 1.6 1.6 0 0 0 .784.541c.145.05.3.076.507.129a8.139 8.139 0 0 1-.838.674c-.048.034-.164.008-.233-.024a1.438 1.438 0 0 1-.936-1.9 8.845 8.845 0 0 1 .37-.854c-.254-.417-.539-.457-.878-.11-.2.2-.392.416-.622.66l-.326-.73c.162-.176.32-.352.481-.524.123-.133.264-.257.147-.466a.58.58 0 0 0-.61-.277.885.885 0 0 0-.575.5 4.049 4.049 0 0 0-.311 1.355c-.03.293-.05.588-.075.89" style="fill:#a50c22"/>
                    <path data-name="Path 19565" d="m56.206 58.016.651-.709 4.424 1.913a4.992 4.992 0 0 0-.415-.866c-.138-.292-.29-.576-.436-.862l-.438-.862c-.145-.287-.3-.573-.44-.861s-.289-.572-.441-.875l.64-.689c.116.223.212.4.3.58l2.261 4.592c.158.323.16.325-.083.581-.424.446-.287.414-.832.192q-2.436-.989-4.87-1.987c-.1-.039-.188-.086-.322-.147" style="fill:#a50c22"/>
                    <path data-name="Path 19566" d="M4.712 23.335c.138.314.242.594.382.854a.592.592 0 0 0 .277.2c.3.136.614.256.965.4l-.308.774L2 23.935c.109-.266.2-.495.315-.769.586.231 1.153.455 1.719.68l.06-.061c-.051-.114-.1-.229-.153-.342-.276-.583-.549-1.167-.835-1.746a.511.511 0 0 1-.016-.476c.11-.234.2-.478.326-.775.085.178.149.3.206.428.2.458.407.917.612 1.374.139.308.149.312.491.245.773-.151 1.545-.305 2.318-.456.124-.023.251-.036.434-.062-.133.33-.231.61-.361.876a.386.386 0 0 1-.262.138c-.624.1-1.25.191-1.876.285-.069.01-.136.031-.265.061" style="fill:#a50c22"/>
                    <path data-name="Path 19567" d="M22.732 7.307c.25-.068.5-.138.748-.2a.231.231 0 0 1 .162.047.5.5 0 0 0 .51.048c.512-.169.632-.42.448-.93-.043-.122-.1-.239-.163-.406-.069.1-.116.161-.152.226a1.138 1.138 0 0 1-1.742.372A1.939 1.939 0 0 1 21.8 4.6a1.183 1.183 0 0 1 1.6-.962c.064.022.13.041.231.074l-.066-.384c.2-.074.4-.154.627-.238a1.4 1.4 0 0 1 .107.191c.32.823.645 1.645.947 2.475a4.155 4.155 0 0 1 .192.867.764.764 0 0 1-.3.695 2.48 2.48 0 0 1-1.642.61.758.758 0 0 1-.767-.621m-.168-2.522a1.643 1.643 0 0 0 .339.915.661.661 0 0 0 .749.272.708.708 0 0 0 .494-.709 1.457 1.457 0 0 0-.392-.97.655.655 0 0 0-.78-.169.664.664 0 0 0-.407.66" style="fill:#a50c22"/>
                    <path data-name="Path 19568" d="m9.3 13.334.559-.533 1.792.941.055-.052c-.307-.6-.7-1.146-1.033-1.758l.527-.549 1.821 1.028a4.018 4.018 0 0 0-.48-.962c-.162-.3-.336-.6-.515-.915.168-.179.322-.341.477-.5A19.049 19.049 0 0 1 14.1 12.9c-.163.151-.337.309-.552.505-.549-.3-1.125-.619-1.7-.935l-.061.063c.31.571.675 1.11 1.009 1.7-.172.184-.34.364-.532.567-.97-.483-1.928-.959-2.953-1.467" style="fill:#a50c22"/>
                    <path data-name="Path 19569" d="m19.784 3.624 2.1 3.79c-.208.121-.4.234-.6.353-.086-.108-.157-.2-.247-.308a1.374 1.374 0 0 0-.09.167 1.2 1.2 0 0 1-2 .528 2.261 2.261 0 0 1-.779-1.415 1.223 1.223 0 0 1 1.422-1.394c.057.007.114 0 .232 0l-.728-1.34.688-.382m-.058 2.165a.7.7 0 0 0-.767.73 1.6 1.6 0 0 0 .517 1.029.676.676 0 0 0 .819.132.693.693 0 0 0 .325-.766 1.649 1.649 0 0 0-.494-.891 1.768 1.768 0 0 0-.4-.234" style="fill:#a50c22"/>
                    <path data-name="Path 19570" d="m54.734 10.445-.309.278-.549-.429c.879-1.148 1.763-2.266 2.66-3.415.119.084.224.155.325.232s.179.152.292.247c-.3.4-.59.782-.913 1.207.14.016.217.028.294.033a1.219 1.219 0 0 1 1.134 1.527 2.142 2.142 0 0 1-1.131 1.411 1.183 1.183 0 0 1-1.761-.888c-.005-.046-.019-.092-.042-.2m.439-.185a.64.64 0 0 0 1 .577 1.642 1.642 0 0 0 .736-.975.6.6 0 0 0-.191-.648.635.635 0 0 0-.659-.155 1.5 1.5 0 0 0-.882 1.2" style="fill:#a50c22"/>
                    <path data-name="Path 19571" d="M71.2 41.909c-.05.3-.1.578-.149.9l-5.647-1c.052-.283.1-.523.147-.8l.776.09c-.217-.264-.415-.467-.567-.7a.969.969 0 0 1-.091-.828 1.715 1.715 0 0 1 .448-.77l.762.441c-.062.114-.111.195-.154.279a1.007 1.007 0 0 0 .481 1.494 4.916 4.916 0 0 0 1.085.346c.853.171 1.714.306 2.57.457.094.017.185.045.339.082" style="fill:#a50c22"/>
                    <path data-name="Path 19572" d="M17.036 26.96v.559c-.192.067-.4.151-.613.213a.622.622 0 0 0-.476.426 1.3 1.3 0 0 1-.274.413.454.454 0 0 1-.524.128.549.549 0 0 1-.383-.433.838.838 0 0 1 .5-.907.43.43 0 0 0 .244-.5c-.029-.258-.209-.371-.429-.241a7.515 7.515 0 0 0-.689.51c-.2.153-.383.326-.593.46a1.345 1.345 0 0 1-.495.192.548.548 0 0 1-.66-.633.386.386 0 0 1 .018-.106c.3-.791.6-1.582.9-2.387a3.332 3.332 0 0 1 .831.268l-.711 1.907.066.035a2.479 2.479 0 0 1 .239-.252 5.83 5.83 0 0 1 .791-.6.77.77 0 0 1 1.132.323 5.291 5.291 0 0 1 .3.771c.1-.015.233-.034.368-.058s.277-.053.462-.088" style="fill:#a50c22"/>
                    <path data-name="Path 19573" d="M54.547 28.844c.09-.405.163-.716.227-1.029.033-.164.173-.184.291-.231q1.326-.54 2.653-1.075c.32-.13.638-.263.985-.406-.07-.217-.132-.417-.2-.653.26-.1.509-.206.806-.326l.929 2.281-.819.344c-.111-.246-.209-.471-.327-.735l-2.236.9-2.3.928" style="fill:#a50c22"/>
                    <path data-name="Path 19574" d="M61.714 18.708c.057-.117.1-.21.155-.316a7.189 7.189 0 0 0-.273-.125 1.311 1.311 0 0 1-.709-.766.86.86 0 0 1 .268-1.028.84.84 0 0 1 1.087-.015 6.838 6.838 0 0 1 .527.482c.139.129.278.261.421.389a.539.539 0 0 0 .116.061c.3-.18.351-.278.3-.5a.774.774 0 0 0-.783-.583c-.043-.094-.1-.2-.141-.307s-.069-.2-.109-.312a.992.992 0 0 1 1.023.175 2.454 2.454 0 0 1 .7 1.064.76.76 0 0 1-.283.949c-.3.215-.612.413-.922.615a3.224 3.224 0 0 0-.978.83l-.4-.609m1.124-1.048a7.83 7.83 0 0 0-.686-.608.371.371 0 0 0-.6.3.671.671 0 0 0 .142.421c.283.351.71.31 1.139-.115" style="fill:#a50c22"/>
                    <path data-name="Path 19575" d="M9.191 14.541a1.652 1.652 0 0 1 .056 3.3 1.768 1.768 0 0 1-1.7-1.657 1.682 1.682 0 0 1 1.644-1.646m-.157.753a.745.745 0 0 0-.73 1 1.307 1.307 0 0 0 1.1.783.749.749 0 0 0 .708-1.018 1.326 1.326 0 0 0-1.08-.765" style="fill:#a50c22"/>
                    <path data-name="Path 19576" d="m17.535 8.883.672-.3a1.164 1.164 0 0 1-.178 1.115 1.717 1.717 0 0 1-.961.649 1.271 1.271 0 0 1-1.176-.263 2.125 2.125 0 0 1-.777-1.252 1.294 1.294 0 0 1 .52-1.357 1.345 1.345 0 0 1 1.478-.191 2.07 2.07 0 0 1 .842.816c-.545.431-1.136.783-1.671 1.2a.7.7 0 0 0 .856.372c.306-.1.414-.307.4-.788m-.5-.7c-.33-.432-.7-.509-1.009-.252a.628.628 0 0 0 .011.951l1-.7" style="fill:#a50c22"/>
                    <path data-name="Path 19577" d="M26.424 4.276c.139.444.369.649.683.652s.491-.147.65-.608l.742-.062a1.211 1.211 0 0 1-.532.971 1.811 1.811 0 0 1-1.047.308A1.168 1.168 0 0 1 26 5.13a2.012 2.012 0 0 1-.469-1.83 1.288 1.288 0 0 1 1.092-1 1.31 1.31 0 0 1 1.439.557 1.787 1.787 0 0 1 .337.879l-1.975.546m1.1-.8c-.179-.538-.521-.732-.9-.564a.61.61 0 0 0-.272.882c.381-.1.768-.207 1.174-.318" style="fill:#a50c22"/>
                    <path data-name="Path 19578" d="M65.818 23.6c-.3-.632-.581-1.233-.863-1.829a.634.634 0 0 0-.54.666c.011.36.176.513.709.64q.09.315.189.675a1.055 1.055 0 0 1-1.009-.3 1.661 1.661 0 0 1-.53-1.142 1.5 1.5 0 0 1 .148-.685 2.059 2.059 0 0 1 2.055-.914 1.446 1.446 0 0 1 .678 2.353 2 2 0 0 1-.837.531m.078-.937c.451-.172.623-.524.459-.879s-.535-.449-.977-.231l.518 1.11" style="fill:#a50c22"/>
                    <path data-name="Path 19579" d="M59.634 13.679c-.495-.507-.959-.985-1.421-1.46a.667.667 0 0 0-.293.818c.123.318.33.407.889.371.08.113.17.238.254.366.047.068.083.142.131.229a1.084 1.084 0 0 1-1.162-.038 2.5 2.5 0 0 1-.594-.559 1.224 1.224 0 0 1-.1-1.412 2.143 2.143 0 0 1 1.056-.982A1.429 1.429 0 0 1 60.2 13a2.291 2.291 0 0 1-.562.681m-.228-.9c.384-.374.409-.751.1-1.026a.629.629 0 0 0-.951.141l.847.885" style="fill:#a50c22"/>
                    <path data-name="Path 19580" d="m47.435 5.153-1.924-.614a.66.66 0 0 0 .117.855c.277.24.519.219.948-.1l.641.337a1.1 1.1 0 0 1-1.076.524 2.5 2.5 0 0 1-.814-.238 1.218 1.218 0 0 1-.7-1.194 2.173 2.173 0 0 1 .459-1.323 1.358 1.358 0 0 1 1.541-.455 1.315 1.315 0 0 1 .987 1.3 1.961 1.961 0 0 1-.179.915m-.614-.689a.647.647 0 0 0-.112-.8.56.56 0 0 0-.658-.127.547.547 0 0 0-.382.553l1.152.372" style="fill:#a50c22"/>
                    <path data-name="Path 19581" d="M8.72 19.706c-.385-.221-.745-.429-1.106-.633-.217-.124-.432-.254-.658-.362-.333-.159-.56-.114-.735.121a.645.645 0 0 0 .054.852A2.174 2.174 0 0 0 6.7 20c.357.218.721.421 1.082.632.09.055.176.114.286.185l-.382.674-2.7-1.56.338-.614c.133.051.239.091.379.142-.017-.15-.03-.264-.04-.379a1.244 1.244 0 0 1 .137-.727.921.921 0 0 1 1.352-.445c.655.341 1.288.723 1.966 1.107l-.4.688" style="fill:#a50c22"/>
                    <path data-name="Path 19582" d="m67.843 26.487-.352-.606a.794.794 0 0 0 .008-1.024c-.066-.113-.16-.223-.317-.169-.134.045-.164.163-.159.291.006.19.022.381.031.571a6.674 6.674 0 0 1 .026.786.834.834 0 0 1-1.153.749 1.085 1.085 0 0 1-.56-.427 2.178 2.178 0 0 1-.4-1.418 1.091 1.091 0 0 1 .511-.86c.123.229.24.443.361.665A.787.787 0 0 0 65.7 26.1a.68.68 0 0 0 .157.193.266.266 0 0 0 .466-.182 2.377 2.377 0 0 0-.017-.356c-.016-.31-.043-.619-.042-.929a.79.79 0 0 1 .543-.8.838.838 0 0 1 .975.248 2.179 2.179 0 0 1 .514 1.454.868.868 0 0 1-.451.758" style="fill:#a50c22"/>
                    <path data-name="Path 19583" d="m16.09 66.116-.781-.508 3.119-4.808.784.507-3.122 4.809" style="fill:#a50c22"/>
                    <path data-name="Path 19584" d="m65.226 56.327-.535.764L60 53.805l.527-.77 4.7 3.292" style="fill:#a50c22"/>
                    <path data-name="Path 19585" d="m42.683 71.009-.916.164-1.092-5.616c.31-.058.593-.113.916-.175l1.092 5.627" style="fill:#a50c22"/>
                    <path data-name="Path 19586" d="m51.39 3.671.732.4-1.746 3.16 1.907 1.075c-.108.2-.2.384-.321.6L49.3 7.441c.7-1.257 1.382-2.493 2.088-3.77" style="fill:#a50c22"/>
                    <path data-name="Path 19587" d="m63.738 20.874-.469.355a4.693 4.693 0 0 1-.385-.475.7.7 0 0 1 .247-1.095c.373-.238.76-.45 1.141-.675.122-.071.243-.146.382-.231l-.113-.363.467-.277c.088.1.165.182.245.27a.444.444 0 0 0 .141-.05.586.586 0 0 1 .833.015c.091.07.194.126.34.22-.321.193-.6.362-.906.544.078.164.149.312.236.5-.158.1-.312.195-.486.3l-.343-.469c-.482.284-.955.556-1.422.838a.236.236 0 0 0-.065.371c.046.067.095.133.157.221" style="fill:#a50c22"/>
                    <path data-name="Path 19588" d="m12.455 8.548.613-.5 2.781 3.314-.6.523c-.935-1.116-1.854-2.209-2.8-3.335" style="fill:#a50c22"/>
                    <path data-name="Path 19589" d="M44.165 14.581c.181-.354.334-.659.494-.962.069-.128.19-.131.314-.1a1.232 1.232 0 0 1 .849.658 1.96 1.96 0 0 1-.674 2.5.572.572 0 0 1-.729-.041.4.4 0 0 1 .1-.708 2.436 2.436 0 0 0 .5-.265 1.08 1.08 0 0 0 .316-.378.446.446 0 0 0-.28-.656 2.887 2.887 0 0 0-.6-.077 1.736 1.736 0 0 0-.3.033" style="fill:#a50c22"/>
                    <path data-name="Path 19590" d="m59.627 15.767-.495-.61 2.43-1.968.44.533-.236.3c.293.042.581.018.773.256a.71.71 0 0 1 .193.514l-.6.227c-.047-.09-.081-.164-.12-.235a.485.485 0 0 0-.719-.241 4.049 4.049 0 0 0-.629.408c-.343.256-.672.53-1.035.817" style="fill:#a50c22"/>
                    <path data-name="Path 19591" d="m10.863 27.428 1.168-3.044.838.319-1.166 3.044-.84-.319" style="fill:#a50c22"/>
                    <path data-name="Path 19592" d="m54.184 6.7.671.418L53.2 9.765l-.675-.416L54.184 6.7" style="fill:#a50c22"/>
                    <path data-name="Path 19593" d="M53.513 27.257a1.345 1.345 0 0 1 .732.761.692.692 0 0 1 .013.622 3.147 3.147 0 0 1-.344.583c-.281.356-.585.694-.884 1.034-.149.168-.155.163-.455.057.047-.081.086-.162.137-.235.268-.381.546-.755.808-1.14.179-.264.167-.334-.056-.557-.16-.159-.331-.308-.527-.489.1-.109.183-.214.277-.316s.194-.209.3-.32" style="fill:#a50c22"/>
                    <path data-name="Path 19594" d="M47.643 13.547c-.645-.329-1.257-.642-1.892-.964.138-.272.26-.515.4-.8l1.894.959c-.139.279-.265.528-.4.805" style="fill:#a50c22"/>
                    <path data-name="Path 19595" d="m49.753 14.509-.008.008c-.088.118-.184.077-.28.016-.536-.333-1.071-.667-1.639-1.023l.469-.763c.6.375 1.184.736 1.782 1.111l-.324.651" style="fill:#a50c22"/>
                    <path data-name="Path 19596" d="m59.073 53.154-.885-.619.536-.756c.3.207.574.4.876.61l-.527.765" style="fill:#a50c22"/>
                    <path data-name="Path 19597" d="m19.63 58.95.753.488a5.15 5.15 0 0 1-.567.917l-.773-.5c.2-.31.386-.594.587-.9" style="fill:#a50c22"/>
                    <path data-name="Path 19598" d="M54.446 6.285c.136-.218.246-.4.381-.612l.668.409-.379.616-.67-.413" style="fill:#a50c22"/>
                </g>
            </g>
        </g>
    </g>
</svg>
