<svg xmlns="http://www.w3.org/2000/svg" viewBox="0 0 500 500"><g id="freepik--background-complete--inject-229"><path d="M319.74,253.68,196,252.53l-37.51-.18-10.2,0-2.65,0a4.9,4.9,0,0,0-.91.05s.31,0,.91,0l2.65.06,10.2.13,37.51.2,123.77.07c48.31,0,92.06.06,123.73.29,15.83.11,28.65.25,37.5.42,4.43.08,7.87.17,10.2.26a20.29,20.29,0,0,1,3.56.26,20.34,20.34,0,0,1-3.56.23c-2.33.06-5.77.11-10.2.15-8.86.08-21.68.1-37.51,0C411.79,254.54,368,254.17,319.74,253.68Z" style="fill:#ebebeb"></path><path d="M318.78,264.28,196.7,244.44l-37-5.84-10.08-1.51-2.63-.37a5.44,5.44,0,0,0-.9-.08,8.24,8.24,0,0,0,.89.19l2.61.46L159.61,239l37,5.86,122.26,18.76c47.73,7.29,90.93,13.95,122.18,19,15.63,2.5,28.26,4.58,37,6.08,4.36.76,7.75,1.36,10,1.8a19.13,19.13,0,0,1,3.46.8,18.13,18.13,0,0,1-3.55-.31c-2.31-.29-5.72-.75-10.1-1.38-8.76-1.26-21.42-3.18-37.06-5.61C409.57,279.05,366.42,272.06,318.78,264.28Z" style="fill:#ebebeb"></path><path d="M316.11,274.6,198.78,236.32l-35.62-11.43-9.71-3-2.53-.76a4.51,4.51,0,0,0-.88-.22,8,8,0,0,0,.84.32l2.5.86,9.66,3.19,35.61,11.45,117.7,37.24c45.94,14.49,87.53,27.68,117.58,37.41,15,4.86,27.16,8.85,35.53,11.67,4.19,1.41,7.43,2.53,9.62,3.32a18,18,0,0,1,3.29,1.32,19.05,19.05,0,0,1-3.45-.85c-2.24-.63-5.53-1.61-9.76-2.91-8.45-2.58-20.64-6.41-35.69-11.21C403.38,303.08,361.9,289.58,316.11,274.6Z" style="fill:#ebebeb"></path><path d="M311.82,284.38,202.14,228.63,168.81,211.9l-9.09-4.49-2.38-1.14a4.78,4.78,0,0,0-.83-.35,6.6,6.6,0,0,0,.78.45l2.33,1.23,9,4.62L202,229l110.2,54.77c43,21.35,82,40.74,110.06,54.94,14.05,7.1,25.39,12.9,33.2,17,3.91,2,6.93,3.63,9,4.74a18.2,18.2,0,0,1,3.05,1.81,19.89,19.89,0,0,1-3.28-1.37c-2.11-1-5.19-2.45-9.16-4.37-7.92-3.85-19.34-9.5-33.42-16.54C393.39,325.84,354.61,306.17,311.82,284.38Z" style="fill:#ebebeb"></path><path d="M306,293.38l-99.37-71.72-30.22-21.6-8.26-5.81L166,192.77a5.15,5.15,0,0,0-.76-.48,6.43,6.43,0,0,0,.69.56l2.11,1.57,8.17,5.93L206.39,222l100,70.84c39.07,27.62,74.4,52.69,99.87,71,12.73,9.15,23,16.6,30.07,21.8,3.53,2.6,6.25,4.64,8.08,6a18.37,18.37,0,0,1,2.72,2.25,18.86,18.86,0,0,1-3-1.85c-1.92-1.28-4.74-3.21-8.34-5.71-7.21-5-17.58-12.31-30.36-21.41C379.9,346.73,344.76,321.41,306,293.38Z" style="fill:#ebebeb"></path><path d="M298.8,301.39c-33.84-33.53-64.47-63.88-86.68-85.87l-26.39-25.9-7.24-7-1.9-1.8a4.61,4.61,0,0,0-.67-.58,5.89,5.89,0,0,0,.59.66c.44.44,1.05,1.06,1.83,1.87,1.66,1.64,4,4,7.12,7.09l26.38,25.92,87.48,85.1c34.17,33.19,65.07,63.3,87.3,85.22,11.11,11,20.07,19.87,26.21,26.07,3.07,3.1,5.44,5.53,7,7.19a18.71,18.71,0,0,1,2.33,2.63,17.43,17.43,0,0,1-2.69-2.28c-1.69-1.56-4.16-3.88-7.33-6.9-6.32-6-15.39-14.82-26.56-25.74C363.27,365.26,332.61,334.93,298.8,301.39Z" style="fill:#ebebeb"></path><path d="M290.42,308.22l-71.88-97.94L196.6,180.71l-6-8L189,170.65a5.89,5.89,0,0,0-.57-.68,4.21,4.21,0,0,0,.48.74l1.51,2.12,5.89,8.09,21.92,29.59L291,307.8c28.44,37.95,54.14,72.36,72.6,97.38,9.22,12.5,16.64,22.66,21.72,29.72,2.53,3.52,4.49,6.28,5.78,8.16A18.66,18.66,0,0,1,393,446a17.73,17.73,0,0,1-2.29-2.66c-1.43-1.79-3.49-4.46-6.13-7.92-5.28-6.91-12.84-17-22.12-29.44C343.88,381.05,318.44,346.46,290.42,308.22Z" style="fill:#ebebeb"></path><path d="M281,313.69,225.8,206c-7.13-13.72-12.9-24.82-16.9-32.54-2-3.8-3.59-6.77-4.67-8.81-.53-1-.94-1.74-1.24-2.28a4.29,4.29,0,0,0-.46-.76,7.53,7.53,0,0,0,.36.81l1.15,2.32,4.52,8.89,16.88,32.55c14.41,27.45,34.29,65.31,56.25,107.16s41.84,79.69,56,107.2c7.11,13.76,12.8,24.92,16.68,32.66,1.93,3.87,3.42,6.88,4.4,8.94a18.1,18.1,0,0,1,1.37,3.2,17.81,17.81,0,0,1-1.83-3c-1.12-2-2.74-4.94-4.79-8.76-4.1-7.63-9.95-18.71-17.11-32.44C322.12,393.75,302.57,355.72,281,313.69Z" style="fill:#ebebeb"></path><path d="M270.9,317.66,233.77,202.9c-4.82-14.64-8.72-26.49-11.42-34.72-1.38-4.07-2.45-7.23-3.18-9.42-.37-1-.66-1.86-.86-2.44a5.17,5.17,0,0,0-.33-.82,5.06,5.06,0,0,0,.22.85c.18.59.43,1.41.76,2.47.7,2.2,1.72,5.38,3,9.47,2.7,8.23,6.59,20.09,11.4,34.73,9.78,29.31,23.28,69.74,38.2,114.42s28.42,85.1,38,114.44c4.79,14.67,8.61,26.56,11.18,34.8,1.29,4.12,2.26,7.32,2.9,9.51a16.59,16.59,0,0,1,.83,3.37,18.43,18.43,0,0,1-1.32-3.22c-.79-2.14-1.9-5.3-3.31-9.38-2.82-8.16-6.8-20-11.65-34.65C298.5,403,285.35,362.46,270.9,317.66Z" style="fill:#ebebeb"></path><path d="M260.23,320c-7.06-46.47-13.45-88.52-18.08-119-2.39-15.19-4.32-27.49-5.67-36-.69-4.23-1.24-7.52-1.61-9.79-.2-1.09-.35-1.94-.45-2.54a7.74,7.74,0,0,0-.19-.86,5.29,5.29,0,0,0,.08.88c.08.6.2,1.45.35,2.55.33,2.28.82,5.57,1.45,9.81,1.34,8.54,3.26,20.85,5.64,36,4.92,30.44,11.7,72.44,19.2,118.84s14.29,88.39,19,118.83c2.35,15.22,4.2,27.54,5.41,36.07.6,4.26,1,7.58,1.32,9.83a17.19,17.19,0,0,1,.28,3.46,17.44,17.44,0,0,1-.79-3.38c-.43-2.23-1-5.53-1.75-9.77-1.46-8.49-3.47-20.79-5.89-36C273.68,408.54,267.25,366.48,260.23,320Z" style="fill:#ebebeb"></path><path d="M249.31,320.75c.44-47,.83-89.48,1.12-120.29.07-15.37.12-27.82.16-36.46,0-4.28,0-7.61,0-9.91,0-1.11,0-2,0-2.58a5.73,5.73,0,0,0-.05-.87,4.79,4.79,0,0,0-.06.87c0,.62,0,1.47-.06,2.58,0,2.3-.07,5.63-.12,9.91,0,8.64-.11,21.09-.18,36.46,0,30.81,0,73.32,0,120.29s0,89.47-.21,120.25c-.11,15.39-.25,27.85-.41,36.45-.09,4.31-.17,7.65-.26,9.92a17.29,17.29,0,0,1-.27,3.45,17.28,17.28,0,0,1-.24-3.46c-.06-2.26-.12-5.61-.16-9.91-.09-8.61-.11-21.06-.08-36.45C248.49,410.22,248.84,367.7,249.31,320.75Z" style="fill:#ebebeb"></path><path d="M238.41,319.82l20.34-118.66c2.52-15.17,4.56-27.46,6-36l1.55-9.79c.16-1.1.29-1.95.38-2.56s.1-.87.09-.87a4.49,4.49,0,0,0-.2.86c-.12.6-.27,1.44-.48,2.53-.4,2.27-1,5.55-1.71,9.77-1.42,8.53-3.47,20.82-6,36-4.92,30.44-11.71,72.43-19.22,118.84s-14.3,88.38-19.43,118.75c-2.56,15.19-4.7,27.47-6.24,35.95-.77,4.24-1.39,7.52-1.84,9.75a17,17,0,0,1-.82,3.37,16.8,16.8,0,0,1,.32-3.45c.29-2.25.77-5.56,1.41-9.82,1.29-8.52,3.26-20.82,5.75-36C223.28,408.07,230.43,366.13,238.41,319.82Z" style="fill:#ebebeb"></path><path d="M227.79,317.24c15.35-44.54,29.25-84.85,39.32-114.06,4.95-14.6,8.95-26.42,11.74-34.63l3.11-9.43c.34-1.06.6-1.88.78-2.47a4.67,4.67,0,0,0,.23-.85,5.17,5.17,0,0,0-.33.82c-.21.58-.51,1.38-.88,2.43l-3.28,9.39c-2.79,8.2-6.8,20-11.76,34.61-9.8,29.31-23.31,69.74-38.24,114.42s-28.43,85.09-38.42,114.3c-5,14.6-9.09,26.41-12,34.54-1.45,4.07-2.59,7.22-3.4,9.35a16.87,16.87,0,0,1-1.36,3.2,18.26,18.26,0,0,1,.87-3.36c.65-2.18,1.66-5.37,3-9.48,2.65-8.21,6.58-20.07,11.51-34.69C198.54,402.08,212.4,361.75,227.79,317.24Z" style="fill:#ebebeb"></path><path d="M217.72,313.07,275,206.44,292.21,174l4.61-8.84c.51-1,.9-1.76,1.17-2.31a5.17,5.17,0,0,0,.37-.81,4.62,4.62,0,0,0-.47.76c-.3.54-.71,1.29-1.26,2.26l-4.75,8.78-17.22,32.38L218.37,313.4c-21.94,41.83-41.87,79.68-56.46,107-7.29,13.66-13.25,24.68-17.43,32.28-2.08,3.79-3.73,6.73-4.87,8.71a19,19,0,0,1-1.85,3,17,17,0,0,1,1.4-3.19c1-2.05,2.52-5.05,4.49-8.9,3.95-7.71,9.76-18.81,17-32.5C175.11,392.38,195.33,354.68,217.72,313.07Z" style="fill:#ebebeb"></path><path d="M208.46,307.42,282.2,210.8l22.19-29.38,6-8,1.53-2.1a6.14,6.14,0,0,0,.49-.74,5.48,5.48,0,0,0-.58.67l-1.61,2-6.1,7.94-22.22,29.37-72.83,97.27c-28.4,38-54.17,72.34-73,97.11-9.4,12.38-17.06,22.37-22.4,29.23-2.68,3.44-4.77,6.09-6.22,7.87a17.31,17.31,0,0,1-2.31,2.64,18.23,18.23,0,0,1,1.91-2.93c1.31-1.88,3.29-4.61,5.86-8.12,5.14-7,12.66-17.09,22-29.51C153.61,379.28,179.65,345.11,208.46,307.42Z" style="fill:#ebebeb"></path><path d="M200.21,300.44l88.3-84.3,26.64-25.67c3.1-3,5.52-5.4,7.18-7l1.85-1.85a5.16,5.16,0,0,0,.6-.65,4.92,4.92,0,0,0-.68.58l-1.92,1.78-7.29,6.92-26.65,25.66-87.51,85.07c-34.13,33.23-65.09,63.27-87.63,84.89-11.27,10.81-20.43,19.52-26.81,25.5-3.19,3-5.68,5.29-7.4,6.83a18.18,18.18,0,0,1-2.7,2.25,18.85,18.85,0,0,1,2.35-2.6c1.6-1.65,4-4.06,7.09-7.13,6.2-6.15,15.24-15,26.47-25.83C134.54,363.13,165.72,333.31,200.21,300.44Z" style="fill:#ebebeb"></path><path d="M193.18,292.29,293.9,222.37,324.32,201l8.22-5.86,2.13-1.54a7.61,7.61,0,0,0,.7-.56,4.7,4.7,0,0,0-.77.47L332.42,195l-8.32,5.73-30.43,21.31L193.61,292.87c-39,27.66-74.42,52.66-100.14,70.61-12.87,9-23.31,16.2-30.57,21.13-3.63,2.47-6.46,4.37-8.4,5.63a18.5,18.5,0,0,1-3,1.82,18.51,18.51,0,0,1,2.74-2.22c1.84-1.39,4.59-3.4,8.14-6,7.11-5.13,17.46-12.49,30.28-21.52C118.28,344.29,153.85,319.55,193.18,292.29Z" style="fill:#ebebeb"></path><path d="M187.55,283.18l110.73-53.76L331.75,213l9.07-4.53,2.34-1.21a5.79,5.79,0,0,0,.79-.45,6.48,6.48,0,0,0-.84.35l-2.39,1.12-9.13,4.4L298.1,229.08,187.88,283.81c-43,21.4-82,40.72-110.27,54.53C63.46,345.26,52,350.8,44,354.57c-4,1.89-7.08,3.33-9.2,4.28a19,19,0,0,1-3.29,1.34,17.9,17.9,0,0,1,3.06-1.78c2-1.09,5.08-2.66,9-4.66,7.85-4,19.25-9.68,33.37-16.65C105.2,323.16,144.32,304.13,187.55,283.18Z" style="fill:#ebebeb"></path><path d="M183.46,273.32l118-36.15L337.23,226l9.69-3.09,2.51-.84a4.63,4.63,0,0,0,.84-.32,6.06,6.06,0,0,0-.88.22l-2.54.73-9.73,2.95-35.73,11.1L183.68,274C137.75,288.55,96.14,301.67,66,311c-15.09,4.66-27.32,8.38-35.79,10.89-4.24,1.25-7.54,2.2-9.78,2.82a19,19,0,0,1-3.47.82,18.08,18.08,0,0,1,3.31-1.29c2.2-.77,5.45-1.86,9.65-3.23,8.4-2.74,20.57-6.62,35.65-11.34C95.66,300.21,137.37,287.4,183.46,273.32Z" style="fill:#ebebeb"></path><path d="M181,263l122.44-17.65,37.07-5.53,10.07-1.58,2.62-.43a6,6,0,0,0,.88-.19,5.51,5.51,0,0,0-.9.08l-2.63.34-10.09,1.42-37.08,5.5L181.12,263.66C133.41,271,90.19,277.6,58.87,282.19c-15.65,2.29-28.34,4.09-37.11,5.27-4.39.59-7.8,1-10.11,1.29a18.23,18.23,0,0,1-3.56.28,19.19,19.19,0,0,1,3.48-.76c2.29-.42,5.68-1,10.05-1.71,8.73-1.43,21.39-3.39,37-5.75C90,276.08,133.22,269.81,181,263Z" style="fill:#ebebeb"></path><path d="M180.26,252.35l123.77,1,37.51.13,10.2,0,2.65,0a8,8,0,0,0,.91,0,5.33,5.33,0,0,0-.91-.06l-2.65-.06-10.2-.11L304,253l-123.78.07c-48.31.06-92.06.05-123.73-.14-15.83-.09-28.65-.22-37.5-.37-4.43-.08-7.87-.16-10.2-.25A19.11,19.11,0,0,1,5.27,252a20.21,20.21,0,0,1,3.56-.23c2.33-.06,5.77-.12,10.2-.17,8.86-.08,21.67-.12,37.51-.09C88.21,251.6,132,251.92,180.26,252.35Z" style="fill:#ebebeb"></path><path d="M181.21,241.75l122.11,19.69,37,5.79,10.08,1.51,2.63.36a5.51,5.51,0,0,0,.9.08,6,6,0,0,0-.88-.19l-2.61-.46-10.06-1.65-37-5.82L181.09,242.45c-47.73-7.23-90.94-13.84-122.2-18.81-15.63-2.48-28.26-4.54-37-6-4.36-.74-7.74-1.34-10-1.78A18.1,18.1,0,0,1,8.4,215a19.21,19.21,0,0,1,3.55.31c2.31.28,5.72.74,10.1,1.37,8.77,1.25,21.43,3.15,37.07,5.57C90.4,227.1,133.56,234,181.21,241.75Z" style="fill:#ebebeb"></path><path d="M183.86,231.42l117.39,38.15L336.88,281l9.71,3,2.54.75a7.18,7.18,0,0,0,.87.23,4.57,4.57,0,0,0-.84-.33l-2.5-.85L337,280.6l-35.62-11.41L183.63,232.1c-46-14.44-87.57-27.58-117.63-37.27C51,190,38.82,186,30.45,183.2c-4.19-1.4-7.43-2.52-9.62-3.3a17.48,17.48,0,0,1-3.3-1.32,18.8,18.8,0,0,1,3.46.85c2.24.63,5.53,1.61,9.75,2.89,8.46,2.58,20.66,6.39,35.71,11.17C96.55,203.05,138.05,216.5,183.86,231.42Z" style="fill:#ebebeb"></path><path d="M188.14,221.64,297.9,277.26,331.24,294l9.1,4.47,2.38,1.14a4.78,4.78,0,0,0,.83.35,7.37,7.37,0,0,0-.78-.45l-2.33-1.22-9-4.61-33.33-16.72L187.81,222.27c-43.06-21.3-82-40.64-110.13-54.8-14.06-7.09-25.41-12.87-33.23-16.92-3.9-2-6.93-3.62-9-4.73a19.69,19.69,0,0,1-3.05-1.8,18.12,18.12,0,0,1,3.28,1.36c2.11,1,5.2,2.44,9.16,4.36,7.93,3.84,19.36,9.47,33.45,16.5C106.51,180.28,145.32,199.9,188.14,221.64Z" style="fill:#ebebeb"></path><path d="M194,212.63l99.46,71.61,30.25,21.55,8.27,5.8,2.17,1.49a4.45,4.45,0,0,0,.76.47,6.11,6.11,0,0,0-.7-.56l-2.1-1.56-8.18-5.93-30.23-21.57L193.52,213.2c-39.1-27.57-74.47-52.59-100-70.86-12.75-9.13-23-16.56-30.1-21.75-3.53-2.6-6.26-4.63-8.09-6a18,18,0,0,1-2.72-2.24,18.86,18.86,0,0,1,3,1.85c1.92,1.27,4.74,3.19,8.35,5.69,7.21,5,17.6,12.3,30.38,21.37C120,159.38,155.15,184.66,194,212.63Z" style="fill:#ebebeb"></path><path d="M201.13,204.61c33.89,33.5,64.56,63.8,86.8,85.77l26.43,25.87,7.24,7,1.9,1.79a5.07,5.07,0,0,0,.68.59,5.75,5.75,0,0,0-.6-.66l-1.83-1.87L314.62,316l-26.41-25.89-87.59-85C166.4,172,135.47,141.9,113.21,120,102.08,109.06,93.11,100.16,87,94c-3.07-3.1-5.44-5.52-7-7.18a18.26,18.26,0,0,1-2.32-2.63,19.25,19.25,0,0,1,2.68,2.28c1.7,1.56,4.18,3.88,7.34,6.89,6.33,6,15.42,14.81,26.59,25.71C136.59,140.83,167.29,171.11,201.13,204.61Z" style="fill:#ebebeb"></path><path d="M209.51,197.78l72,97.84,22,29.55,6,8,1.6,2.06a5.89,5.89,0,0,0,.57.68,5.17,5.17,0,0,0-.48-.74L309.7,333,303.79,325c-5.2-7-12.69-17.1-22-29.56l-72.92-97.21c-28.49-37.91-54.24-72.29-72.72-97.28-9.25-12.5-16.68-22.64-21.76-29.69-2.54-3.53-4.5-6.28-5.8-8.16a16.68,16.68,0,0,1-1.87-3,18.94,18.94,0,0,1,2.28,2.66c1.43,1.79,3.51,4.46,6.15,7.91,5.29,6.91,12.86,17,22.16,29.42C156,125,181.44,159.57,209.51,197.78Z" style="fill:#ebebeb"></path><path d="M218.88,192.3l55.38,107.58c7.15,13.71,12.93,24.82,16.95,32.52l4.67,8.81,1.25,2.28a4.29,4.29,0,0,0,.46.76,7.53,7.53,0,0,0-.36-.81c-.27-.55-.66-1.32-1.15-2.32l-4.54-8.88c-4-7.71-9.78-18.82-16.92-32.53L218.23,192.62c-22-41.78-41.94-79.64-56.18-107.14-7.12-13.75-12.83-24.9-16.71-32.63-2-3.87-3.44-6.89-4.42-8.94a17.16,17.16,0,0,1-1.37-3.2,19.68,19.68,0,0,1,1.83,3c1.12,2,2.74,4.94,4.8,8.75,4.11,7.63,10,18.7,17.15,32.42C177.69,112.28,197.3,150.29,218.88,192.3Z" style="fill:#ebebeb"></path><path d="M229,188.31c14.56,44.8,27.73,85.33,37.27,114.72l11.48,34.7,3.19,9.42c.37,1.05.66,1.86.86,2.44a5.78,5.78,0,0,0,.33.82,5.27,5.27,0,0,0-.22-.86c-.18-.58-.44-1.4-.76-2.47-.71-2.19-1.73-5.37-3-9.46-2.72-8.23-6.62-20.08-11.45-34.71-9.82-29.3-23.38-69.72-38.35-114.38S199.8,103.47,190.19,74.14c-4.81-14.67-8.64-26.55-11.23-34.79-1.29-4.11-2.27-7.32-2.91-9.5a18.2,18.2,0,0,1-.84-3.37,17.42,17.42,0,0,1,1.33,3.22c.79,2.13,1.91,5.29,3.32,9.37,2.83,8.16,6.83,20,11.7,34.64C201.3,103,214.51,143.53,229,188.31Z" style="fill:#ebebeb"></path><path d="M239.68,185.93c7.12,46.46,13.57,88.51,18.24,119,2.41,15.19,4.36,27.49,5.71,36,.71,4.23,1.25,7.52,1.63,9.79.2,1.09.35,1.93.45,2.54a4.78,4.78,0,0,0,.2.86,4.79,4.79,0,0,0-.09-.88c-.08-.61-.2-1.45-.35-2.55-.34-2.28-.83-5.58-1.47-9.81-1.34-8.54-3.28-20.84-5.68-36L239,186c-7.59-46.37-14.4-88.37-19.14-118.8-2.37-15.22-4.23-27.54-5.45-36.07-.61-4.26-1.06-7.58-1.34-9.83a18.89,18.89,0,0,1-.29-3.45,17.25,17.25,0,0,1,.8,3.38c.43,2.22,1,5.52,1.76,9.76,1.47,8.49,3.5,20.79,5.94,36C226.12,97.44,232.6,139.49,239.68,185.93Z" style="fill:#ebebeb"></path><path d="M250.6,185.19c-.38,47-.72,89.49-1,120.3,0,15.37-.09,27.81-.11,36.45,0,4.28,0,7.61,0,9.91,0,1.11,0,2,0,2.58a6,6,0,0,0,0,.88,5,5,0,0,0,.06-.88c0-.61,0-1.46.06-2.57,0-2.3.06-5.64.11-9.92,0-8.64.07-21.08.13-36.45,0-30.81-.09-73.32-.15-120.3s-.12-89.47.06-120.25c.08-15.39.21-27.84.36-36.45.08-4.3.16-7.64.25-9.91a19.11,19.11,0,0,1,.26-3.46,17.39,17.39,0,0,1,.24,3.46c.07,2.27.13,5.61.18,9.91.1,8.61.14,21.07.12,36.46C251.31,95.73,251,138.25,250.6,185.19Z" style="fill:#ebebeb"></path><path d="M261.51,186.11c-7.89,46.35-15,88.29-20.19,118.69-2.5,15.17-4.53,27.46-5.93,36-.67,4.23-1.19,7.53-1.54,9.8-.16,1.1-.29,2-.37,2.55a4.86,4.86,0,0,0-.09.88,4.78,4.78,0,0,0,.2-.86c.11-.6.27-1.44.47-2.54.39-2.26,1-5.55,1.7-9.77,1.41-8.53,3.44-20.82,6-36,4.88-30.45,11.62-72.45,19.06-118.86S275,97.6,280.06,67.22c2.54-15.19,4.66-27.48,6.19-36,.76-4.24,1.38-7.53,1.83-9.75a18.32,18.32,0,0,1,.81-3.37,17.12,17.12,0,0,1-.31,3.45c-.29,2.25-.76,5.56-1.4,9.82-1.28,8.52-3.23,20.83-5.71,36C276.52,97.84,269.42,139.79,261.51,186.11Z" style="fill:#ebebeb"></path><path d="M272.13,188.68C256.84,233.24,243,273.56,233,302.79l-11.69,34.64c-1.34,4.08-2.39,7.25-3.11,9.44-.33,1.06-.59,1.88-.77,2.47a4.67,4.67,0,0,0-.23.85,5.17,5.17,0,0,0,.33-.82l.88-2.43c.76-2.18,1.85-5.34,3.26-9.39l11.72-34.63c9.75-29.32,23.21-69.77,38.08-114.47s28.32-85.13,38.28-114.35c5-14.61,9.05-26.42,11.94-34.55,1.44-4.07,2.58-7.23,3.39-9.36a17.82,17.82,0,0,1,1.35-3.2,16.63,16.63,0,0,1-.86,3.36c-.65,2.18-1.66,5.38-3,9.48-2.64,8.22-6.56,20.08-11.47,34.71C301.27,103.81,287.46,144.15,272.13,188.68Z" style="fill:#ebebeb"></path><path d="M282.2,192.83,225.05,299.54,207.89,332c-2,3.82-3.53,6.79-4.59,8.85q-.77,1.49-1.17,2.31a6,6,0,0,0-.37.81,5.3,5.3,0,0,0,.47-.76c.3-.54.71-1.29,1.26-2.27,1.09-2,2.69-5,4.73-8.78,4.08-7.68,9.94-18.74,17.18-32.4,14.39-27.46,34.23-65.35,56.15-107.21s41.76-79.73,56.32-107.07c7.28-13.67,13.22-24.7,17.38-32.3,2.09-3.8,3.73-6.74,4.86-8.72a17.57,17.57,0,0,1,1.86-3,18.64,18.64,0,0,1-1.41,3.19c-1,2.05-2.5,5.05-4.47,8.9-3.94,7.71-9.73,18.83-16.95,32.52C324.7,113.47,304.54,151.2,282.2,192.83Z" style="fill:#ebebeb"></path><path d="M291.47,198.47c-28.74,37.77-54.75,71.94-73.61,96.71-9.34,12.41-16.91,22.45-22.16,29.42l-6,8-1.53,2.11a6.14,6.14,0,0,0-.49.74,5.23,5.23,0,0,0,.58-.68l1.61-2.05,6.09-7.95,22.18-29.4,72.7-97.36c28.35-38,54.07-72.41,72.85-97.19,9.39-12.4,17-22.4,22.37-29.27,2.67-3.43,4.76-6.09,6.2-7.87a17.31,17.31,0,0,1,2.31-2.64,18.5,18.5,0,0,1-1.9,2.93c-1.32,1.88-3.29,4.62-5.86,8.12-5.13,7-12.63,17.12-22,29.55C346.22,126.55,320.23,160.75,291.47,198.47Z" style="fill:#ebebeb"></path><path d="M299.73,205.45l-88.2,84.41-26.59,25.7-7.18,7-1.85,1.85a7.06,7.06,0,0,0-.6.66,6.1,6.1,0,0,0,.68-.58l1.92-1.78,7.29-6.93,26.61-25.69L299.21,205c34.09-33.28,65-63.36,87.52-85,11.25-10.83,20.4-19.55,26.78-25.53,3.18-3,5.67-5.3,7.38-6.84a18.8,18.8,0,0,1,2.7-2.26,17.87,17.87,0,0,1-2.34,2.61c-1.6,1.65-4,4.06-7.08,7.13-6.2,6.16-15.23,15-26.44,25.87C365.32,142.67,334.17,172.53,299.73,205.45Z" style="fill:#ebebeb"></path><path d="M306.76,213.59l-100.62,70L175.75,305l-8.22,5.87-2.12,1.55a6.84,6.84,0,0,0-.7.55,4.7,4.7,0,0,0,.77-.47l2.18-1.47L176,305.3,206.37,284l100-70.94c39-27.71,74.34-52.76,100.05-70.74,12.85-9,23.29-16.22,30.54-21.17,3.62-2.47,6.45-4.37,8.39-5.63a18.23,18.23,0,0,1,3-1.83,18.07,18.07,0,0,1-2.74,2.23c-1.84,1.39-4.58,3.4-8.13,6C430.37,127,420,134.35,407.23,143.4,381.61,161.49,346.06,186.28,306.76,213.59Z" style="fill:#ebebeb"></path><path d="M312.41,222.69,201.75,276.58l-33.45,16.5-9.06,4.55-2.34,1.21a4.25,4.25,0,0,0-.78.44,5.21,5.21,0,0,0,.83-.35l2.39-1.12,9.13-4.41,33.46-16.47,110.15-54.87c43-21.45,81.92-40.82,110.2-54.67,14.14-6.93,25.61-12.49,33.57-16.27,4-1.89,7.08-3.34,9.19-4.29a18,18,0,0,1,3.29-1.34,18.78,18.78,0,0,1-3.06,1.78c-2,1.09-5.07,2.67-9,4.67-7.84,4-19.23,9.71-33.34,16.69C394.71,182.61,355.62,201.69,312.41,222.69Z" style="fill:#ebebeb"></path><path d="M316.52,232.54l-118,36.3L162.81,280l-9.69,3.11-2.51.84a6.58,6.58,0,0,0-.84.32,4.83,4.83,0,0,0,.88-.21l2.54-.75,9.73-3,35.72-11.14,117.65-37.35C362.2,217.25,403.8,204.08,434,194.73c15.08-4.68,27.31-8.42,35.78-10.94,4.24-1.25,7.53-2.21,9.78-2.83a18.78,18.78,0,0,1,3.46-.82,18.23,18.23,0,0,1-3.3,1.29c-2.2.77-5.45,1.86-9.65,3.24-8.39,2.75-20.56,6.65-35.63,11.39C404.28,205.55,362.59,218.41,316.52,232.54Z" style="fill:#ebebeb"></path><path d="M319,242.9,196.56,260.71l-37.06,5.57-10.07,1.59-2.61.44a6,6,0,0,0-.89.19,5.51,5.51,0,0,0,.9-.08l2.63-.35,10.09-1.43,37.08-5.55L318.87,242.2c47.7-7.41,90.91-14,122.22-18.68,15.65-2.31,28.33-4.13,37.11-5.32,4.38-.6,7.79-1,10.11-1.3a20,20,0,0,1,3.55-.29,18,18,0,0,1-3.47.77c-2.3.43-5.68,1-10.05,1.72-8.73,1.44-21.39,3.42-37,5.8C410,229.66,366.76,236,319,242.9Z" style="fill:#ebebeb"></path><path d="M391,394.27a23,23,0,0,0-1.49,6.77,24.88,24.88,0,0,0,1.36,9.83,27.92,27.92,0,0,0,5.13,9,28.84,28.84,0,0,0,2.34,2.48,6.72,6.72,0,0,1,1.63,2.28l2.51,5.86,6.3-1a6.71,6.71,0,0,1,2.8.18,31.33,31.33,0,0,0,3.34.67,28.11,28.11,0,0,0,10.32-.39,25.07,25.07,0,0,0,9.06-4.06,22.83,22.83,0,0,0,4.95-4.86l3.35,2.82,3.26-15.67-14.59,6.16,3.44,2.88a18.78,18.78,0,0,1-11.31,7.4l-.12,0c-5,1.12-10.35-4.19-8.25-8.21l17.54-33.67L443,387.67l.88-1.6.89-1.6-8-5.14a9.67,9.67,0,1,0-9.18-5.09l-8.57-4-.89,1.6-.89,1.59,9.71,6.26-19.27,32.72c-2.3,3.9-9.63,2.19-11.33-2.66l0-.11a18.75,18.75,0,0,1,.28-13.51l4.27,1.38-2.5-15.63-11.57,11.06Zm50-22.11A5.26,5.26,0,1,1,439,365,5.29,5.29,0,0,1,441,372.16Z" style="fill:#e0e0e0"></path><path d="M378.23,147.29a37.3,37.3,0,0,1,19.39,12.29c-7,2.26-17.13,3.46-24.2,1.35a35.67,35.67,0,0,1-17.85-11.8A36.65,36.65,0,0,1,378.23,147.29Z" style="fill:#ebebeb"></path><path d="M386.58,156.26a7,7,0,0,0-1.14-.54c-.74-.32-1.83-.76-3.19-1.26a92.68,92.68,0,0,0-10.84-3.22,90.71,90.71,0,0,0-11.17-1.84c-1.44-.14-2.61-.22-3.42-.25a7,7,0,0,0-1.25,0,7,7,0,0,0,1.24.18c.81.08,2,.21,3.4.39a112.4,112.4,0,0,1,11.1,2c4.29,1,8.11,2.16,10.84,3.09l3.23,1.13A6.49,6.49,0,0,0,386.58,156.26Z" style="fill:#e0e0e0"></path><path d="M401.35,122.5a37.31,37.31,0,0,1,19.38,12.28c-7,2.27-17.13,3.46-24.2,1.35A37,37,0,0,1,378.44,124,37.28,37.28,0,0,1,401.35,122.5Z" style="fill:#ebebeb"></path><path d="M409.69,131.47a6.45,6.45,0,0,0-1.14-.54c-.74-.32-1.83-.76-3.19-1.26a90.29,90.29,0,0,0-22-5.06c-1.45-.14-2.61-.22-3.42-.26a7.6,7.6,0,0,0-1.26,0,7.28,7.28,0,0,0,1.24.18c.81.08,2,.21,3.4.39a112.53,112.53,0,0,1,11.11,2c4.29,1,8.1,2.16,10.84,3.09l3.22,1.13A6.49,6.49,0,0,0,409.69,131.47Z" style="fill:#e0e0e0"></path><path d="M392.51,94.15a37.36,37.36,0,0,0-9.88-20.72c-3.09,6.7-5.48,16.6-4.23,23.87a37,37,0,0,0,9.9,19.41A37.39,37.39,0,0,0,392.51,94.15Z" style="fill:#ebebeb"></path><path d="M384.6,84.79A7.26,7.26,0,0,1,385,86c.23.77.53,1.91.87,3.31a91.68,91.68,0,0,1,1.9,11.15,89.19,89.19,0,0,1,.49,11.31c0,1.45-.08,2.62-.15,3.42a6.56,6.56,0,0,1-.14,1.25,9.28,9.28,0,0,1,0-1.25c0-.81,0-2,0-3.42a109.82,109.82,0,0,0-2.39-22.39c-.3-1.41-.55-2.56-.74-3.34A7.09,7.09,0,0,1,384.6,84.79Z" style="fill:#e0e0e0"></path><path d="M368.1,116.76A37.38,37.38,0,0,0,358.21,96c-3.08,6.7-5.48,16.6-4.23,23.87a37,37,0,0,0,9.9,19.41A37.33,37.33,0,0,0,368.1,116.76Z" style="fill:#ebebeb"></path><path d="M360.19,107.4a9.93,9.93,0,0,1,.4,1.2c.23.77.53,1.9.87,3.31a90.23,90.23,0,0,1,2.39,22.46c0,1.44-.08,2.62-.15,3.42a6.73,6.73,0,0,1-.14,1.25,6.41,6.41,0,0,1,0-1.25c0-.81,0-2,0-3.43,0-2.88-.15-6.87-.61-11.25s-1.18-8.31-1.77-11.13c-.3-1.42-.56-2.56-.74-3.34A7.09,7.09,0,0,1,360.19,107.4Z" style="fill:#e0e0e0"></path><path d="M344.46,169.54a5.84,5.84,0,0,1,.36-.89l1.11-2.49c.25-.54.53-1.14.82-1.8s.69-1.34,1.07-2.08c.79-1.49,1.63-3.22,2.73-5,.54-.91,1.1-1.87,1.68-2.87s1.28-2,1.95-3c1.31-2.13,2.9-4.27,4.54-6.55A128,128,0,0,1,384.37,119c2.27-1.65,4.41-3.25,6.52-4.58,1.05-.68,2-1.37,3-2l2.86-1.7c1.81-1.12,3.53-2,5-2.76.74-.39,1.43-.77,2.08-1.09l1.79-.83,2.48-1.13a5.23,5.23,0,0,1,.88-.36,8.55,8.55,0,0,1-.83.46l-2.44,1.23-1.76.87c-.64.33-1.32.72-2.06,1.12-1.46.83-3.17,1.7-4.95,2.83l-2.84,1.72c-1,.61-2,1.31-3,2-2.1,1.34-4.21,2.95-6.46,4.61a131.94,131.94,0,0,0-25.56,25.72c-1.64,2.26-3.23,4.39-4.56,6.49-.68,1-1.37,2-2,3l-1.7,2.84c-1.13,1.8-2,3.51-2.8,5-.39.74-.78,1.42-1.11,2.06s-.6,1.24-.86,1.77l-1.21,2.45A6.56,6.56,0,0,1,344.46,169.54Z" style="fill:#e0e0e0"></path><path d="M415.87,93.6a37.3,37.3,0,0,1,22.79-2.71c-4,6.18-11.11,13.5-17.92,16.32a37,37,0,0,1-21.7,2A37.35,37.35,0,0,1,415.87,93.6Z" style="fill:#ebebeb"></path><path d="M428,95.29a6.87,6.87,0,0,0-1.22.3c-.78.21-1.9.56-3.27,1a90.55,90.55,0,0,0-20.26,10c-1.21.8-2.17,1.48-2.81,2a7.07,7.07,0,0,0-1,.79,7.62,7.62,0,0,0,1.08-.65c.67-.45,1.66-1.08,2.88-1.85,2.45-1.53,5.89-3.54,9.84-5.49s7.65-3.44,10.36-4.45c1.35-.5,2.46-.89,3.22-1.16A7.69,7.69,0,0,0,428,95.29Z" style="fill:#e0e0e0"></path><path d="M137.93,410.82a37.42,37.42,0,0,0,12.71,19.12c2.11-7.07,3.09-17.21.82-24.23a35.66,35.66,0,0,0-12.17-17.59A36.71,36.71,0,0,0,137.93,410.82Z" style="fill:#ebebeb"></path><path d="M147.08,419a8.78,8.78,0,0,1-.56-1.13c-.34-.73-.8-1.81-1.33-3.16a91.9,91.9,0,0,1-3.45-10.77,90.63,90.63,0,0,1-2.08-11.12c-.17-1.44-.28-2.61-.33-3.41a7.5,7.5,0,0,1,0-1.26,6.74,6.74,0,0,1,.2,1.24c.1.8.26,2,.47,3.39a110.57,110.57,0,0,0,2.19,11.06c1.08,4.26,2.33,8.05,3.32,10.77.49,1.35.91,2.45,1.2,3.2A6.64,6.64,0,0,1,147.08,419Z" style="fill:#e0e0e0"></path><path d="M113.65,434.46a37.3,37.3,0,0,0,12.7,19.12c2.11-7.07,3.09-17.21.83-24.22a37,37,0,0,0-12.53-17.83A37.3,37.3,0,0,0,113.65,434.46Z" style="fill:#ebebeb"></path><path d="M122.8,442.61a6.47,6.47,0,0,1-.56-1.12c-.35-.74-.8-1.82-1.33-3.16a90.68,90.68,0,0,1-3.46-10.78,92.22,92.22,0,0,1-2.08-11.12c-.17-1.44-.28-2.6-.33-3.41a7.5,7.5,0,0,1,0-1.26,7.45,7.45,0,0,1,.21,1.24c.09.8.25,2,.46,3.39.42,2.86,1.12,6.79,2.19,11.06a112.26,112.26,0,0,0,3.32,10.77c.5,1.36.91,2.45,1.21,3.2A7,7,0,0,1,122.8,442.61Z" style="fill:#e0e0e0"></path><path d="M85.12,426.24a37.28,37.28,0,0,1-20.93-9.43c6.63-3.23,16.48-5.84,23.77-4.75a37.08,37.08,0,0,1,19.62,9.48A37.23,37.23,0,0,1,85.12,426.24Z" style="fill:#ebebeb"></path><path d="M75.59,418.54a9.65,9.65,0,0,0,1.2.37c.78.22,1.92.49,3.34.8a90.44,90.44,0,0,0,22.5,1.91c1.45-.07,2.62-.15,3.42-.23a9.38,9.38,0,0,0,1.25-.16,6.79,6.79,0,0,0-1.26,0l-3.42.09c-2.89.05-6.88,0-11.27-.37s-8.33-1-11.16-1.53c-1.42-.27-2.57-.5-3.36-.67A7.15,7.15,0,0,0,75.59,418.54Z" style="fill:#e0e0e0"></path><path d="M107.19,401.35a37.36,37.36,0,0,1-20.92-9.44c6.63-3.23,16.47-5.84,23.77-4.74a36.93,36.93,0,0,1,19.62,9.48A37.4,37.4,0,0,1,107.19,401.35Z" style="fill:#ebebeb"></path><path d="M97.67,393.64a6.65,6.65,0,0,0,1.2.37c.78.22,1.92.5,3.33.8a90.44,90.44,0,0,0,22.5,1.91c1.45-.06,2.62-.14,3.43-.23a6.25,6.25,0,0,0,1.24-.16,6.7,6.7,0,0,0-1.25,0c-.81,0-2,.07-3.42.09-2.89.05-6.88,0-11.27-.37a110.8,110.8,0,0,1-11.17-1.53c-1.42-.27-2.56-.5-3.35-.67A7.31,7.31,0,0,0,97.67,393.64Z" style="fill:#e0e0e0"></path><path d="M159.45,376.58a5.63,5.63,0,0,0-.88.37l-2.47,1.17-1.77.86c-.65.33-1.33.71-2.07,1.11-1.47.82-3.18,1.7-5,2.84l-2.84,1.74c-1,.61-2,1.32-3,2-2.09,1.36-4.2,3-6.45,4.68a140.5,140.5,0,0,0-13.57,12.2,138.31,138.31,0,0,0-11.69,14c-1.6,2.3-3.16,4.47-4.44,6.61-.66,1.07-1.33,2.07-1.9,3.07l-1.64,2.91c-1.07,1.82-1.88,3.57-2.65,5.07-.37.75-.73,1.45-1,2.1l-.79,1.81-1.08,2.51a5.39,5.39,0,0,0-.34.89,6.65,6.65,0,0,0,.44-.85l1.18-2.46.83-1.78c.32-.65.7-1.33,1.08-2.08.79-1.48,1.62-3.21,2.72-5,.53-.92,1.09-1.87,1.66-2.87s1.26-2,1.92-3.05c1.3-2.12,2.86-4.27,4.47-6.56a131.86,131.86,0,0,1,25.16-26.1c2.23-1.69,4.32-3.33,6.4-4.7,1-.7,2-1.41,3-2l2.81-1.77c1.76-1.16,3.46-2.06,4.91-2.9.73-.41,1.41-.81,2-1.15l1.75-.9,2.42-1.27A8.49,8.49,0,0,0,159.45,376.58Z" style="fill:#e0e0e0"></path><path d="M85.07,449.6a37.41,37.41,0,0,0-2.22,22.85c6.1-4.15,13.26-11.39,15.94-18.26a37.13,37.13,0,0,0,1.53-21.74A37.35,37.35,0,0,0,85.07,449.6Z" style="fill:#ebebeb"></path><path d="M87,461.7a7.08,7.08,0,0,1,.27-1.23c.2-.78.53-1.91,1-3.29a90.21,90.21,0,0,1,9.53-20.47c.77-1.22,1.42-2.2,1.9-2.86a8.59,8.59,0,0,1,.76-1,6.92,6.92,0,0,1-.63,1.09c-.43.69-1,1.69-1.78,2.93-1.48,2.47-3.41,6-5.28,10s-3.27,7.72-4.22,10.45c-.47,1.36-.84,2.47-1.09,3.24A6.7,6.7,0,0,1,87,461.7Z" style="fill:#e0e0e0"></path><path d="M118.22,350.08a37.3,37.3,0,0,0-7.34,21.75c6.88-2.66,15.49-8.1,19.66-14.18a35.81,35.81,0,0,0,6.46-20.4A36.63,36.63,0,0,0,118.22,350.08Z" style="fill:#ebebeb"></path><path d="M117.37,362.3a7.62,7.62,0,0,1,.55-1.13c.37-.72,1-1.74,1.69-3a89.81,89.81,0,0,1,6.4-9.32,91.47,91.47,0,0,1,7.52-8.46c1-1,1.89-1.82,2.5-2.35a6.46,6.46,0,0,1,1-.8,7.36,7.36,0,0,1-.86.92c-.58.57-1.4,1.4-2.4,2.44-2,2.08-4.68,5-7.4,8.51a111.4,111.4,0,0,0-6.48,9.22c-.77,1.22-1.38,2.21-1.8,2.91A6.33,6.33,0,0,1,117.37,362.3Z" style="fill:#e0e0e0"></path><path d="M84.65,345.35a37.39,37.39,0,0,0-7.33,21.75C84.2,364.44,92.81,359,97,352.92a37.07,37.07,0,0,0,6.42-20.82A37.34,37.34,0,0,0,84.65,345.35Z" style="fill:#ebebeb"></path><path d="M83.81,357.57a8.24,8.24,0,0,1,.55-1.13c.37-.72.94-1.74,1.68-3A90.73,90.73,0,0,1,100,335.68c1-1,1.88-1.82,2.49-2.36a8.3,8.3,0,0,1,1-.8,6.7,6.7,0,0,1-.85.92c-.58.57-1.4,1.4-2.4,2.44-2,2.08-4.68,5-7.4,8.51a112.36,112.36,0,0,0-6.48,9.22c-.77,1.22-1.38,2.22-1.8,2.91A6.33,6.33,0,0,1,83.81,357.57Z" style="fill:#e0e0e0"></path><path d="M73.68,317.76a37.39,37.39,0,0,1-5.34-22.32c6.61,3.26,14.7,9.45,18.3,15.89a37,37,0,0,1,4.52,21.31A37.32,37.32,0,0,1,73.68,317.76Z" style="fill:#ebebeb"></path><path d="M74,305.51a6.76,6.76,0,0,0,.44,1.18c.3.75.78,1.82,1.41,3.12a90.46,90.46,0,0,0,12.26,19c.94,1.11,1.72,2,2.28,2.57a8.26,8.26,0,0,0,.89.89,6.64,6.64,0,0,0-.77-1c-.52-.62-1.26-1.52-2.17-2.65-1.8-2.25-4.2-5.44-6.6-9.13s-4.31-7.2-5.63-9.77c-.65-1.28-1.17-2.33-1.52-3.06A8.57,8.57,0,0,0,74,305.51Z" style="fill:#e0e0e0"></path><path d="M106.88,320a37.39,37.39,0,0,1-5.34-22.32c6.61,3.26,14.7,9.45,18.3,15.89a37,37,0,0,1,4.52,21.32A37.4,37.4,0,0,1,106.88,320Z" style="fill:#ebebeb"></path><path d="M107.15,307.72a6.76,6.76,0,0,0,.44,1.18c.3.75.78,1.82,1.41,3.13a92,92,0,0,0,5.54,9.86,89.3,89.3,0,0,0,6.73,9.1c.93,1.1,1.71,2,2.27,2.56a7.2,7.2,0,0,0,.89.89,7.33,7.33,0,0,0-.77-1c-.52-.61-1.26-1.52-2.17-2.64-1.8-2.25-4.2-5.44-6.6-9.14a112.52,112.52,0,0,1-5.62-9.77c-.66-1.28-1.18-2.33-1.53-3.06A9.58,9.58,0,0,0,107.15,307.72Z" style="fill:#e0e0e0"></path><path d="M158.46,346.12a5.21,5.21,0,0,0-.83-.46l-2.43-1.24-1.77-.88c-.65-.3-1.38-.61-2.15-1-1.55-.66-3.29-1.48-5.29-2.19l-3.11-1.18c-1.09-.4-2.24-.74-3.43-1.14-2.35-.82-4.94-1.49-7.64-2.23a139.48,139.48,0,0,0-18-3.27,138.94,138.94,0,0,0-18.24-.66c-2.81.14-5.47.24-8,.53-1.24.14-2.45.22-3.59.38l-3.3.49c-2.1.26-4,.69-5.63,1-.83.17-1.6.31-2.3.47l-1.92.48-2.64.68a5,5,0,0,0-.91.28,5.91,5.91,0,0,0,.94-.17l2.66-.58,1.92-.43c.71-.14,1.48-.26,2.31-.42,1.66-.28,3.53-.68,5.63-.92l3.29-.44c1.14-.15,2.34-.23,3.58-.35,2.47-.27,5.13-.35,7.92-.49a145.43,145.43,0,0,1,18.16.72,143.89,143.89,0,0,1,17.89,3.2c2.7.73,5.28,1.38,7.63,2.18,1.18.38,2.34.71,3.43,1.1l3.11,1.14c2,.69,3.75,1.48,5.31,2.11.77.33,1.5.62,2.16.91l1.78.83,2.48,1.14A6.06,6.06,0,0,0,158.46,346.12Z" style="fill:#e0e0e0"></path><path d="M55.18,332a37.43,37.43,0,0,0-19.42,12.24c7,2.28,17.13,3.5,24.2,1.41a37,37,0,0,0,18.12-12.09A37.32,37.32,0,0,0,55.18,332Z" style="fill:#ebebeb"></path><path d="M46.81,341a7.65,7.65,0,0,1,1.14-.53c.75-.33,1.84-.76,3.2-1.26A91.84,91.84,0,0,1,62,336a89.57,89.57,0,0,1,11.17-1.81c1.44-.14,2.61-.22,3.42-.25a7.64,7.64,0,0,1,1.26,0,7.07,7.07,0,0,1-1.25.17c-.8.08-2,.21-3.4.38a111.67,111.67,0,0,0-11.11,1.93,109.79,109.79,0,0,0-10.85,3.06c-1.36.46-2.47.84-3.23,1.12A6.56,6.56,0,0,1,46.81,341Z" style="fill:#e0e0e0"></path><path d="M380.44,191a37.37,37.37,0,0,0,1.26-22.92c-5.92,4.39-12.77,11.94-15.15,18.91a35.67,35.67,0,0,0-.77,21.39A36.72,36.72,0,0,0,380.44,191Z" style="fill:#ebebeb"></path><path d="M378,179a9.21,9.21,0,0,1-.23,1.24c-.16.79-.44,1.93-.82,3.33a92.58,92.58,0,0,1-3.68,10.7,90.22,90.22,0,0,1-5,10.15c-.72,1.26-1.33,2.26-1.77,2.93a10.46,10.46,0,0,1-.72,1,6,6,0,0,1,.58-1.12c.4-.7,1-1.72,1.65-3a110.74,110.74,0,0,0,4.86-10.18,112,112,0,0,0,3.78-10.61c.42-1.39.74-2.51,1-3.29A6.82,6.82,0,0,1,378,179Z" style="fill:#e0e0e0"></path><path d="M414.05,186.58a37.29,37.29,0,0,0,1.25-22.92c-5.92,4.4-12.76,11.94-15.15,18.92a36.94,36.94,0,0,0-.62,21.78A37.41,37.41,0,0,0,414.05,186.58Z" style="fill:#ebebeb"></path><path d="M411.59,174.58a6.88,6.88,0,0,1-.22,1.23c-.17.8-.45,1.94-.83,3.33a90.09,90.09,0,0,1-3.68,10.7,92.41,92.41,0,0,1-5,10.16c-.73,1.25-1.33,2.25-1.78,2.93a7.09,7.09,0,0,1-.72,1,8,8,0,0,1,.58-1.12c.4-.7,1-1.72,1.66-3,1.37-2.54,3.16-6.11,4.85-10.17a112.54,112.54,0,0,0,3.79-10.62c.41-1.38.73-2.51.95-3.29A7.12,7.12,0,0,1,411.59,174.58Z" style="fill:#e0e0e0"></path><path d="M432,210.24a37.31,37.31,0,0,1,11.12,20.07c-7.24-1.37-16.69-5.18-21.88-10.41a37,37,0,0,1-10.05-19.34A37.28,37.28,0,0,1,432,210.24Z" style="fill:#ebebeb"></path><path d="M435,222.11a6.26,6.26,0,0,0-.74-1c-.49-.64-1.24-1.54-2.19-2.63a90.85,90.85,0,0,0-8-8,89.38,89.38,0,0,0-8.92-7c-1.2-.82-2.18-1.45-2.88-1.87a6.55,6.55,0,0,0-1.09-.61,7,7,0,0,0,1,.75c.66.45,1.62,1.13,2.79,2,2.34,1.68,5.51,4.12,8.81,7a111.11,111.11,0,0,1,8,7.91c1,1.06,1.76,1.93,2.29,2.54A7.31,7.31,0,0,0,435,222.11Z" style="fill:#e0e0e0"></path><path d="M399.41,217a37.36,37.36,0,0,1,11.12,20.08c-7.24-1.38-16.69-5.18-21.88-10.42a37,37,0,0,1-10.06-19.34A37.41,37.41,0,0,1,399.41,217Z" style="fill:#ebebeb"></path><path d="M402.43,228.85a7.18,7.18,0,0,0-.74-1c-.49-.64-1.24-1.54-2.19-2.63a88.53,88.53,0,0,0-8-8,90.89,90.89,0,0,0-8.91-7c-1.2-.82-2.18-1.45-2.88-1.87a5.94,5.94,0,0,0-1.1-.61,8.84,8.84,0,0,0,1,.75c.67.46,1.63,1.13,2.8,2,2.34,1.69,5.51,4.12,8.8,7s6.08,5.78,8,7.91c1,1.06,1.76,1.93,2.29,2.54A7.74,7.74,0,0,0,402.43,228.85Z" style="fill:#e0e0e0"></path><path d="M342.72,205.57a8.14,8.14,0,0,0,.92.22l2.68.54,1.94.37c.71.13,1.49.22,2.32.35,1.67.22,3.57.54,5.68.7l3.32.3c1.15.1,2.36.12,3.6.18,2.5.16,5.16.12,8,.11a139.54,139.54,0,0,0,18.17-1.65,141.62,141.62,0,0,0,17.75-4.23c2.67-.89,5.21-1.7,7.52-2.65,1.16-.46,2.3-.86,3.36-1.32l3-1.35c2-.82,3.65-1.73,5.16-2.48.75-.38,1.46-.72,2.1-1.06l1.71-1,2.37-1.36a5.33,5.33,0,0,0,.8-.51,9.18,9.18,0,0,0-.86.41l-2.41,1.27-1.74.93c-.64.33-1.35.65-2.11,1-1.52.72-3.22,1.6-5.18,2.4l-3.05,1.3c-1.06.46-2.2.85-3.36,1.29-2.31.93-4.85,1.72-7.5,2.59a145.35,145.35,0,0,1-17.69,4.17,144.2,144.2,0,0,1-18.09,1.69c-2.8,0-5.45.09-7.94,0-1.24-.06-2.44-.07-3.59-.15l-3.31-.27c-2.11-.13-4-.42-5.68-.62-.83-.1-1.61-.19-2.32-.29l-1.94-.33-2.69-.43A6.09,6.09,0,0,0,342.72,205.57Z" style="fill:#e0e0e0"></path><path d="M446,191.55a37.3,37.3,0,0,0,15.44-17c-7.37-.32-17.44,1.2-23.69,5.11a37,37,0,0,0-14.24,16.5A37.37,37.37,0,0,0,446,191.55Z" style="fill:#ebebeb"></path><path d="M451.68,180.68a5.9,5.9,0,0,1-.95.82c-.63.51-1.57,1.22-2.75,2.06a90.61,90.61,0,0,1-9.6,6,93.49,93.49,0,0,1-10.28,4.73c-1.35.51-2.46.91-3.23,1.15a8.47,8.47,0,0,1-1.21.35,6.27,6.27,0,0,1,1.15-.5c.76-.29,1.84-.73,3.18-1.28,2.67-1.1,6.31-2.74,10.19-4.82s7.25-4.23,9.63-5.85c1.2-.81,2.16-1.48,2.82-1.95A8.2,8.2,0,0,1,451.68,180.68Z" style="fill:#e0e0e0"></path><path d="M102,161.34a32.11,32.11,0,0,0,8.23,5.4A35.34,35.34,0,0,0,124,169.9a39.8,39.8,0,0,0,14.49-2.29,43.44,43.44,0,0,0,4.47-1.86,9.71,9.71,0,0,1,3.85-1l9-.38,1.88-8.85a9.94,9.94,0,0,1,1.64-3.63,41.44,41.44,0,0,0,2.59-4.09,39.85,39.85,0,0,0,4.68-13.9,35.43,35.43,0,0,0-.82-14.06,32.42,32.42,0,0,0-3.94-9l5.42-3L148.12,95.55,149,118l5.55-3.1a26.6,26.6,0,0,1,4.12,18.74l0,.17c-1,7.22-10.78,11.62-15,6.82L107.7,100.37,119.5,89l-1.68-2-1.67-2-10.84,8a13.73,13.73,0,1,0-11.39,9.62L84.24,112l1.68,2,1.67,2,13.2-9.72,33.71,42.07c4,5-2,13.88-9.24,13.7h-.18a26.64,26.64,0,0,1-17.78-7.2l4-5-22-4.57,8.84,20.93ZM97.9,83.84A7.47,7.47,0,1,1,87.37,83,7.49,7.49,0,0,1,97.9,83.84Z" style="fill:#e0e0e0"></path></g><g id="freepik--Texts--inject-229"><path d="M274.1,64c-47-3.18-83.93,7.68-108.8,19l15.88,34.57c18.37-7.8,44.81-16.74,79.19-17.25a155.69,155.69,0,0,1,72.19,16.39l19.82-30.18C333.46,75.8,307.69,66.27,274.1,64Z" style="fill:#B01700"></path><path d="M208,96.69l-8.35,2.52-.39,4.31-5.7,1.72,2.75-22.39,5.5-1.66L216.5,98.3l-5.81,1.75Zm-2.88-3.63-4.45-5.55L200,94.6Z" style="fill:#fff"></path><path d="M235.83,88.78c.69,3.5-1.8,6.12-7.23,7.19l-10.93,2.16-4-20.23L224,75.85c5.32-1,8.35.6,9,3.73a4.88,4.88,0,0,1-1.85,4.93A5.22,5.22,0,0,1,235.83,88.78Zm-15.68-7.87.77,3.9,3.94-.77c1.9-.38,2.76-1.24,2.5-2.54s-1.37-1.74-3.27-1.36Zm9.77,8.37c-.28-1.38-1.45-1.84-3.41-1.45l-4.8.94.81,4.11,4.8-.95C229.28,91.54,230.19,90.67,229.92,89.28Z" style="fill:#fff"></path><path d="M237.49,83.74c-.49-6.17,4-11.07,10.59-11.59s11.78,3.63,12.27,9.8-4,11.08-10.6,11.59S238,89.91,237.49,83.74Zm17-1.33a5.53,5.53,0,0,0-6-5.44c-3.12.24-5.37,2.76-5.1,6.31a5.58,5.58,0,1,0,11.11-.87Z" style="fill:#fff"></path><path d="M277.28,89.32l-8.7-.63-1.91,3.89-5.93-.43L271.3,72.22l5.73.42,7.64,21.23-6.06-.43Zm-1.4-4.41-2.17-6.78-3.12,6.39Z" style="fill:#fff"></path><path d="M295.62,90.44l-3.13-.57-1,5.39-5.74-1.05,3.71-20.29,9.28,1.7c5.54,1,8.49,4.52,7.64,9.15a6.84,6.84,0,0,1-5.14,5.68l3.21,7.18-6.15-1.12Zm1.95-10.36-3.19-.59-1.08,6,3.19.58c2.37.43,3.76-.45,4.1-2.31S300,80.51,297.57,80.08Z" style="fill:#fff"></path><path d="M312.51,78.37l9.36,2.77c6.55,1.94,9.92,7.08,8.12,13.15s-7.41,8.57-14,6.63l-9.35-2.77Zm4.6,18c3.37,1,6.22-.35,7.23-3.77s-.66-6.09-4-7.08l-3.53-1.05-3.21,10.85Z" style="fill:#fff"></path><path d="M221.23,45.9l-1.51,14.51-4.12.87-4.35-7.71-1,8.84-4.11.87L198.9,50.64l4-.84,4.57,8.09,1-9.28,3.53-.75L216.58,56l1-9.35Z" style="fill:#263238"></path><path d="M235.92,54.88l.43,3-11,1.58-2-13.74,10.78-1.55.43,3-6.93,1,.33,2.32,6.1-.88.42,2.91-6.11.87.36,2.52Z" style="fill:#263238"></path><path d="M237.11,43.85,241,43.5,242,54.22l6.6-.58.27,3.1-10.5.93Z" style="fill:#263238"></path><path d="M249.12,49.72c-.06-4.22,3.13-7.26,7.53-7.32a7.34,7.34,0,0,1,6,2.54l-2.46,2.29a4.11,4.11,0,0,0-3.3-1.58,3.72,3.72,0,0,0-3.81,4A3.72,3.72,0,0,0,257,53.58a4.12,4.12,0,0,0,3.25-1.67l2.53,2.22a7.32,7.32,0,0,1-5.93,2.7C252.45,56.89,249.17,53.94,249.12,49.72Z" style="fill:#263238"></path><path d="M263.82,49.62c.37-4.15,3.9-6.9,8.32-6.51s7.41,3.72,7,7.87-3.89,6.9-8.32,6.51S263.45,53.77,263.82,49.62Zm11.41,1a3.75,3.75,0,1,0-4.08,3.62A3.71,3.71,0,0,0,275.23,50.63Z" style="fill:#263238"></path><path d="M292.76,60.15l1.15-7.26-4.49,5.33-1.72-.28-2.56-6.29L284,58.71l-3.58-.59,2.24-13.68,3.19.52,3.52,8.69,6-7.13,3.18.52-2.2,13.7Z" style="fill:#263238"></path><path d="M310.34,60.89l-.69,3L298.8,61.32l3.14-13.52,10.6,2.46-.68,3L305,51.64l-.53,2.27,6,1.4-.67,2.86-6-1.4-.58,2.47Z" style="fill:#263238"></path></g><g id="freepik--Character--inject-229"><path d="M155.71,409.79c10.76,8.81,21.66,17.61,33.76,24.55a107.76,107.76,0,0,0,41.59,13.94c15.38,1.74,31.15.1,46.1-3.79a203.87,203.87,0,0,0,20.83-7c6.71-2.56,13.38-5.19,20-8,14-6,28.18-13,39.5-23.45,3.08-2.83-1.52-7.41-4.58-4.58-9.58,8.82-21.49,14.94-33.27,20.27-6.24,2.82-12.59,5.38-19,7.85s-13,5.1-19.66,7.13a126.94,126.94,0,0,1-44,5.63A97.9,97.9,0,0,1,196.89,431c-13.29-7-25-16.34-36.6-25.82a3.34,3.34,0,0,0-4.58,0,3.27,3.27,0,0,0,0,4.59Z" style="fill:#ae7461"></path><path d="M176.54,418a14.17,14.17,0,0,0-2.58,2.12,14.46,14.46,0,0,0-1.57,2.94c-.06,0-.1-.4,0-1a5.71,5.71,0,0,1,3.1-3.79C176.12,418,176.52,417.92,176.54,418Z" style="fill:#6f4439"></path><path d="M172,414.48a14.12,14.12,0,0,0-2.57,2.13,13.63,13.63,0,0,0-1.57,2.94c-.07,0-.11-.41,0-1a5.65,5.65,0,0,1,3.1-3.79C171.53,414.46,171.93,414.42,172,414.48Z" style="fill:#6f4439"></path><path d="M180.63,420.79a14.17,14.17,0,0,0-2.58,2.12,14.39,14.39,0,0,0-1.57,2.95c-.07,0-.11-.41,0-1a5.61,5.61,0,0,1,1.12-2.25,5.45,5.45,0,0,1,2-1.54C180.2,420.76,180.61,420.73,180.63,420.79Z" style="fill:#6f4439"></path><path d="M184.71,423.59a14.12,14.12,0,0,0-2.57,2.13,13.89,13.89,0,0,0-1.57,2.94c-.07,0-.11-.41,0-1a5.48,5.48,0,0,1,1.12-2.25,5.56,5.56,0,0,1,2-1.54C184.29,423.57,184.69,423.53,184.71,423.59Z" style="fill:#6f4439"></path><path d="M188.8,426.4a8.59,8.59,0,0,0-4.14,5.06c-.07,0-.11-.4,0-1a5.45,5.45,0,0,1,1.12-2.24,5.6,5.6,0,0,1,2-1.55C188.38,426.37,188.78,426.33,188.8,426.4Z" style="fill:#6f4439"></path><path d="M193,428.82a14.16,14.16,0,0,0-2.46,2.26,13.81,13.81,0,0,0-1.41,3c-.07,0-.13-.41,0-1a5.68,5.68,0,0,1,2.9-4C192.53,428.82,192.93,428.76,193,428.82Z" style="fill:#6f4439"></path><path d="M197.52,431.3a13.91,13.91,0,0,0-2.24,2.47,13.51,13.51,0,0,0-1.12,3.15c-.07,0-.17-.39-.13-1a5.72,5.72,0,0,1,.78-2.39,5.61,5.61,0,0,1,1.74-1.81C197.1,431.33,197.49,431.24,197.52,431.3Z" style="fill:#6f4439"></path><path d="M201.65,433.39a15.07,15.07,0,0,0-1.81,2.8,14.28,14.28,0,0,0-.61,3.29c-.07,0-.23-.36-.28-1a5.56,5.56,0,0,1,1.81-4.54C201.24,433.5,201.62,433.34,201.65,433.39Z" style="fill:#6f4439"></path><path d="M206.16,435.22a8.68,8.68,0,0,0-2,6.24c-.06,0-.25-.34-.35-1A5.68,5.68,0,0,1,204,438a5.48,5.48,0,0,1,1.27-2.16C205.76,435.36,206.12,435.17,206.16,435.22Z" style="fill:#6f4439"></path><path d="M211.36,437.22a14.09,14.09,0,0,0-1.62,2.92,14.28,14.28,0,0,0-.38,3.32c-.06,0-.25-.34-.35-1a5.5,5.5,0,0,1,.21-2.5,5.73,5.73,0,0,1,1.28-2.17C211,437.35,211.32,437.17,211.36,437.22Z" style="fill:#6f4439"></path><path d="M217.06,439a13.8,13.8,0,0,0-1.61,2.92,14.18,14.18,0,0,0-.38,3.31c-.07,0-.25-.34-.36-1a5.68,5.68,0,0,1,.22-2.5,5.52,5.52,0,0,1,1.28-2.16C216.66,439.17,217,439,217.06,439Z" style="fill:#6f4439"></path><path d="M222.66,440.34a14.09,14.09,0,0,0-1.62,2.92,14.24,14.24,0,0,0-.38,3.32c-.06,0-.25-.34-.35-1a5.49,5.49,0,0,1,.21-2.5,5.73,5.73,0,0,1,1.28-2.17C222.25,440.47,222.61,440.29,222.66,440.34Z" style="fill:#6f4439"></path><path d="M227.54,441.12a13.71,13.71,0,0,0-1.37,3,14.2,14.2,0,0,0-.11,3.34c-.06,0-.28-.32-.43-.95a5.68,5.68,0,0,1,1.1-4.77C227.15,441.28,227.49,441.07,227.54,441.12Z" style="fill:#6f4439"></path><path d="M232.71,442a8.58,8.58,0,0,0-.22,6.55c-.06,0-.33-.26-.61-.85a5.66,5.66,0,0,1,.17-4.89C232.36,442.24,232.66,442,232.71,442Z" style="fill:#6f4439"></path><path d="M238.15,442.41a8.58,8.58,0,0,0-.22,6.55c-.06,0-.34-.26-.61-.85a5.64,5.64,0,0,1-.47-2.46,5.38,5.38,0,0,1,.64-2.43C237.8,442.65,238.09,442.37,238.15,442.41Z" style="fill:#6f4439"></path><path d="M244.48,442.42a13.38,13.38,0,0,0-.46,3.3,13.24,13.24,0,0,0,.85,3.23c-.06,0-.36-.22-.69-.78a5.69,5.69,0,0,1-.7-2.41,5.52,5.52,0,0,1,.41-2.48C244.15,442.69,244.42,442.38,244.48,442.42Z" style="fill:#6f4439"></path><path d="M250.26,442.23a8.5,8.5,0,0,0,.39,6.54c-.06,0-.36-.23-.69-.79a5.6,5.6,0,0,1-.7-2.41,5.5,5.5,0,0,1,.41-2.47C249.93,442.5,250.2,442.2,250.26,442.23Z" style="fill:#6f4439"></path><path d="M255.93,441.78a8.67,8.67,0,0,0,.91,6.48c0,.05-.37-.2-.74-.73a5.68,5.68,0,0,1-.68-4.85C255.63,442.07,255.87,441.75,255.93,441.78Z" style="fill:#6f4439"></path><path d="M261.62,441.07a8.67,8.67,0,0,0,.91,6.48c0,.05-.37-.2-.74-.73a5.68,5.68,0,0,1-.68-4.85C261.32,441.36,261.56,441,261.62,441.07Z" style="fill:#6f4439"></path><path d="M267.85,440.13a8.54,8.54,0,0,0,1.26,6.42c-.05.05-.38-.18-.78-.69a5.42,5.42,0,0,1-1-2.29,5.53,5.53,0,0,1,.08-2.51C267.56,440.44,267.79,440.1,267.85,440.13Z" style="fill:#6f4439"></path><path d="M273.55,438.57a14.22,14.22,0,0,0,0,3.33,14,14,0,0,0,1.26,3.09c0,.05-.38-.18-.78-.69a5.61,5.61,0,0,1-1-2.29,5.53,5.53,0,0,1,.08-2.51C273.26,438.87,273.49,438.54,273.55,438.57Z" style="fill:#6f4439"></path><path d="M279.05,437.13a13.51,13.51,0,0,0,.28,3.33,14.74,14.74,0,0,0,1.52,3c0,.05-.4-.15-.84-.62a5.67,5.67,0,0,1-1.35-4.71C278.79,437.47,279,437.11,279.05,437.13Z" style="fill:#6f4439"></path><path d="M284.41,435.48a14.07,14.07,0,0,0,.28,3.32,13.34,13.34,0,0,0,1.53,3c-.05.05-.4-.14-.84-.62a5.66,5.66,0,0,1-1.35-4.7C284.15,435.81,284.35,435.46,284.41,435.48Z" style="fill:#6f4439"></path><path d="M289.78,433.66a13.53,13.53,0,0,0,.28,3.33,14.17,14.17,0,0,0,1.52,3c0,.05-.4-.14-.84-.61a5.67,5.67,0,0,1-1.35-4.71C289.52,434,289.71,433.64,289.78,433.66Z" style="fill:#6f4439"></path><path d="M295,431.76a14.11,14.11,0,0,0,.28,3.33,13.93,13.93,0,0,0,1.53,3c-.05.05-.4-.15-.84-.62a5.67,5.67,0,0,1-1.35-4.71C294.72,432.1,294.92,431.74,295,431.76Z" style="fill:#6f4439"></path><path d="M300.51,429.53a13.79,13.79,0,0,0,.27,3.33,15.07,15.07,0,0,0,1.53,3c0,.05-.4-.15-.84-.62a5.67,5.67,0,0,1-1.35-4.71C300.24,429.87,300.44,429.51,300.51,429.53Z" style="fill:#6f4439"></path><path d="M306.38,427.3a14,14,0,0,0,.51,3.3,13.72,13.72,0,0,0,1.74,2.85c0,.06-.41-.11-.88-.55a5.63,5.63,0,0,1-1.37-2.11,5.56,5.56,0,0,1-.32-2.49C306.14,427.65,306.31,427.29,306.38,427.3Z" style="fill:#6f4439"></path><path d="M312.84,424.51a14.38,14.38,0,0,0,.52,3.3,13.72,13.72,0,0,0,1.74,2.85s-.41-.11-.88-.56a5.39,5.39,0,0,1-1.37-2.1,5.58,5.58,0,0,1-.32-2.49C312.61,424.86,312.78,424.5,312.84,424.51Z" style="fill:#6f4439"></path><path d="M319.22,421.9a8.63,8.63,0,0,0,2.25,6.15c0,.05-.4-.11-.88-.56a5.49,5.49,0,0,1-1.36-2.1,5.58,5.58,0,0,1-.32-2.49C319,422.25,319.16,421.89,319.22,421.9Z" style="fill:#6f4439"></path><path d="M325.6,418.83a14.4,14.4,0,0,0,.52,3.29,14.74,14.74,0,0,0,1.73,2.86s-.4-.12-.88-.56a5.69,5.69,0,0,1-1.68-4.6C325.37,419.18,325.54,418.81,325.6,418.83Z" style="fill:#6f4439"></path><path d="M331.29,416.1a8.63,8.63,0,0,0,2.25,6.15c0,.06-.4-.11-.88-.55a5.69,5.69,0,0,1-1.68-4.6C331.06,416.45,331.23,416.09,331.29,416.1Z" style="fill:#6f4439"></path><path d="M337,413a14.45,14.45,0,0,0,.52,3.3,14.06,14.06,0,0,0,1.74,2.85c0,.05-.41-.12-.88-.56a5.43,5.43,0,0,1-1.37-2.11,5.55,5.55,0,0,1-.32-2.49C336.75,413.38,336.92,413,337,413Z" style="fill:#6f4439"></path><path d="M121.27,174.45c-9.4,12.18-18.78,24.5-26.06,38.09a119.09,119.09,0,0,0-14.11,46.4c-1.43,17.05.88,34.43,5.65,50.82a221.11,221.11,0,0,0,8.42,22.81c3,7.32,6.15,14.61,9.48,21.8,7.1,15.31,15.28,30.74,27.16,42.92,3.23,3.31,8.14-1.91,4.92-5.21-10-10.31-17.19-23.27-23.45-36.13-3.31-6.8-6.34-13.74-9.27-20.71S98,321,95.51,313.74a140.43,140.43,0,0,1-7.61-48.46,108.31,108.31,0,0,1,11.2-44.65c7.29-14.9,17.28-28.18,27.38-41.26a3.69,3.69,0,0,0-.14-5.06c-1.3-1.23-3.88-1.39-5.07.14Z" style="fill:#ae7461"></path><path d="M112.87,197.73a14,14,0,0,0-2.41-2.8,14,14,0,0,0-3.32-1.62c0-.06.44-.12,1.14,0a6.27,6.27,0,0,1,2.51,1.17,6.34,6.34,0,0,1,1.77,2.13C112.87,197.27,112.93,197.71,112.87,197.73Z" style="fill:#6f4439"></path><path d="M116.59,192.56a13.05,13.05,0,0,0-2.41-2.8,13.9,13.9,0,0,0-3.32-1.63c0-.06.45-.11,1.15,0a6.3,6.3,0,0,1,4.27,3.29C116.59,192.1,116.66,192.54,116.59,192.56Z" style="fill:#6f4439"></path><path d="M109.9,202.34a14,14,0,0,0-2.41-2.8,14,14,0,0,0-3.32-1.62c0-.07.44-.12,1.14,0a6.14,6.14,0,0,1,2.51,1.17,6.23,6.23,0,0,1,1.77,2.13C109.9,201.88,110,202.32,109.9,202.34Z" style="fill:#6f4439"></path><path d="M106.93,206.94a14,14,0,0,0-2.41-2.8,14,14,0,0,0-3.32-1.62c0-.06.44-.11,1.14,0a6.41,6.41,0,0,1,2.51,1.17,6.23,6.23,0,0,1,1.77,2.13C106.93,206.48,107,206.92,106.93,206.94Z" style="fill:#6f4439"></path><path d="M104,211.55a14,14,0,0,0-2.41-2.8,14,14,0,0,0-3.32-1.62c0-.07.44-.12,1.14,0a6.14,6.14,0,0,1,2.51,1.17,6.23,6.23,0,0,1,1.77,2.13C104,211.09,104,211.53,104,211.55Z" style="fill:#6f4439"></path><path d="M101.41,216.22a14.08,14.08,0,0,0-2.56-2.67,13.91,13.91,0,0,0-3.4-1.44c0-.07.44-.14,1.14,0a6.22,6.22,0,0,1,2.57,1,6.32,6.32,0,0,1,1.88,2C101.38,215.76,101.47,216.19,101.41,216.22Z" style="fill:#6f4439"></path><path d="M98.82,221.34a13.68,13.68,0,0,0-2.8-2.42,13.3,13.3,0,0,0-3.52-1.12c0-.07.43-.18,1.14-.15a6.31,6.31,0,0,1,4.71,2.64C98.75,220.88,98.88,221.31,98.82,221.34Z" style="fill:#6f4439"></path><path d="M96.63,226A14.18,14.18,0,0,0,93.49,224a13.43,13.43,0,0,0-3.66-.54c0-.07.39-.25,1.1-.33A6.32,6.32,0,0,1,96,225C96.49,225.53,96.68,225.93,96.63,226Z" style="fill:#6f4439"></path><path d="M94.75,231a13.85,13.85,0,0,0-3.27-1.72A13.88,13.88,0,0,0,87.8,229c0-.06.37-.27,1.07-.4a6.35,6.35,0,0,1,5.19,1.5C94.58,230.58,94.8,231,94.75,231Z" style="fill:#6f4439"></path><path d="M92.71,236.82a13.68,13.68,0,0,0-3.27-1.72,13.94,13.94,0,0,0-3.69-.29c0-.06.37-.27,1.08-.4a6.13,6.13,0,0,1,2.76.17A6,6,0,0,1,92,235.91C92.54,236.39,92.76,236.77,92.71,236.82Z" style="fill:#6f4439"></path><path d="M90.88,243.18a14.11,14.11,0,0,0-3.27-1.72,13.94,13.94,0,0,0-3.69-.29c0-.06.38-.27,1.08-.4a6.32,6.32,0,0,1,5.18,1.5C90.71,242.75,90.93,243.14,90.88,243.18Z" style="fill:#6f4439"></path><path d="M89.62,249.4a14.11,14.11,0,0,0-3.27-1.72,13.94,13.94,0,0,0-3.69-.29c0-.06.37-.27,1.07-.4a6.33,6.33,0,0,1,5.19,1.5C89.45,249,89.67,249.36,89.62,249.4Z" style="fill:#6f4439"></path><path d="M88.91,254.82a14.22,14.22,0,0,0-3.4-1.45,14.28,14.28,0,0,0-3.7,0c0-.06.35-.3,1-.49A6.31,6.31,0,0,1,88.14,254C88.7,254.41,89,254.77,88.91,254.82Z" style="fill:#6f4439"></path><path d="M88.1,260.57a13.57,13.57,0,0,0-3.62-.77,13.56,13.56,0,0,0-3.62.73c0-.06.28-.37.92-.68a6.1,6.1,0,0,1,2.7-.59,6.29,6.29,0,0,1,2.7.62C87.82,260.2,88.13,260.51,88.1,260.57Z" style="fill:#6f4439"></path><path d="M87.81,266.59a13.55,13.55,0,0,0-3.61-.77,14.17,14.17,0,0,0-3.63.73c0-.05.29-.36.93-.68a6.33,6.33,0,0,1,5.4,0C87.53,266.22,87.85,266.53,87.81,266.59Z" style="fill:#6f4439"></path><path d="M88,273.58a13.6,13.6,0,0,0-3.67-.42,13.54,13.54,0,0,0-3.54,1.06c0-.05.25-.39.85-.76a6.22,6.22,0,0,1,2.64-.85A6.31,6.31,0,0,1,87,273C87.69,273.24,88,273.52,88,273.58Z" style="fill:#6f4439"></path><path d="M88.39,280a13.91,13.91,0,0,0-3.67-.42,14,14,0,0,0-3.54,1.06c0-.05.25-.39.86-.76a6,6,0,0,1,2.63-.84,6.2,6.2,0,0,1,2.75.36C88.08,279.62,88.42,279.9,88.39,280Z" style="fill:#6f4439"></path><path d="M89.08,286.22a14.32,14.32,0,0,0-3.7-.13,14.12,14.12,0,0,0-3.44,1.34s.22-.4.79-.82a6.16,6.16,0,0,1,2.56-1.05,6.27,6.27,0,0,1,2.77.14C88.74,285.91,89.1,286.16,89.08,286.22Z" style="fill:#6f4439"></path><path d="M90,292.49a13.29,13.29,0,0,0-3.69-.13,13.84,13.84,0,0,0-3.45,1.34c0-.05.22-.41.8-.83a6.29,6.29,0,0,1,2.56-1.05A6.21,6.21,0,0,1,89,292C89.7,292.17,90.07,292.43,90,292.49Z" style="fill:#6f4439"></path><path d="M91.28,299.34a13.67,13.67,0,0,0-3.7.07,14.23,14.23,0,0,0-3.37,1.52s.2-.42.75-.87a6.2,6.2,0,0,1,2.5-1.18,6.27,6.27,0,0,1,2.77,0C90.92,299,91.3,299.28,91.28,299.34Z" style="fill:#6f4439"></path><path d="M93.18,305.59a14.06,14.06,0,0,0-3.69.07,13.59,13.59,0,0,0-3.37,1.53c-.05-.05.19-.42.75-.87a6.27,6.27,0,0,1,5.26-1.19C92.83,305.3,93.21,305.53,93.18,305.59Z" style="fill:#6f4439"></path><path d="M94.94,311.62a13.78,13.78,0,0,0-3.68.38A14.05,14.05,0,0,0,88,313.81c-.05,0,.16-.43.67-.93a6.33,6.33,0,0,1,5.14-1.63C94.56,311.35,95,311.55,94.94,311.62Z" style="fill:#6f4439"></path><path d="M96.94,317.49a14.05,14.05,0,0,0-3.68.39A13.38,13.38,0,0,0,90,319.69c-.05,0,.15-.44.67-.93a6.16,6.16,0,0,1,2.39-1.4,6.23,6.23,0,0,1,2.75-.24C96.56,317.23,97,317.43,96.94,317.49Z" style="fill:#6f4439"></path><path d="M99.11,323.36a14.51,14.51,0,0,0-3.67.39,13.58,13.58,0,0,0-3.23,1.81s.16-.44.67-.93A6.3,6.3,0,0,1,98,323C98.73,323.1,99.13,323.3,99.11,323.36Z" style="fill:#6f4439"></path><path d="M101.37,329.06a13.72,13.72,0,0,0-3.67.38,14,14,0,0,0-3.23,1.81s.16-.43.67-.93a6.18,6.18,0,0,1,2.39-1.39,6.3,6.3,0,0,1,2.76-.25C101,328.79,101.39,329,101.37,329.06Z" style="fill:#6f4439"></path><path d="M104,335.09a14,14,0,0,0-3.67.39,14.18,14.18,0,0,0-3.23,1.8s.16-.43.67-.93a6.34,6.34,0,0,1,5.15-1.63C103.63,334.83,104,335,104,335.09Z" style="fill:#6f4439"></path><path d="M106.66,341.51a13.78,13.78,0,0,0-3.64.65,13.92,13.92,0,0,0-3.08,2c-.06,0,.12-.44.6-1a6.22,6.22,0,0,1,2.28-1.56,6.15,6.15,0,0,1,2.73-.43C106.26,341.27,106.67,341.44,106.66,341.51Z" style="fill:#6f4439"></path><path d="M110,348.57a13.78,13.78,0,0,0-3.64.65,13.63,13.63,0,0,0-3.08,2c-.06,0,.12-.44.6-1a6.24,6.24,0,0,1,5-2C109.55,348.33,110,348.5,110,348.57Z" style="fill:#6f4439"></path><path d="M113,355.54a13.54,13.54,0,0,0-3.63.64,14,14,0,0,0-3.09,2s.13-.45.6-1a6.37,6.37,0,0,1,5-2C112.64,355.3,113.05,355.47,113,355.54Z" style="fill:#6f4439"></path><path d="M116.63,362.49a13.84,13.84,0,0,0-3.64.65,13.92,13.92,0,0,0-3.08,2c-.06,0,.13-.44.6-1a6.24,6.24,0,0,1,5-2C116.24,362.25,116.65,362.42,116.63,362.49Z" style="fill:#6f4439"></path><path d="M119.82,368.69a14.35,14.35,0,0,0-3.64.65,13.92,13.92,0,0,0-3.08,2c-.06,0,.13-.44.6-1a6.33,6.33,0,0,1,5-2C119.43,368.46,119.84,368.63,119.82,368.69Z" style="fill:#6f4439"></path><path d="M123.4,374.88a14.29,14.29,0,0,0-3.64.65,13.1,13.1,0,0,0-3.08,2c-.06,0,.12-.45.6-1a6.33,6.33,0,0,1,5-2C123,374.65,123.41,374.82,123.4,374.88Z" style="fill:#6f4439"></path><path d="M363.38,157.66c-11.5-10.22-23.15-20.41-36.21-28.62a119.13,119.13,0,0,0-45.32-17.25c-16.92-2.59-34.41-1.48-51.09,2.15a222.54,222.54,0,0,0-23.33,6.84c-7.52,2.52-15,5.13-22.41,8-15.76,6-31.7,13.14-44.67,24.16-3.53,3,1.34,8.24,4.85,5.26,11-9.32,24.4-15.56,37.66-20.92,7-2.84,14.14-5.39,21.3-7.83s14.57-5.07,22-7a140.32,140.32,0,0,1,48.87-4.27,108.39,108.39,0,0,1,43.77,14.24c14.37,8.29,26.94,19.16,39.29,30.14a3.69,3.69,0,0,0,5.06.2c1.31-1.21,1.65-3.77.2-5.06Z" style="fill:#ae7461"></path><path d="M340.73,147.68a13.93,13.93,0,0,0,3-2.22,14,14,0,0,0,1.85-3.2c.06,0,.08.45-.1,1.14a6.11,6.11,0,0,1-1.34,2.42,6.27,6.27,0,0,1-2.24,1.62C341.19,147.71,340.75,147.74,340.73,147.68Z" style="fill:#6f4439"></path><path d="M345.64,151.75a13.54,13.54,0,0,0,3-2.21,14.22,14.22,0,0,0,1.85-3.2c.06,0,.08.45-.1,1.14A6.45,6.45,0,0,1,349,149.9a6.33,6.33,0,0,1-2.25,1.62C346.1,151.78,345.66,151.81,345.64,151.75Z" style="fill:#6f4439"></path><path d="M336.34,144.4a14,14,0,0,0,3-2.21,13.93,13.93,0,0,0,1.85-3.21c.06,0,.08.46-.1,1.14a6.41,6.41,0,0,1-1.34,2.43,6.29,6.29,0,0,1-2.25,1.61C336.8,144.43,336.36,144.46,336.34,144.4Z" style="fill:#6f4439"></path><path d="M332,141.12a13.81,13.81,0,0,0,3-2.21,14.22,14.22,0,0,0,1.85-3.2c.06,0,.08.45-.1,1.14a6.45,6.45,0,0,1-1.34,2.42,6.33,6.33,0,0,1-2.25,1.62C332.41,141.15,332,141.18,332,141.12Z" style="fill:#6f4439"></path><path d="M327.56,137.84a13.81,13.81,0,0,0,3-2.21,13.72,13.72,0,0,0,1.84-3.2c.07,0,.09.45-.1,1.14a6.27,6.27,0,0,1-1.33,2.42,6.21,6.21,0,0,1-2.25,1.62C328,137.87,327.58,137.91,327.56,137.84Z" style="fill:#6f4439"></path><path d="M323.08,135a14.06,14.06,0,0,0,2.83-2.37,13.7,13.7,0,0,0,1.67-3.3c.07,0,.11.45,0,1.15a6.36,6.36,0,0,1-1.21,2.49,6.21,6.21,0,0,1-2.16,1.73C323.54,135,323.1,135,323.08,135Z" style="fill:#6f4439"></path><path d="M318.15,132a13.6,13.6,0,0,0,2.6-2.62,13.55,13.55,0,0,0,1.36-3.43c.07,0,.15.43.07,1.14a6.31,6.31,0,0,1-3,4.52C318.61,132,318.17,132.1,318.15,132Z" style="fill:#6f4439"></path><path d="M313.67,129.54a13.67,13.67,0,0,0,2.16-3,13.92,13.92,0,0,0,.79-3.61c.06,0,.22.41.25,1.12a6.35,6.35,0,0,1-2.2,4.93C314.12,129.43,313.71,129.6,313.67,129.54Z" style="fill:#6f4439"></path><path d="M308.78,127.32a13.89,13.89,0,0,0,1.94-3.14,14.52,14.52,0,0,0,.54-3.66c.06,0,.24.39.32,1.1a6.3,6.3,0,0,1-.35,2.74,6.17,6.17,0,0,1-1.5,2.33C309.22,127.18,308.81,127.38,308.78,127.32Z" style="fill:#6f4439"></path><path d="M303.12,124.89a14,14,0,0,0,1.94-3.15,13.43,13.43,0,0,0,.54-3.66c.07,0,.25.39.33,1.1a6.2,6.2,0,0,1-.36,2.75,6,6,0,0,1-1.49,2.32C303.56,124.75,303.16,124.94,303.12,124.89Z" style="fill:#6f4439"></path><path d="M296.9,122.63a14,14,0,0,0,1.94-3.15,13.9,13.9,0,0,0,.54-3.65c.06,0,.25.39.33,1.09a6.2,6.2,0,0,1-.36,2.75,6.37,6.37,0,0,1-1.49,2.33C297.34,122.49,296.94,122.68,296.9,122.63Z" style="fill:#6f4439"></path><path d="M290.78,120.94a13.77,13.77,0,0,0,1.94-3.14,14,14,0,0,0,.54-3.66c.06,0,.25.39.33,1.1a6.36,6.36,0,0,1-1.85,5.07C291.22,120.8,290.82,121,290.78,120.94Z" style="fill:#6f4439"></path><path d="M285.42,119.86a13.49,13.49,0,0,0,1.68-3.29,14.11,14.11,0,0,0,.24-3.69c.06,0,.27.37.41,1.07a6.18,6.18,0,0,1-.13,2.76,6.3,6.3,0,0,1-1.29,2.45C285.85,119.69,285.47,119.91,285.42,119.86Z" style="fill:#6f4439"></path><path d="M279.75,118.66a14,14,0,0,0,1-3.56,13.94,13.94,0,0,0-.48-3.66c.06,0,.34.31.61,1a6.19,6.19,0,0,1,.41,2.73,6.1,6.1,0,0,1-.81,2.65C280.13,118.4,279.8,118.7,279.75,118.66Z" style="fill:#6f4439"></path><path d="M273.76,118a13.72,13.72,0,0,0,1-3.55,14,14,0,0,0-.48-3.67c.06,0,.34.31.61,1a6.12,6.12,0,0,1,.41,2.74,6.29,6.29,0,0,1-.8,2.65C274.14,117.71,273.81,118,273.76,118Z" style="fill:#6f4439"></path><path d="M266.77,117.68a14.29,14.29,0,0,0,.67-3.63,14.4,14.4,0,0,0-.81-3.61c.05,0,.37.28.7.91A6.35,6.35,0,0,1,268,114a6.18,6.18,0,0,1-.56,2.71C267.13,117.39,266.82,117.71,266.77,117.68Z" style="fill:#6f4439"></path><path d="M260.38,117.63a14.31,14.31,0,0,0,.67-3.64,13.67,13.67,0,0,0-.82-3.6c.06,0,.37.27.7.91a6,6,0,0,1,.66,2.68,6.16,6.16,0,0,1-.55,2.71C260.73,117.34,260.43,117.66,260.38,117.63Z" style="fill:#6f4439"></path><path d="M254.08,117.88a13.57,13.57,0,0,0,.38-3.68,13.43,13.43,0,0,0-1.1-3.52c0-.05.39.24.77.84a6.27,6.27,0,0,1,.54,5.38C254.42,117.56,254.14,117.91,254.08,117.88Z" style="fill:#6f4439"></path><path d="M247.77,118.41a14,14,0,0,0,.38-3.67,13.88,13.88,0,0,0-1.1-3.53s.39.24.77.85a6.15,6.15,0,0,1,.87,2.62,6.27,6.27,0,0,1-.33,2.75C248.1,118.09,247.83,118.44,247.77,118.41Z" style="fill:#6f4439"></path><path d="M240.85,119.17a13.91,13.91,0,0,0,.18-3.69,13.71,13.71,0,0,0-1.29-3.46s.4.22.82.81a6.21,6.21,0,0,1,1,2.57,6.27,6.27,0,0,1-.19,2.76C241.16,118.84,240.91,119.2,240.85,119.17Z" style="fill:#6f4439"></path><path d="M234.48,120.65a14,14,0,0,0,.18-3.69,13.69,13.69,0,0,0-1.29-3.47s.4.23.82.81a6.29,6.29,0,0,1,.82,5.33C234.8,120.31,234.54,120.68,234.48,120.65Z" style="fill:#6f4439"></path><path d="M228.35,122a14,14,0,0,0-.14-3.7,13.57,13.57,0,0,0-1.58-3.34s.42.19.88.74a6.28,6.28,0,0,1,1.28,5.24C228.63,121.63,228.41,122,228.35,122Z" style="fill:#6f4439"></path><path d="M222.35,123.58a14,14,0,0,0-.14-3.7,13.57,13.57,0,0,0-1.58-3.34c.05,0,.42.19.88.74a6.3,6.3,0,0,1,1.28,5.24C222.63,123.22,222.41,123.6,222.35,123.58Z" style="fill:#6f4439"></path><path d="M216.34,125.35a14.24,14.24,0,0,0-.13-3.7,13.81,13.81,0,0,0-1.59-3.34s.43.19.89.74a6.17,6.17,0,0,1,1.22,2.48,6.33,6.33,0,0,1,.06,2.76C216.63,125,216.4,125.37,216.34,125.35Z" style="fill:#6f4439"></path><path d="M210.51,127.21a13.93,13.93,0,0,0-.14-3.69,13.57,13.57,0,0,0-1.58-3.34c.05-.05.42.19.88.73a6.31,6.31,0,0,1,1.28,5.25C210.79,126.85,210.57,127.23,210.51,127.21Z" style="fill:#6f4439"></path><path d="M204.3,129.43a13.21,13.21,0,0,0-.13-3.69,14,14,0,0,0-1.58-3.34c0-.05.42.19.88.73a6.31,6.31,0,0,1,1.28,5.25C204.59,129.07,204.37,129.45,204.3,129.43Z" style="fill:#6f4439"></path><path d="M197.72,131.63a13.76,13.76,0,0,0-.4-3.67,14.49,14.49,0,0,0-1.81-3.22s.43.16.93.67a6.18,6.18,0,0,1,1.4,2.38,6.3,6.3,0,0,1,.25,2.76C198,131.25,197.78,131.65,197.72,131.63Z" style="fill:#6f4439"></path><path d="M190.45,134.43a13.76,13.76,0,0,0-.4-3.67,13.78,13.78,0,0,0-1.81-3.22c0-.05.43.16.93.67a6.32,6.32,0,0,1,1.65,5.14C190.71,134.05,190.52,134.45,190.45,134.43Z" style="fill:#6f4439"></path><path d="M183.29,137a13.76,13.76,0,0,0-.4-3.67,14.21,14.21,0,0,0-1.81-3.22s.43.16.93.67a6.32,6.32,0,0,1,1.65,5.14C183.55,136.65,183.35,137.05,183.29,137Z" style="fill:#6f4439"></path><path d="M176.11,140.15a13.82,13.82,0,0,0-.4-3.68,13.87,13.87,0,0,0-1.82-3.22c0-.05.44.16.93.67a6.31,6.31,0,0,1,1.66,5.14C176.37,139.76,176.17,140.16,176.11,140.15Z" style="fill:#6f4439"></path><path d="M169.7,142.9a13.76,13.76,0,0,0-.4-3.67,14.49,14.49,0,0,0-1.81-3.22s.43.16.93.67a6.32,6.32,0,0,1,1.65,5.14C170,142.52,169.76,142.92,169.7,142.9Z" style="fill:#6f4439"></path><path d="M163.28,146.05a13.82,13.82,0,0,0-.4-3.68,13.87,13.87,0,0,0-1.82-3.22c0-.05.44.16.93.67a6.31,6.31,0,0,1,1.66,5.14C163.54,145.67,163.34,146.07,163.28,146.05Z" style="fill:#6f4439"></path><path d="M378.4,382.9c10.54-10.36,21.05-20.85,29.56-32.63,9-12.52,15.38-26.27,18.11-40.93,2.85-15.29,1.94-31.12-1.56-46.23A182.79,182.79,0,0,0,417.85,242c-2.48-6.81-5-13.6-7.84-20.31-5.95-14.28-13-28.73-24-40.52-3-3.19-8.41,1.19-5.42,4.38,9.35,10,15.54,22.14,20.83,34.15,2.8,6.36,5.3,12.81,7.71,19.3s5,13.21,6.86,20a113.28,113.28,0,0,1,3.74,44.23,91.52,91.52,0,0,1-15,39.54c-8.61,13-19.83,24.28-31.15,35.41-1.32,1.3-1.68,3.2-.27,4.58,1.22,1.19,3.82,1.51,5.15.2Z" style="fill:#ae7461"></path><path d="M388.83,362.46a11.57,11.57,0,0,0,2.29,2.71,17.07,17.07,0,0,0,3.17,1.65,4.79,4.79,0,0,1-3.51-1.22,5.7,5.7,0,0,1-1.69-2.07C388.81,362.9,388.77,362.47,388.83,362.46Z" style="fill:#6f4439"></path><path d="M384.63,366.88a11.53,11.53,0,0,0,2.28,2.72,17.83,17.83,0,0,0,3.17,1.65,4.89,4.89,0,0,1-3.5-1.22,5.75,5.75,0,0,1-1.69-2.07C384.6,367.33,384.57,366.9,384.63,366.88Z" style="fill:#6f4439"></path><path d="M392.22,358.5a11.84,11.84,0,0,0,2.28,2.72,18.62,18.62,0,0,0,3.17,1.65,4.87,4.87,0,0,1-3.5-1.23,5.59,5.59,0,0,1-1.69-2.07C392.2,359,392.16,358.51,392.22,358.5Z" style="fill:#6f4439"></path><path d="M395.61,354.54a11.84,11.84,0,0,0,2.28,2.72,18.22,18.22,0,0,0,3.17,1.65,4.89,4.89,0,0,1-3.5-1.22,5.75,5.75,0,0,1-1.69-2.07C395.59,355,395.55,354.56,395.61,354.54Z" style="fill:#6f4439"></path><path d="M399,350.58a11.84,11.84,0,0,0,2.28,2.72,18.22,18.22,0,0,0,3.17,1.65,4.89,4.89,0,0,1-3.5-1.22,5.67,5.67,0,0,1-1.69-2.07C399,351,398.94,350.6,399,350.58Z" style="fill:#6f4439"></path><path d="M402,346.54a12.44,12.44,0,0,0,2.45,2.6,18.91,18.91,0,0,0,3.26,1.5,4.93,4.93,0,0,1-3.58-1.05,5.71,5.71,0,0,1-1.8-2C402,347,401.91,346.56,402,346.54Z" style="fill:#6f4439"></path><path d="M405,342.09a12.28,12.28,0,0,0,2.7,2.38,18.46,18.46,0,0,0,3.42,1.23,5,5,0,0,1-3.69-.75,5.91,5.91,0,0,1-2-1.83C405.07,342.54,405,342.12,405,342.09Z" style="fill:#6f4439"></path><path d="M407.62,338.05a13.07,13.07,0,0,0,3.09,2,18.87,18.87,0,0,0,3.6.74,5.1,5.1,0,0,1-3.8-.23,6.14,6.14,0,0,1-2.28-1.51C407.74,338.49,407.56,338.09,407.62,338.05Z" style="fill:#6f4439"></path><path d="M409.94,333.63a14.08,14.08,0,0,0,3.23,1.76,18.24,18.24,0,0,0,3.66.51,5.13,5.13,0,0,1-3.83,0,6.32,6.32,0,0,1-2.38-1.36C410.1,334.06,409.89,333.67,409.94,333.63Z" style="fill:#6f4439"></path><path d="M412.49,328.53a14.08,14.08,0,0,0,3.23,1.76,18.24,18.24,0,0,0,3.66.51,5.13,5.13,0,0,1-3.83,0,6.46,6.46,0,0,1-2.38-1.36C412.65,329,412.44,328.57,412.49,328.53Z" style="fill:#6f4439"></path><path d="M414.86,322.91a14.36,14.36,0,0,0,3.23,1.76,18.32,18.32,0,0,0,3.66.51,5.1,5.1,0,0,1-3.82,0,6.43,6.43,0,0,1-2.39-1.36C415,323.34,414.81,323,414.86,322.91Z" style="fill:#6f4439"></path><path d="M416.65,317.38a14.29,14.29,0,0,0,3.24,1.76,18.18,18.18,0,0,0,3.65.51,5.1,5.1,0,0,1-3.82,0,6.51,6.51,0,0,1-2.39-1.36C416.81,317.81,416.6,317.42,416.65,317.38Z" style="fill:#6f4439"></path><path d="M417.82,312.54a14.69,14.69,0,0,0,3.37,1.51,18.73,18.73,0,0,0,3.71.25,5.2,5.2,0,0,1-3.83.28,6.4,6.4,0,0,1-2.5-1.18C418,313,417.77,312.58,417.82,312.54Z" style="fill:#6f4439"></path><path d="M419.11,307.41a16.46,16.46,0,0,0,3.62.9,17.89,17.89,0,0,0,3.72-.39,5.11,5.11,0,0,1-3.75.93A5.05,5.05,0,0,1,419.11,307.41Z" style="fill:#6f4439"></path><path d="M419.89,302a15.88,15.88,0,0,0,3.63.91,17.85,17.85,0,0,0,3.71-.39,5.22,5.22,0,0,1-3.75.93A5,5,0,0,1,419.89,302Z" style="fill:#6f4439"></path><path d="M420.27,295.67a16.93,16.93,0,0,0,3.69.6,17.43,17.43,0,0,0,3.68-.7,6.3,6.3,0,0,1-7.37.1Z" style="fill:#6f4439"></path><path d="M420.4,289.89a17.67,17.67,0,0,0,3.69.6,17.43,17.43,0,0,0,3.68-.7,6.3,6.3,0,0,1-7.37.1Z" style="fill:#6f4439"></path><path d="M420.22,284.19a17.73,17.73,0,0,0,3.73.34,16.28,16.28,0,0,0,3.61-1,5,5,0,0,1-3.57,1.5A5.16,5.16,0,0,1,420.22,284.19Z" style="fill:#6f4439"></path><path d="M419.76,278.48a17.31,17.31,0,0,0,3.72.33,17,17,0,0,0,3.62-.95,6.28,6.28,0,0,1-7.34.62Z" style="fill:#6f4439"></path><path d="M419.07,272.22a18.6,18.6,0,0,0,3.73.15,16.12,16.12,0,0,0,3.56-1.13,5,5,0,0,1-3.49,1.67A5.16,5.16,0,0,1,419.07,272.22Z" style="fill:#6f4439"></path><path d="M417.65,266.45a18.6,18.6,0,0,0,3.73.15,17.1,17.1,0,0,0,3.56-1.12,5,5,0,0,1-3.49,1.66A5.16,5.16,0,0,1,417.65,266.45Z" style="fill:#6f4439"></path><path d="M416.36,260.89a17.31,17.31,0,0,0,3.73-.12,15.42,15.42,0,0,0,3.45-1.4c0,.05-.22.41-.8.83a6.53,6.53,0,0,1-2.54,1.1A5.15,5.15,0,0,1,416.36,260.89Z" style="fill:#6f4439"></path><path d="M414.81,255.46a18.56,18.56,0,0,0,3.73-.13,15.68,15.68,0,0,0,3.45-1.39c.05.05-.22.41-.79.83a6.58,6.58,0,0,1-2.55,1.1A5.22,5.22,0,0,1,414.81,255.46Z" style="fill:#6f4439"></path><path d="M413.09,250a18.46,18.46,0,0,0,3.72-.13,16,16,0,0,0,3.45-1.39c.05,0-.21.4-.79.83a6.67,6.67,0,0,1-2.55,1.09A5.15,5.15,0,0,1,413.09,250Z" style="fill:#6f4439"></path><path d="M411.26,244.73a17.31,17.31,0,0,0,3.73-.12,15.42,15.42,0,0,0,3.45-1.4c.05,0-.22.41-.79.83a6.65,6.65,0,0,1-2.55,1.1A5.17,5.17,0,0,1,411.26,244.73Z" style="fill:#6f4439"></path><path d="M409.08,239.11a17.31,17.31,0,0,0,3.73-.12,15.42,15.42,0,0,0,3.45-1.4s-.22.41-.8.83a6.53,6.53,0,0,1-2.54,1.1A5.15,5.15,0,0,1,409.08,239.11Z" style="fill:#6f4439"></path><path d="M406.92,233.15a18.55,18.55,0,0,0,3.7-.36,14.55,14.55,0,0,0,3.34-1.62c.05.05-.19.43-.73.89a6.47,6.47,0,0,1-2.47,1.25A5.19,5.19,0,0,1,406.92,233.15Z" style="fill:#6f4439"></path><path d="M404.16,226.56a18.55,18.55,0,0,0,3.7-.36,15.27,15.27,0,0,0,3.34-1.61c.05,0-.18.42-.73.88a6.64,6.64,0,0,1-2.46,1.26A5.13,5.13,0,0,1,404.16,226.56Z" style="fill:#6f4439"></path><path d="M401.61,220.07a18.6,18.6,0,0,0,3.7-.36,15.27,15.27,0,0,0,3.34-1.61s-.19.42-.74.88a6.64,6.64,0,0,1-2.46,1.26A5.16,5.16,0,0,1,401.61,220.07Z" style="fill:#6f4439"></path><path d="M398.53,213.56a18.6,18.6,0,0,0,3.7-.36,14.55,14.55,0,0,0,3.34-1.62s-.19.43-.74.89a6.49,6.49,0,0,1-2.46,1.25A5.19,5.19,0,0,1,398.53,213.56Z" style="fill:#6f4439"></path><path d="M395.8,207.75a18.55,18.55,0,0,0,3.7-.36,15.27,15.27,0,0,0,3.34-1.61c.05,0-.19.42-.73.88a6.61,6.61,0,0,1-2.47,1.26A5.1,5.1,0,0,1,395.8,207.75Z" style="fill:#6f4439"></path><path d="M392.68,201.93a18.55,18.55,0,0,0,3.7-.36,14.55,14.55,0,0,0,3.34-1.62c0,.05-.19.43-.73.89a6.47,6.47,0,0,1-2.47,1.25A5.19,5.19,0,0,1,392.68,201.93Z" style="fill:#6f4439"></path><path d="M230.69,122.42A156.78,156.78,0,1,0,408.36,255.07,156.78,156.78,0,0,0,230.69,122.42ZM265,358.76a82,82,0,1,1,69.41-92.95A82,82,0,0,1,265,358.76Z" style="fill:#e0e0e0"></path><path d="M118,173.66l9.83,8.48s38.65,26.29,51.4,58c8.8-15,23.84-29.18,37.2-36.37,0,0-22.79-41.21-53.35-55.19l-7.92-9.14S117.71,171.84,118,173.66Z" style="fill:#B01700"></path><path d="M156.71,418.11l7.8-10.38s23.62-40.34,54.38-55.2c-15.59-7.76-30.72-21.81-38.8-34.66,0,0-39.58,25.53-51.46,57l-10.54,11.22S148,418.11,156.71,418.11Z" style="fill:#B01700"></path><path d="M348.67,418.24l-7.86-10.34S317,367.69,286.14,353c15.55-7.83,30.61-22,38.63-34.85,0,0,39.7,25.32,51.75,56.68l9.64,10.73S350.47,418.62,348.67,418.24Z" style="fill:#B01700"></path><path d="M394.8,186.47l-10.65,7.43s-38.61,22.21-54.53,52.45c-7.22-15.85-23.25-31.47-35.81-40,0,0,26.88-38.66,58.7-49.45l8.82-8.28S395.24,184.68,394.8,186.47Z" style="fill:#B01700"></path><path d="M252.2,434.92A157.33,157.33,0,0,1,230,121.9c85.84-12.45,165.81,47.26,178.26,133.1a157.32,157.32,0,0,1-133.1,178.26A159.59,159.59,0,0,1,252.2,434.92Zm.44-313.61A156.27,156.27,0,0,0,97.89,300a156.26,156.26,0,1,0,309.29-44.86C395.91,177.45,329,121.31,252.64,121.31Z" style="fill:#263238"></path><g style="opacity:0.30000000000000004"><path d="M271.19,408.56A156.79,156.79,0,0,1,95.74,287.93q.41,6,1.29,12.16a156.78,156.78,0,1,0,310.32-45q-.89-6.09-2.22-12A156.8,156.8,0,0,1,271.19,408.56Z"></path></g><path d="M253.15,360.14a82.64,82.64,0,1,1,11.9-.87A82.67,82.67,0,0,1,253.15,360.14Zm.22-164.08a83.47,83.47,0,0,0-11.87.86,81.5,81.5,0,1,0,92.36,69h0a81.54,81.54,0,0,0-80.49-69.82Z" style="fill:#263238"></path><path d="M207.37,209.07c-2.87-8.47-5.7-17-7.07-25.85s-1.21-18.07,1.8-26.49c.46-1.28,4.38-9.85,5.73-9.73,1,.08-1.42,8.06-.92,8.89,4.75,7.94,6.14,17.53,5.51,26.76a120.92,120.92,0,0,1-5,26.42" style="fill:#263238"></path><path d="M208.3,255.71l-2.23-80.39c-1-22.41,11.21-41.67,33.63-42.06l2.08.09a40.1,40.1,0,0,1,38.42,38.49c.76,19.43,1.36,40.9.8,51.29-1.16,21.49-22.8,24-22.8,24s-.19,22.33-.18,28.65L242.74,292l.88-4.91Z" style="fill:#ffbf9d"></path><path d="M258.2,246.72s-13.59.23-27.66-9.44c0,0,6.07,16.45,27.61,15.4Z" style="fill:#ff9a6c"></path><path d="M269.25,190.5a3.08,3.08,0,0,1-3.09,3,2.94,2.94,0,0,1-3.05-2.9,3.08,3.08,0,0,1,3.08-3A3,3,0,0,1,269.25,190.5Z" style="fill:#263238"></path><path d="M275.24,180.79c-.4.38-2.66-1.43-6-1.56s-5.8,1.42-6.14,1c-.17-.18.25-.89,1.34-1.62a8.46,8.46,0,0,1,4.93-1.3,8.08,8.08,0,0,1,4.72,1.75C275.12,179.88,275.43,180.62,275.24,180.79Z" style="fill:#263238"></path><path d="M240.2,190a3.08,3.08,0,0,1-3.09,3,2.94,2.94,0,0,1-3.05-2.9,3.08,3.08,0,0,1,3.08-3A3,3,0,0,1,240.2,190Z" style="fill:#263238"></path><path d="M242.81,180.22c-.4.38-2.66-1.44-6-1.56s-5.8,1.42-6.14,1c-.17-.19.25-.89,1.34-1.62a8.49,8.49,0,0,1,4.93-1.3,8.21,8.21,0,0,1,4.73,1.74C242.69,179.31,243,180.05,242.81,180.22Z" style="fill:#263238"></path><path d="M253.62,206.1c0-.19,2.06-.46,5.4-.75.85,0,1.66-.18,1.82-.75a4.26,4.26,0,0,0-.46-2.53l-2.23-6.53c-3.09-9.29-5.28-16.92-4.91-17s3.18,7.32,6.27,16.61c.74,2.29,1.45,4.47,2.13,6.56a4.9,4.9,0,0,1,.3,3.33,2.13,2.13,0,0,1-1.44,1.18,6,6,0,0,1-1.44.14C255.7,206.36,253.62,206.29,253.62,206.1Z" style="fill:#263238"></path><path d="M244.31,169.92c-.49.83-3.66-.19-7.56-.44s-7.18.23-7.54-.66c-.15-.42.54-1.15,1.94-1.78a13.13,13.13,0,0,1,11.5.84C244,168.7,244.52,169.53,244.31,169.92Z" style="fill:#263238"></path><path d="M275.79,171.08c-.71.73-3.38-.12-6.62-.24s-6,.35-6.6-.46c-.26-.39.19-1.13,1.4-1.81a10.48,10.48,0,0,1,5.42-1.08,10.22,10.22,0,0,1,5.23,1.64C275.75,169.94,276.1,170.72,275.79,171.08Z" style="fill:#263238"></path><path d="M207.17,191c-.36-.18-14.59-5-14.73,9.74s14.67,11.82,14.7,11.4S207.17,191,207.17,191Z" style="fill:#ffbf9d"></path><path d="M202.69,206.48c-.06,0-.25.18-.69.37a2.54,2.54,0,0,1-1.92,0c-1.55-.58-2.83-3.06-2.88-5.72a8.43,8.43,0,0,1,.75-3.66,3,3,0,0,1,2-2,1.31,1.31,0,0,1,1.51.71c.19.42.09.71.17.74s.32-.25.21-.86a1.64,1.64,0,0,0-.57-.92,1.88,1.88,0,0,0-1.42-.39,3.59,3.59,0,0,0-2.7,2.25,8.88,8.88,0,0,0-.93,4.1c.07,3,1.56,5.76,3.69,6.39a2.73,2.73,0,0,0,2.34-.36C202.66,206.84,202.74,206.51,202.69,206.48Z" style="fill:#ff9a6c"></path><path d="M270.69,147.09c2.38-1.32-4.76-9-10.62-11.7-8.84-4-22.36-6.5-30.52-4.19-9.82,2.78-18,7.67-22.93,16.6s-6.79,19.36-6.51,29.57c.08,3.11.41,6.36,2.07,9,2,3.26,6,5.31,5.82,9.8a6.17,6.17,0,0,0,1.53,4.5c2.69,2.87,6,.17,7.5-2.52,3.24-5.77,3.61-12.65,3.9-19.26.2-4.7.39-9.49-.93-14-.72-2.46-1.87-4.78-2.45-7.27s-.51-5.31,1-7.35a9.51,9.51,0,0,1,1.2-1.21A15.36,15.36,0,0,1,235,146.16c8.29,2.94,22.45,7.33,26.15,4.52,5.32-4.05,6.59-6.69,6.59-6.69Z" style="fill:#263238"></path><path d="M243.23,208.15c.51,0,.53,3.35,3.44,5.73s6.5,2,6.53,2.47c.05.22-.8.66-2.32.71a8.39,8.39,0,0,1-5.45-1.87,7.27,7.27,0,0,1-2.66-4.81C242.63,209,243,208.13,243.23,208.15Z" style="fill:#263238"></path><path d="M277.15,145.17s-8-15.46-17.65-19.48a46.07,46.07,0,0,0-35.62.46C213.4,130.66,210.09,147,210.09,147Z" style="fill:#f5f5f5"></path><path d="M279.28,161.8l6.5-28.07H193.35l6.73,28.07C229.78,159.75,257.34,159,279.28,161.8Z" style="fill:#f5f5f5"></path><path d="M243.88,150.2a5.68,5.68,0,0,0,1.89,3.47,6.78,6.78,0,0,0,2.1,1.27,6.86,6.86,0,0,0,.77.24,1.68,1.68,0,0,1,.6.29l1.2.93,1.19-.93a1.72,1.72,0,0,1,.61-.29,6.86,6.86,0,0,0,.77-.24,6.78,6.78,0,0,0,2.1-1.27,6,6,0,0,0,1.41-1.89,5.31,5.31,0,0,0,.47-1.58l1,.2-1.13-3.63-2.32,3,1.05.2a4.48,4.48,0,0,1-1.5,2.84l0,0c-.91.81-2.63.32-2.66-.75l-.23-9,2.73-.18V142l-2.24-.15a2.3,2.3,0,1,0-2.5,0l-2.25.15v.87l2.74.18-.23,9c0,1.07-1.75,1.56-2.66.75l0,0a4.46,4.46,0,0,1-1.49-2.84l1-.2-2.32-3-1.13,3.63Zm7.85-10.35a1.25,1.25,0,1,1-1.25-1.25A1.25,1.25,0,0,1,251.73,139.85Z" style="fill:#455a64"></path><path d="M201.41,161.8c-1.72,2.22-1.85,4.69-3.12,5.88a34.52,34.52,0,0,0-3.84,3.5c-1.07,1.37-1.6,3.4-.61,4.83a4.62,4.62,0,0,0,3.47,1.64,11.43,11.43,0,0,0,7.66-2.08c-2,1.27-1.67,4.61.23,6s4.65,1.07,6.67-.14a18.06,18.06,0,0,0,4.91-5Z" style="fill:#263238"></path><path d="M219.94,170s0,.14,0,.41a9.71,9.71,0,0,1-.22,1.13,15.86,15.86,0,0,1-1.62,3.95,16.21,16.21,0,0,1-4.19,4.76,10.64,10.64,0,0,1-3.33,1.79,5.73,5.73,0,0,1-4.09-.12,5.08,5.08,0,0,1-2.67-6l.39.28a10.25,10.25,0,0,1-5,1.81,7.36,7.36,0,0,1-4.12-.69,3.19,3.19,0,0,1-1.68-2.14,2.59,2.59,0,0,1-.07-.72c0-.17,0-.25,0-.25s.05.34.21.93a3.11,3.11,0,0,0,1.66,1.9,7.15,7.15,0,0,0,3.94.54,10,10,0,0,0,4.75-1.79l.63-.46-.24.74a4.62,4.62,0,0,0,2.42,5.32,5.24,5.24,0,0,0,3.7.1,10.33,10.33,0,0,0,3.19-1.68,16.3,16.3,0,0,0,4.16-4.56A20.94,20.94,0,0,0,219.94,170Z" style="fill:#455a64"></path><g style="opacity:0.30000000000000004"><path d="M193.35,133.73l6.73,28.07,18.44-1.1c-1.15-3.72-6-20-3-27Z"></path></g><path d="M337,196.37l21.77,16.09s-16.12,15.93-16.93,16.08-12.26-12.86-12.26-12.86Z" style="fill:#ffbf9d"></path><path d="M337,196.37s-19.8-12.52-21.26-12.92c-2-.54-7.56-.1-7.56-.1l-33.4-6.69s-3.52,2.86,4.32,7.14l27.48,12.27s-3.94-.77-5.25,1.89,1.52,4.85,4.19,6.16,8.17,3.3,8.17,3.3.29,6.29,8.34,10.52,11.28-4.25,11.28-4.25" style="fill:#ffbf9d"></path><path d="M333.35,213.69s-.29.61-1,1.65a8.26,8.26,0,0,1-4.21,3.3c-2.28.71-5.24-.22-8-2.19a16.22,16.22,0,0,1-3.85-3.67,11.38,11.38,0,0,1-2.23-5.38l0-.25-.22-.08c-1.57-.58-3.2-1.2-4.87-1.89a28.14,28.14,0,0,1-5-2.42,7.3,7.3,0,0,1-2-1.89,2.54,2.54,0,0,1-.33-2.47c.62-1.77,2.95-2.22,4.87-1.89l3.58.62-3.31-1.48-25.28-11.32-2.19-1h0a15.8,15.8,0,0,1-3.81-2.77,4,4,0,0,1-1-1.85,1.92,1.92,0,0,1,.57-1.72l-.4.1,33.42,6.61h.11a37.74,37.74,0,0,1,7,0A10.66,10.66,0,0,1,318,185l2.65,1.55,8.76,5.28,5.59,3.38,1.48.86a2,2,0,0,0,.53.26,2.72,2.72,0,0,0-.46-.36l-1.42-1-5.48-3.56c-2.39-1.52-5.29-3.37-8.68-5.45l-2.63-1.59-1.41-.8a4.61,4.61,0,0,0-1.63-.65,37.75,37.75,0,0,0-7.14,0h.11l-33.39-6.78-.23-.05-.16.15a2.83,2.83,0,0,0-.92,2.61,4.79,4.79,0,0,0,1.24,2.34,16.39,16.39,0,0,0,4.07,3h0l2.19,1,25.31,11.26.27-.86a7.33,7.33,0,0,0-3.36.19,3.83,3.83,0,0,0-2.5,2.27,3.45,3.45,0,0,0,.44,3.27,8.2,8.2,0,0,0,2.26,2.11,29.66,29.66,0,0,0,5.14,2.46c1.69.67,3.33,1.28,4.92,1.85l-.24-.34c.62,4.53,3.67,7.61,6.48,9.51s6,2.93,8.42,2.09a8.26,8.26,0,0,0,4.26-3.57,10.27,10.27,0,0,0,.67-1.3C333.33,213.86,333.37,213.7,333.35,213.69Z" style="fill:#ff9a6c"></path><path d="M278.93,183.49a11.32,11.32,0,0,0,2.24.67c1.45.37,3.57.85,6.18,1.43s5.74,1.25,9.16,2.11a34,34,0,0,1,5.19,1.66,8.26,8.26,0,0,1,2.16,1.73c.7.7,1.39,1.42,2.09,2.16,5.59,6,11.12,11,15,14.65l4.6,4.35a11,11,0,0,0,1.76,1.54,11.11,11.11,0,0,0-1.49-1.8c-1-1.12-2.5-2.69-4.39-4.59-3.77-3.82-9.21-8.84-14.77-14.81-.71-.75-1.41-1.48-2.13-2.18a9,9,0,0,0-2.41-1.91,31.83,31.83,0,0,0-5.4-1.66c-3.46-.83-6.6-1.42-9.23-1.92l-6.25-1.13A10.75,10.75,0,0,0,278.93,183.49Z" style="fill:#ff9a6c"></path><path d="M313.27,200c-.22-.09-1,1.71-.68,4.08s1.73,3.82,1.91,3.67-.63-1.73-.95-3.82S313.56,200.09,313.27,200Z" style="fill:#ff9a6c"></path><path d="M313.26,200c.14-.22-1.23-1.33-3.06-2.46s-3.43-1.87-3.57-1.64,1.23,1.33,3.06,2.46S313.12,200.24,313.26,200Z" style="fill:#ff9a6c"></path><path d="M279.28,161.8l-.37,0-1.12-.1c-1-.09-2.48-.27-4.38-.42-3.81-.35-9.39-.74-16.41-.93s-15.5-.2-25.09.08-20.3.85-31.81,1.65l-.22,0,0-.21-6.75-28.07-.08-.33h6.87l85.91.09H286l-.05.22c-2.08,8.8-3.74,15.82-4.89,20.66-.57,2.38-1,4.23-1.31,5.5-.15.6-.27,1.07-.35,1.4s-.13.47-.13.47,0-.18.1-.51.18-.82.32-1.44c.28-1.29.7-3.15,1.24-5.55,1.09-4.83,2.68-11.83,4.67-20.61l.17.22-85.91.09h-6.52l.26-.33,6.72,28.07-.27-.2c11.52-.78,22.24-1.32,31.84-1.57s18.08-.21,25.11,0,12.61.68,16.42,1.09c1.91.17,3.34.38,4.33.5l1.13.15Z" style="fill:#263238"></path><path d="M269.57,133.78c-.05,0-.56-.66-1.59-1.8a28.13,28.13,0,0,0-5-4.22,30.12,30.12,0,0,0-8.75-3.93,44.73,44.73,0,0,0-11.7-1.51,43.25,43.25,0,0,0-11.68,1.55,33.7,33.7,0,0,0-8.8,3.88,26.23,26.23,0,0,0-4.92,4.23L216,133.29a2.36,2.36,0,0,1-.44.44,3,3,0,0,1,.36-.51c.25-.32.62-.8,1.13-1.38a24.59,24.59,0,0,1,4.87-4.41,32.82,32.82,0,0,1,8.87-4,42.65,42.65,0,0,1,11.82-1.61,43.91,43.91,0,0,1,11.83,1.57,29.52,29.52,0,0,1,8.84,4.1,25.65,25.65,0,0,1,4.88,4.39c.5.6.87,1.07,1.1,1.41A3,3,0,0,1,269.57,133.78Z" style="fill:#263238"></path><g style="opacity:0.30000000000000004"><path d="M286.14,353c-25.46,8-49,16.25-74.79,21.6l-34.87,40.15c14.59,1,29.25-1.94,43-6.82s26.83-11.63,39.82-18.36c5.51-2.85,11.74-6.76,12.1-12.95.13-2.2-.55-4.46.06-6.58.76-2.69,3.38-4.41,6-5.45s5.39-1.69,7.64-3.35S287.43,355.46,286.14,353Z"></path></g><path d="M262.42,374.51l-16.26-39.83-58,15.38s-.21-27.05.31-29c1.85-7.11,5.92-15.45,7.3-26s6.41-37.31,6.41-37.31-30.61-8.06-50.85,14.85c-7.57,8.56-11.13,18.36-10.34,29.76.53,7.8.78,23.93,1.47,34.31,1.22,18.3,1,59.19,10.72,70s35.69,5.54,44.81,1.95l58.76-24.29C264.23,381.24,262.42,374.51,262.42,374.51Z" style="fill:#f5f5f5"></path><path d="M188.19,350.06c0,.11-1.62.69-4.07,2.05a32.84,32.84,0,0,0-4.1,2.7,35.82,35.82,0,0,0-4.42,4.08,36.66,36.66,0,0,0-3.6,4.81,33.64,33.64,0,0,0-2.27,4.36c-1.11,2.58-1.51,4.29-1.62,4.26a4.57,4.57,0,0,1,.21-1.22,11.8,11.8,0,0,1,.37-1.39c.18-.54.35-1.16.63-1.81a30,30,0,0,1,2.19-4.5,34,34,0,0,1,3.63-4.92,33.33,33.33,0,0,1,4.53-4.12,29.21,29.21,0,0,1,4.24-2.64c.63-.35,1.23-.58,1.74-.81a13.24,13.24,0,0,1,1.35-.52A4.81,4.81,0,0,1,188.19,350.06Z" style="fill:#263238"></path><g style="opacity:0.30000000000000004"><path d="M186.15,350a31.78,31.78,0,0,0-24.77,23.36c-.39,1.65-.43,3.79,1.06,4.58a2.86,2.86,0,0,0,3.35-.94,9.55,9.55,0,0,0,1.56-3.39,40.91,40.91,0,0,1,20.84-23.83Z"></path></g><path d="M206.46,254.62s32.27,17.21,46.07,12.34,19.21-3.46,19.21-3.46L310.15,285l7.52,42.71c-30.05,40.18-79.79,25.85-129.48,22.31,0,0-22.08-30.88-22.08-33.32s15.1-59.86,15.1-59.86Z" style="fill:#f5f5f5"></path><g style="opacity:0.30000000000000004"><path d="M321.49,322.65l-3.12,4.68c12.77,5.62,28.43,3,42.32,4.35,5.91.58,11.85,1.78,17.72.95s11.87-4.29,13.56-10C369.54,322.9,343.92,322.41,321.49,322.65Z"></path></g><path d="M359.61,208.25,366,215l11.52,16.49s17.89,26.39,24.11,37.55c10.88,19.51,11,31.1,6.14,40.85s-14.87,16-36.38,16.8-55.19-4.72-55.19-4.72l.83,4.85c-3.68-1-55.34-64-55.34-64l13,.95c5.08-.86,33.8,1.53,40.14,4.28l44.57,11.81-28.48-48.72Z" style="fill:#f5f5f5"></path><rect x="278.11" y="295.46" width="22.09" height="4.74" style="fill:#455a64"></rect><path d="M290.76,321.64c-.11,0-.07-.78-.9-1.38a1.77,1.77,0,0,0-1.62-.19,1.69,1.69,0,0,0-1.07,1.57,1.67,1.67,0,0,0,1.07,1.56,1.74,1.74,0,0,0,1.62-.18c.83-.6.79-1.41.9-1.38s.1.18.06.51a2,2,0,0,1-.7,1.22,2.15,2.15,0,0,1-2.07.37,2.22,2.22,0,0,1,0-4.2,2.15,2.15,0,0,1,2.07.37,2,2,0,0,1,.7,1.22C290.86,321.46,290.8,321.64,290.76,321.64Z" style="fill:#263238"></path><polygon points="283.87 308.72 284.07 317.3 286.72 321.64 290.88 321.64 293.63 316.89 293.57 308.72 283.87 308.72" style="fill:#455a64"></polygon><path d="M293.78,310H283.72a1.75,1.75,0,0,1-1.75-1.75h0a1.75,1.75,0,0,1,1.75-1.75h10.06a1.75,1.75,0,0,1,1.75,1.75h0A1.75,1.75,0,0,1,293.78,310Z" style="fill:#263238"></path><polygon points="284.03 315.56 293.58 310.31 293.58 313.26 284.79 318.48 284.07 317.3 284.03 315.56" style="fill:#fff"></polygon><polygon points="289.85 323.55 290.98 323.21 291.68 324.16 292.85 324.26 293.16 325.4 294.22 325.91 294.1 327.09 294.9 327.95 294.37 329 294.8 330.1 293.93 330.88 293.94 332.06 292.83 332.48 292.42 333.58 291.24 333.57 290.45 334.45 289.36 334.01 288.3 334.54 287.44 333.74 286.27 333.86 285.75 332.8 284.62 332.49 284.52 331.31 283.57 330.61 283.9 329.48 283.28 328.48 284 327.55 283.77 326.39 284.78 325.78 284.98 324.62 286.14 324.41 286.76 323.41 287.91 323.63 288.85 322.92 289.85 323.55" style="fill:#B01700"></polygon><path d="M292.74,328.71c-.06,0-.07-.33-.23-.86a3.71,3.71,0,0,0-1.35-1.87,3.38,3.38,0,1,0,0,5.45,3.73,3.73,0,0,0,1.35-1.86c.16-.54.17-.87.23-.86a1.67,1.67,0,0,1,0,.92,3.64,3.64,0,0,1-1.31,2.15,3.84,3.84,0,0,1-3.68.62,3.92,3.92,0,0,1,0-7.39,3.87,3.87,0,0,1,3.68.62,3.66,3.66,0,0,1,1.31,2.16A1.71,1.71,0,0,1,292.74,328.71Z" style="fill:#263238"></path><path d="M248.07,337.73s18.09-8.09,26.69-7.41c11.6.93,25.75,13.32,25.75,13.32-4.79,4.93-17.23,11.4-29.59,13.26l-.8-.51L260.55,369Z" style="fill:#ffbf9d"></path><path d="M307.63,285.81a10.25,10.25,0,0,1,.52,1.59c.3,1,.73,2.54,1.22,4.4,1,3.73,2.29,8.9,3.61,14.63s2.42,10.95,3.14,14.74c.36,1.9.63,3.43.81,4.5a11,11,0,0,1,.21,1.66,9.91,9.91,0,0,1-.42-1.62c-.25-1.15-.58-2.65-1-4.46-.82-3.77-2-9-3.29-14.7S309.9,295.74,309,291.9c-.42-1.81-.78-3.3-1.05-4.45A9.91,9.91,0,0,1,307.63,285.81Z" style="fill:#263238"></path><path d="M262.42,374.51a1.07,1.07,0,0,1-.09-.19l-.24-.56c-.22-.53-.52-1.26-.9-2.2-.79-2-1.91-4.77-3.33-8.32C255,356.07,251,345.93,246.3,334l.29.15-29.53,8.21-28.8,8-.32.09v-.34c.23-13.08.37-24.17.41-32,0-3.91,0-7,0-9.13,0-1.05-.06-1.86-.07-2.41l-.07-.62c0-.14,0-.21,0-.21s0,.06.05.2.07.34.11.62c0,.55.12,1.36.15,2.42.09,2.12.13,5.21.15,9.13,0,7.83,0,18.93-.21,32l-.32-.24,28.8-8,29.54-8.17.22-.06.08.21c4.65,12,8.59,22.15,11.37,29.35,1.37,3.56,2.45,6.39,3.2,8.36.36.95.63,1.7.83,2.23l.21.58C262.41,374.44,262.43,374.5,262.42,374.51Z" style="fill:#263238"></path><path d="M160.69,273.43a1.85,1.85,0,0,1,.39-.16,7.65,7.65,0,0,1,1.15-.34,13.07,13.07,0,0,1,4.41-.27,17.75,17.75,0,0,1,6.27,1.89,22.24,22.24,0,0,1,6.36,4.88,40.77,40.77,0,0,1,7.16,12.6c.67,1.73,1.15,3.15,1.48,4.14a8,8,0,0,1,.44,1.55,10.5,10.5,0,0,1-.64-1.48l-1.63-4.07a43.3,43.3,0,0,0-7.21-12.37,22.51,22.51,0,0,0-6.19-4.81A18.33,18.33,0,0,0,166.6,273,17.86,17.86,0,0,0,160.69,273.43Z" style="fill:#263238"></path><path d="M276.9,263.55a15.77,15.77,0,0,1,2.59-.21c1.7,0,4.23,0,7.5.24s7.3.56,12,1.13c2.35.29,4.86.63,7.53,1.09a47.31,47.31,0,0,1,8.37,2h0l44.57,11.76-.24.32c-8.61-14.69-18.21-31.09-28.52-48.7l-.11-.2.18-.14L359.45,208l.19-.15.17.18,6.39,6.72h0v0c2.14,3.06,4.44,6.34,6.74,9.65l5.07,7.26,4.88,7.28q4.81,7.25,9.42,14.37c3,4.76,6,9.45,8.78,14.2a102.11,102.11,0,0,1,7,14.56,43.82,43.82,0,0,1,3,15.21,28.71,28.71,0,0,1-4,14.21A25.51,25.51,0,0,1,397,321.2a42.58,42.58,0,0,1-12.54,4.25,106.85,106.85,0,0,1-23.7,1.35c-7.26-.28-13.83-.86-19.63-1.47C329.5,324.1,321,322.78,316.22,322l.07-.06c.26,1.62.45,2.83.57,3.65s.17,1.2.17,1.2-.08-.39-.22-1.19-.35-2-.63-3.65l0-.08.08,0c4.79.72,13.3,2,24.88,3.17,5.79.58,12.36,1.14,19.62,1.39a106.07,106.07,0,0,0,23.6-1.41,42.31,42.31,0,0,0,12.41-4.22,25.24,25.24,0,0,0,9.94-9.5,28,28,0,0,0,3.9-14,43.26,43.26,0,0,0-3-15,102,102,0,0,0-7-14.47c-2.73-4.73-5.74-9.42-8.78-14.17s-6.21-9.54-9.42-14.36q-2.43-3.62-4.88-7.27t-5.06-7.27l-6.74-9.64,0,0-6.38-6.72.36,0-28.71,22.82.06-.34,28.45,48.75.27.47-.52-.14-44.55-11.88h0a48,48,0,0,0-8.29-2.05c-2.66-.47-5.17-.82-7.51-1.12-4.69-.6-8.71-1-12-1.21s-5.79-.32-7.49-.32c-.85,0-1.5,0-1.93.08Z" style="fill:#263238"></path><path d="M256.78,384.26s-.23.12-.68.31l-2,.86-7.75,3.26-28.53,11.89-19.72,8.19a67.86,67.86,0,0,1-11.5,3.13A76,76,0,0,1,174,413.27a40.11,40.11,0,0,1-13.17-1.67,19.14,19.14,0,0,1-6.11-3.2,15.44,15.44,0,0,1-4.29-5.56,56.09,56.09,0,0,1-4.09-13.76c-.88-4.78-1.48-9.67-2-14.63-.79-8.35-1.19-16.56-1.53-24.54-.18-4-.34-7.92-.56-11.79s-.44-7.67-.58-11.41c-.3-7.47-.47-14.66-.8-21.5-.08-1.71-.2-3.39-.25-5.07a42.76,42.76,0,0,1,.2-5,37.29,37.29,0,0,1,2.11-9.24,42.54,42.54,0,0,1,9.06-14.4,44.27,44.27,0,0,1,5.56-5.09,43.76,43.76,0,0,1,5.67-3.76,49.94,49.94,0,0,1,17.91-5.85l-.06.06v-.08h.05l3.9-.32c.84-.07,1.25-.08,1.25-.08s-.4.06-1.25.15l-3.89.38.06-.05V257h0a50.86,50.86,0,0,0-17.78,6,46.79,46.79,0,0,0-11.1,8.84,42.27,42.27,0,0,0-8.93,14.29,37.19,37.19,0,0,0-2.05,9.15,41.72,41.72,0,0,0-.2,4.9c.06,1.65.18,3.34.27,5.06.34,6.84.52,14,.83,21.5.15,3.74.34,7.54.6,11.4s.38,7.81.56,11.79c.35,8,.76,16.18,1.54,24.52.48,5,1.07,9.83,2,14.58a56,56,0,0,0,4,13.63,15,15,0,0,0,4.15,5.38,18.55,18.55,0,0,0,5.95,3.12,39.94,39.94,0,0,0,13,1.66,76.67,76.67,0,0,0,12.49-1.33,69.79,69.79,0,0,0,11.42-3.09l19.73-8.13,28.6-11.72,7.79-3.17,2-.81Z" style="fill:#263238"></path><g style="opacity:0.30000000000000004"><path d="M255.53,291.32a37.27,37.27,0,0,0,17.25-22.74c-4.93,8.84-12.42,17-22.26,19.35-8.37,2-17.32-.45-24.71-4.87s-13.5-10.66-19.51-16.82L198.72,264A47,47,0,0,0,234,294.93a36.51,36.51,0,0,0,5.56,32.18,4.08,4.08,0,0,0,6.74,1.07,32.06,32.06,0,0,0,13.31-22.45,11.38,11.38,0,0,0,5.34.87c1.79-.3,3.53-1.8,3.43-3.62a5.33,5.33,0,0,0-1.92-3.26A52.83,52.83,0,0,0,255.53,291.32Z"></path></g><path d="M261.57,292a10.88,10.88,0,0,0-4.56-1.85,6.84,6.84,0,0,0,.05-.79c0-.2,0-.41,0-.61,8.09-6.16,17.12-16.26,19.87-25.16-2.62-5-18.86-9.84-18.86-9.84-1.57,8.94-3.46,19.59-7.06,28.55a6.38,6.38,0,0,0-1.08-.09,7.14,7.14,0,0,0-4.14,1.32,203.68,203.68,0,0,1-38-37.49c-.9-1.16-1.92-2.41-3.36-2.65s-3,.73-4.26,1.68l-12.84,9.64a172.09,172.09,0,0,0,20.5,21.5c6.71,5.6,13.85,10.9,22,14a39,39,0,0,0,13.78,2.6,7.39,7.39,0,0,0,.85,1.22c-3.86,3-6.21,8-6.67,13-.62,6.58,1.39,13.1,3.37,19.4a35.79,35.79,0,0,0,14.46-17.68,19.51,19.51,0,0,0,1.41-7.16,11.19,11.19,0,0,0,1.21.47c3.72,1.21,7.74.9,11.64.58A21.2,21.2,0,0,0,261.57,292Z" style="fill:#455a64"></path><path d="M244.7,294.36s-.1-.05-.25-.19a4.89,4.89,0,0,1-.61-.67,5.86,5.86,0,0,1-1.09-3.11,8.76,8.76,0,0,1,1.24-4.73,7.39,7.39,0,0,1,4.88-3.42,6.73,6.73,0,0,1,3.16.09,6.37,6.37,0,0,1,2.56,1.44A7.81,7.81,0,0,1,257,288a7.23,7.23,0,0,1-.08,3.29,5.4,5.4,0,0,1-.27.85c-.08.19-.12.29-.14.28a8.45,8.45,0,0,1,.2-1.17,7.85,7.85,0,0,0-.09-3.17,7.51,7.51,0,0,0-2.34-4,6,6,0,0,0-2.37-1.31,6.34,6.34,0,0,0-2.91-.07,7,7,0,0,0-4.56,3.14,8.49,8.49,0,0,0-1.28,4.47,6,6,0,0,0,.88,3C244.43,294,244.74,294.32,244.7,294.36Z" style="fill:#263238"></path><path d="M256.88,304.08c-.1,0,.11-1.51-.05-3.92a17,17,0,0,0-2.84-8.77,3.25,3.25,0,0,0-.85-.94,1.31,1.31,0,0,0-1.07-.13,21.76,21.76,0,0,0-2.36.75A17.55,17.55,0,0,0,246,293c-2,1.36-3,2.53-3,2.46a3.21,3.21,0,0,1,.65-.84,14.5,14.5,0,0,1,2.16-1.94,17.33,17.33,0,0,1,3.77-2.08,21.63,21.63,0,0,1,2.43-.8,1.81,1.81,0,0,1,1.49.2,3.84,3.84,0,0,1,1,1.07,14.08,14.08,0,0,1,2.2,4.81,19.73,19.73,0,0,1,.46,7.15A4,4,0,0,1,256.88,304.08Z" style="fill:#263238"></path><path d="M246.67,309.28a11.66,11.66,0,0,1,0-3,29.85,29.85,0,0,1,1.56-7.08,29.16,29.16,0,0,1,3.22-6.49,11.78,11.78,0,0,1,1.85-2.35,28.49,28.49,0,0,1-1.53,2.56,36.67,36.67,0,0,0-3,6.46,37.92,37.92,0,0,0-1.69,6.94A27.85,27.85,0,0,1,246.67,309.28Z" style="fill:#263238"></path><path d="M264.42,298.85a29.24,29.24,0,0,0-4.14-4.1,28.68,28.68,0,0,0-5.18-2.69,12.41,12.41,0,0,1,9.32,6.79Z" style="fill:#263238"></path><path d="M260.6,269.2c.14.09-1.78,3.22-3.54,7.37s-2.68,7.7-2.84,7.66a8.74,8.74,0,0,1,.45-2.37,41.29,41.29,0,0,1,4.54-10.69A9.09,9.09,0,0,1,260.6,269.2Z" style="fill:#263238"></path><path d="M266.31,274.24a55.61,55.61,0,0,1-5.52,5.56,57.33,57.33,0,0,1-5.9,5.16,55.61,55.61,0,0,1,5.52-5.56A57.33,57.33,0,0,1,266.31,274.24Z" style="fill:#263238"></path><path d="M229.38,279c.09-.13,3.1,1.85,7,3.94s7.22,3.52,7.16,3.67a9,9,0,0,1-2.25-.75,55.33,55.33,0,0,1-10.06-5.4A9.15,9.15,0,0,1,229.38,279Z" style="fill:#263238"></path><path d="M232.48,286.14a14.33,14.33,0,0,1,5,.62,14.06,14.06,0,0,1,4.72,1.87c-.06.14-2.17-.67-4.85-1.35S232.47,286.3,232.48,286.14Z" style="fill:#263238"></path></g></svg>
